<svg width="24" height="24" viewBox="0 0 24 24" fill="none" xmlns="http://www.w3.org/2000/svg">
<g clip-path="url(#clip0_374_2396)">
<path d="M0.477017 23.8125L11.8787 12.1253C11.9139 12.0905 11.9357 12.0445 11.9404 11.9952C11.9451 11.946 11.9322 11.8966 11.9042 11.8559C11.2109 10.8879 9.9315 10.72 9.45731 10.0696C8.05288 8.14304 7.69652 7.05235 7.09294 7.12004C7.05082 7.1261 7.01209 7.14653 6.98332 7.17788L2.86469 11.4C0.495066 13.827 0.154566 19.1766 0.0930657 23.6563C0.0928617 23.7009 0.106005 23.7445 0.130805 23.7816C0.155604 23.8186 0.190923 23.8474 0.232215 23.8642C0.273507 23.881 0.318881 23.885 0.362495 23.8758C0.406109 23.8666 0.446048 23.8446 0.477017 23.8125Z" fill="#017CEE"/>
<path d="M23.8106 23.5237L12.1234 12.1213C12.0886 12.086 12.0425 12.0641 11.9931 12.0594C11.9438 12.0547 11.8944 12.0676 11.8536 12.0958C10.8856 12.7895 10.7178 14.0685 10.0673 14.5427C8.14075 15.9471 7.05006 16.3034 7.11775 16.907C7.1239 16.949 7.14433 16.9876 7.17559 17.0162L11.3977 21.1349C13.8247 23.5045 19.1743 23.845 23.654 23.9065C23.6984 23.9065 23.7417 23.8934 23.7786 23.8686C23.8154 23.8439 23.8441 23.8088 23.8609 23.7678C23.8777 23.7267 23.8818 23.6816 23.8729 23.6381C23.8639 23.5947 23.8423 23.5548 23.8106 23.5237Z" fill="#00AD46"/>
<path d="M11.3985 21.1351C10.0718 19.8407 9.45694 17.2802 11.9996 12.0002C7.86597 13.8476 6.41753 16.2758 7.12984 16.9711L11.3985 21.1351Z" fill="#04D659"/>
<path d="M23.5219 0.189978L12.1206 11.8772C12.0853 11.912 12.0634 11.958 12.0588 12.0073C12.0541 12.0566 12.067 12.1059 12.0951 12.1466C12.7888 13.1146 14.0674 13.2825 14.542 13.9329C15.9464 15.8595 16.3031 16.9502 16.9063 16.8825C16.9485 16.8765 16.9872 16.856 17.016 16.8246L21.1346 12.6025C23.5042 10.1755 23.8447 4.82593 23.9062 0.346185C23.9063 0.301613 23.8931 0.258032 23.8682 0.221032C23.8434 0.184033 23.808 0.155301 23.7667 0.138523C23.7254 0.121745 23.6801 0.117686 23.6364 0.126867C23.5928 0.136047 23.5529 0.157979 23.5219 0.189978Z" fill="#00C7D4"/>
<path d="M21.1369 12.6021C19.8425 13.9288 17.2821 14.5436 12.0017 12.001C13.849 16.1346 16.2773 17.583 16.9725 16.8707L21.1369 12.6021Z" fill="#11E1EE"/>
<path d="M0.187822 0.478079L11.8751 11.8794C11.9098 11.9146 11.9559 11.9364 12.0051 11.9411C12.0544 11.9457 12.1037 11.9329 12.1445 11.9049C13.1124 11.2112 13.2803 9.93219 13.9307 9.458C15.8573 8.05357 16.948 7.6972 16.8803 7.09362C16.8742 7.05154 16.8537 7.01284 16.8225 6.984L12.6003 2.86538C10.1733 0.495755 4.82378 0.155255 0.344029 0.0937547C0.299365 0.0934641 0.255641 0.106576 0.218507 0.131395C0.181373 0.156214 0.152536 0.1916 0.135723 0.232979C0.118911 0.274358 0.114895 0.319829 0.124195 0.363515C0.133494 0.4072 0.155613 0.447136 0.187822 0.478079Z" fill="#E43921"/>
<path d="M12.6022 2.86621C13.929 4.16062 14.5438 6.72102 12.0012 12.0014C16.1348 10.1541 17.5832 7.72546 16.8709 7.03059L12.6022 2.86621Z" fill="#FF7557"/>
<path d="M2.86481 11.3995C4.15921 10.0728 6.71962 9.45797 12 12.0006C10.1527 7.86699 7.72443 6.41855 7.02918 7.13087L2.86481 11.3995Z" fill="#0CB6FF"/>
<path d="M12.0017 12.5087C12.2832 12.5087 12.5113 12.2805 12.5113 11.999C12.5113 11.7176 12.2832 11.4894 12.0017 11.4894C11.7202 11.4894 11.492 11.7176 11.492 11.999C11.492 12.2805 11.7202 12.5087 12.0017 12.5087Z" fill="#4A4848"/>
</g>
<defs>
<clipPath id="clip0_374_2396">
<rect width="24" height="24" fill="white"/>
</clipPath>
</defs>
</svg>
