<svg width="72" height="120" viewBox="0 0 72 120" fill="none" xmlns="http://www.w3.org/2000/svg">
<path d="M32.5 100C24.9167 100 18.4383 97.375 13.065 92.125C7.69167 86.875 5.00333 80.4583 5 72.875C5 66.375 6.95833 60.5833 10.875 55.5C14.7917 50.4167 19.9167 47.1667 26.25 45.75C28.3333 38.0833 32.5 31.875 38.75 27.125C45 22.375 52.0833 20 60 20C69.75 20 78.0217 23.3967 84.815 30.19C91.6083 36.9833 95.0033 45.2533 95 55C100.75 55.6667 105.522 58.1467 109.315 62.44C113.108 66.7333 115.003 71.7533 115 77.5C115 83.75 112.813 89.0633 108.44 93.44C104.067 97.8167 98.7533 100.003 92.5 100H32.5Z" fill="#2F1464"/>
</svg>
