<svg width="120" height="72" viewBox="0 0 120 72" fill="none" xmlns="http://www.w3.org/2000/svg">
<path d="M32.5 52C24.9167 52 18.4383 49.375 13.065 44.125C7.69167 38.875 5.00333 32.4583 5 24.875C5 18.375 6.95833 12.5833 10.875 7.5C14.7917 2.41667 19.9167 -0.833332 26.25 -2.25C28.3333 -9.91667 32.5 -16.125 38.75 -20.875C45 -25.625 52.0833 -28 60 -28C69.75 -28 78.0217 -24.6033 84.815 -17.81C91.6083 -11.0167 95.0033 -2.74666 95 7C100.75 7.66667 105.522 10.1467 109.315 14.44C113.108 18.7333 115.003 23.7533 115 29.5C115 35.75 112.813 41.0633 108.44 45.44C104.067 49.8167 98.7533 52.0033 92.5 52H32.5Z" fill="#2F1464"/>
</svg>
