<svg width="16" height="16" viewBox="0 0 16 16" fill="none" xmlns="http://www.w3.org/2000/svg">
<path fill-rule="evenodd" clip-rule="evenodd" d="M9.225 6.34998H10.6375V7.78748H11.35C11.675 7.78748 12.0125 7.72498 12.325 7.62498C12.475 7.57498 12.65 7.49998 12.8 7.41248C12.6 7.14998 12.5 6.82498 12.475 6.49998C12.4375 6.06248 12.525 5.48748 12.825 5.14998L12.975 4.97498L13.15 5.11248C13.6 5.47498 13.9625 5.96248 14.0375 6.53748C14.575 6.37498 15.2 6.41248 15.675 6.68748L15.8625 6.79998L15.7625 6.99998C15.3625 7.77498 14.525 8.02497 13.7125 7.97498C12.4875 11.0125 9.8375 12.45 6.6125 12.45C4.95 12.45 3.425 11.825 2.55 10.35L2.5375 10.325L2.4125 10.0625C2.1125 9.41248 2.025 8.69998 2.0875 7.98748L2.1125 7.77498H3.3125V6.34998H4.725V4.94998H7.5375V3.53748H9.225V6.34998Z" fill="#3A4D54"/>
<path d="M13.8 6.88749C13.9 6.14999 13.35 5.57499 13 5.29999C12.6125 5.74999 12.55 6.94999 13.1625 7.44999C12.8125 7.74999 12.1 8.03749 11.35 8.03749H2.325C2.25 8.81249 2.3875 9.52499 2.7 10.1375L2.8 10.325C2.8625 10.4375 2.9375 10.5375 3.0125 10.65C3.3875 10.675 3.725 10.6875 4.0375 10.675C4.65 10.6625 5.15 10.5875 5.5375 10.4625C5.6 10.4375 5.65 10.475 5.675 10.525C5.7 10.5875 5.6625 10.6375 5.6125 10.6625C5.5625 10.675 5.5125 10.7 5.45 10.7125C5.15 10.8 4.825 10.85 4.4125 10.875H4.3375C4.175 10.8875 4 10.8875 3.8125 10.8875C3.6125 10.8875 3.425 10.8875 3.2 10.875C3.95 11.725 5.125 12.225 6.6 12.225C9.725 12.225 12.375 10.8375 13.5375 7.73749C14.375 7.82499 15.175 7.61249 15.5375 6.89999C14.975 6.56249 14.225 6.67499 13.8 6.88749Z" fill="#00AADA"/>
<path d="M13.8 6.88749C13.9 6.14999 13.35 5.57499 13 5.29999C12.6125 5.74999 12.55 6.94999 13.1625 7.44999C12.8125 7.74999 12.1 8.03749 11.35 8.03749H2.85C2.8125 9.22499 3.25 10.125 4.0375 10.6625C4.65 10.65 5.15 10.575 5.5375 10.45C5.6 10.425 5.65 10.4625 5.675 10.5125C5.7 10.575 5.6625 10.625 5.6125 10.65C5.5625 10.6625 5.5125 10.6875 5.45 10.7C5.15 10.7875 4.8 10.85 4.3875 10.875L4.375 10.8625C5.4375 11.4125 6.975 11.4 8.75 10.725C10.725 9.96249 12.575 8.51249 13.8625 6.86249C13.8375 6.87499 13.8125 6.87499 13.8 6.88749Z" fill="#28B8EB"/>
<path d="M2.3375 8.97498C2.3875 9.38748 2.5125 9.77498 2.7 10.1375L2.8 10.325C2.8625 10.4375 2.9375 10.5375 3.0125 10.65C3.3875 10.675 3.725 10.6875 4.0375 10.675C4.65 10.6625 5.15 10.5875 5.5375 10.4625C5.6 10.4375 5.65 10.475 5.675 10.525C5.7 10.5875 5.6625 10.6375 5.6125 10.6625C5.5625 10.675 5.5125 10.7 5.45 10.7125C5.15 10.8 4.8 10.8625 4.3875 10.8875H4.3375C4.175 10.9 4 10.9 3.825 10.9C3.625 10.9 3.425 10.9 3.2125 10.8875C3.9625 11.7375 5.15 12.2375 6.625 12.2375C9.3 12.2375 11.625 11.225 12.975 8.98748H2.3375V8.97498Z" fill="#028BB8"/>
<path d="M2.9375 8.97498C3.1 9.69998 3.475 10.275 4.0375 10.6625C4.65 10.65 5.15 10.575 5.5375 10.45C5.6 10.425 5.65 10.4625 5.675 10.5125C5.7 10.575 5.6625 10.625 5.6125 10.65C5.5625 10.6625 5.5125 10.6875 5.45 10.7C5.15 10.7875 4.8 10.85 4.375 10.875C5.4375 11.425 6.975 11.4125 8.7375 10.7375C9.8 10.325 10.8375 9.71248 11.7625 8.97498H2.9375Z" fill="#019BC6"/>
<path fill-rule="evenodd" clip-rule="evenodd" d="M3.55 6.5875H4.775V7.8125H3.55V6.5875ZM3.65 6.6875H3.75V7.7H3.65V6.6875ZM3.825 6.6875H3.925V7.7H3.825V6.6875ZM4.0125 6.6875H4.1125V7.7H4.0125V6.6875ZM4.2 6.6875H4.3V7.7H4.2V6.6875ZM4.3875 6.6875H4.4875V7.7H4.3875V6.6875ZM4.575 6.6875H4.675V7.7H4.575V6.6875ZM4.95 5.1875H6.175V6.4125H4.95V5.1875ZM5.0625 5.2875H5.1625V6.3H5.0625V5.2875ZM5.2375 5.2875H5.3375V6.3H5.2375V5.2875ZM5.425 5.2875H5.525V6.3H5.425V5.2875ZM5.6125 5.2875H5.7125V6.3H5.6125V5.2875ZM5.7875 5.2875H5.8875V6.3H5.7875V5.2875ZM5.975 5.2875H6.075V6.3H5.975V5.2875Z" fill="#00ACD3"/>
<path fill-rule="evenodd" clip-rule="evenodd" d="M4.95 6.58752H6.175V7.81252H4.95V6.58752ZM5.0625 6.68752H5.1625V7.70002H5.0625V6.68752ZM5.2375 6.68752H5.3375V7.70002H5.2375V6.68752ZM5.425 6.68752H5.525V7.70002H5.425V6.68752ZM5.6125 6.68752H5.7125V7.70002H5.6125V6.68752ZM5.7875 6.68752H5.8875V7.70002H5.7875V6.68752ZM5.975 6.68752H6.075V7.70002H5.975V6.68752Z" fill="#23C2EE"/>
<path fill-rule="evenodd" clip-rule="evenodd" d="M6.3625 6.58752H7.5875V7.81252H6.3625V6.58752ZM6.4625 6.68752H6.5625V7.70002H6.4625V6.68752ZM6.65 6.68752H6.75V7.70002H6.65V6.68752ZM6.8375 6.68752H6.9375V7.70002H6.8375V6.68752ZM7.0125 6.68752H7.1125V7.70002H7.0125V6.68752ZM7.2 6.68752H7.3V7.70002H7.2V6.68752ZM7.3875 6.68752H7.4875V7.70002H7.3875V6.68752Z" fill="#00ACD3"/>
<path fill-rule="evenodd" clip-rule="evenodd" d="M6.3625 5.1875H7.5875V6.4125H6.3625V5.1875ZM6.4625 5.2875H6.5625V6.3H6.4625V5.2875ZM6.65 5.2875H6.75V6.3H6.65V5.2875ZM6.8375 5.2875H6.9375V6.3H6.8375V5.2875ZM7.0125 5.2875H7.1125V6.3H7.0125V5.2875ZM7.2 5.2875H7.3V6.3H7.2V5.2875ZM7.3875 5.2875H7.4875V6.3H7.3875V5.2875ZM7.775 6.5875H9V7.8125H7.775V6.5875ZM7.875 6.6875H7.975V7.7H7.875V6.6875ZM8.0625 6.6875H8.1625V7.7H8.0625V6.6875ZM8.2375 6.6875H8.3375V7.7H8.2375V6.6875ZM8.425 6.6875H8.525V7.7H8.425V6.6875ZM8.6125 6.6875H8.7125V7.7H8.6125V6.6875ZM8.8 6.6875H8.9V7.7H8.8V6.6875Z" fill="#23C2EE"/>
<path fill-rule="evenodd" clip-rule="evenodd" d="M7.775 5.1875H9V6.4125H7.775V5.1875ZM7.875 5.2875H7.975V6.3H7.875V5.2875ZM8.0625 5.2875H8.1625V6.3H8.0625V5.2875ZM8.2375 5.2875H8.3375V6.3H8.2375V5.2875ZM8.425 5.2875H8.525V6.3H8.425V5.2875ZM8.6125 5.2875H8.7125V6.3H8.6125V5.2875ZM8.8 5.2875H8.9V6.3H8.8V5.2875Z" fill="#00ACD3"/>
<path fill-rule="evenodd" clip-rule="evenodd" d="M7.775 3.77502H9V5.00002H7.775V3.77502ZM7.875 3.87502H7.975V4.88752H7.875V3.87502ZM8.0625 3.87502H8.1625V4.88752H8.0625V3.87502ZM8.2375 3.87502H8.3375V4.88752H8.2375V3.87502ZM8.425 3.87502H8.525V4.88752H8.425V3.87502ZM8.6125 3.87502H8.7125V4.88752H8.6125V3.87502ZM8.8 3.87502H8.9V4.88752H8.8V3.87502Z" fill="#23C2EE"/>
<path fill-rule="evenodd" clip-rule="evenodd" d="M9.1875 6.58752H10.4125V7.81252H9.1875V6.58752ZM9.2875 6.68752H9.3875V7.70002H9.2875V6.68752ZM9.4625 6.68752H9.5625V7.70002H9.4625V6.68752ZM9.65 6.68752H9.75V7.70002H9.65V6.68752ZM9.8375 6.68752H9.9375V7.70002H9.8375V6.68752ZM10.025 6.68752H10.125V7.70002H10.025V6.68752ZM10.2125 6.68752H10.3125V7.70002H10.2125V6.68752Z" fill="#00ACD3"/>
<path fill-rule="evenodd" clip-rule="evenodd" d="M6.1 9.78748C6.2875 9.78748 6.4375 9.93748 6.4375 10.125C6.4375 10.3125 6.2875 10.4625 6.1 10.4625C5.9125 10.4625 5.7625 10.3125 5.7625 10.125C5.7625 9.93748 5.9125 9.78748 6.1 9.78748Z" fill="#D4EEF1"/>
<path fill-rule="evenodd" clip-rule="evenodd" d="M6.1 9.88751C6.125 9.88751 6.1625 9.88751 6.1875 9.90001C6.1625 9.91251 6.1375 9.95001 6.1375 9.98751C6.1375 10.0375 6.1875 10.0875 6.2375 10.0875C6.275 10.0875 6.3125 10.0625 6.325 10.0375C6.3375 10.0625 6.3375 10.1 6.3375 10.125C6.3375 10.2625 6.225 10.3625 6.1 10.3625C5.9625 10.3625 5.8625 10.25 5.8625 10.125C5.8625 10 5.9625 9.88751 6.1 9.88751ZM0.137497 9.10001H15.8125C15.475 9.01251 14.7375 8.90001 14.85 8.45001C14.225 9.16251 12.7375 8.95001 12.35 8.60001C11.925 9.21251 9.475 8.97501 9.3125 8.50001C8.7875 9.12501 7.15 9.12501 6.625 8.50001C6.45 8.97501 4 9.21251 3.5875 8.60001C3.2125 8.95001 1.7125 9.16251 1.0875 8.45001C1.225 8.88751 0.474997 9.01251 0.137497 9.10001Z" fill="#3A4D54"/>
<path d="M7 12.225C6.1625 11.825 5.7125 11.2875 5.45 10.7C5.1375 10.7875 4.7625 10.85 4.3375 10.875C4.175 10.8875 4 10.8875 3.825 10.8875C3.6125 10.8875 3.4 10.8875 3.175 10.875C3.925 11.625 4.875 12.2125 6.6125 12.225H7Z" fill="#BFDBE0"/>
<path d="M5.7625 11.2375C5.65 11.075 5.5375 10.8875 5.45 10.7C5.1375 10.7875 4.7625 10.85 4.3375 10.875C4.625 11.025 5.05 11.175 5.7625 11.2375Z" fill="#D4EEF1"/>
</svg>
