<svg width="520" height="72" viewBox="0 0 520 72" fill="none" xmlns="http://www.w3.org/2000/svg">
<g clip-path="url(#clip0_633_12239)">
<rect width="1" height="72" fill="#E6E6E6"/>
<rect x="2.38086" width="1" height="72" fill="#E6E6E6"/>
<rect x="4.76123" width="1" height="72" fill="#E6E6E6"/>
<rect x="7.14209" width="1" height="72" fill="#E6E6E6"/>
<rect x="9.52295" width="1" height="72" fill="#E6E6E6"/>
<rect x="11.9038" width="1" height="72" fill="#E6E6E6"/>
<rect x="14.2842" width="1" height="72" fill="#E6E6E6"/>
<rect x="16.665" width="1" height="72" fill="#E6E6E6"/>
<rect x="19.0459" width="1" height="72" fill="#E6E6E6"/>
<rect x="21.4268" width="1" height="72" fill="#E6E6E6"/>
<rect x="23.8071" width="1" height="72" fill="#E6E6E6"/>
<rect x="26.188" width="1" height="72" fill="#E6E6E6"/>
<rect x="28.5688" width="1" height="72" fill="#E6E6E6"/>
<rect x="30.9497" width="1" height="72" fill="#E6E6E6"/>
<rect x="33.3301" width="1" height="72" fill="#E6E6E6"/>
<rect x="35.7109" width="1" height="72" fill="#E6E6E6"/>
<rect x="38.0918" width="1" height="72" fill="#E6E6E6"/>
<rect x="40.4727" width="1" height="72" fill="#E6E6E6"/>
<rect x="42.853" width="1" height="72" fill="#E6E6E6"/>
<rect x="45.2339" width="1" height="72" fill="#E6E6E6"/>
<rect x="47.6147" width="1" height="72" fill="#E6E6E6"/>
<rect x="49.9956" width="1" height="72" fill="#E6E6E6"/>
<rect x="52.376" width="1" height="72" fill="#E6E6E6"/>
<rect x="54.7568" width="1" height="72" fill="#E6E6E6"/>
<rect x="57.1377" width="1" height="72" fill="#E6E6E6"/>
<rect x="59.5186" width="1" height="72" fill="#E6E6E6"/>
<rect x="61.8989" width="1" height="72" fill="#E6E6E6"/>
<rect x="64.2798" width="1" height="72" fill="#E6E6E6"/>
<rect x="66.6606" width="1" height="72" fill="#E6E6E6"/>
<rect x="69.0415" width="1" height="72" fill="#E6E6E6"/>
<rect x="71.4219" width="1" height="72" fill="#E6E6E6"/>
<rect x="73.8027" width="1" height="72" fill="#E6E6E6"/>
<rect x="76.1836" width="1" height="72" fill="#E6E6E6"/>
<rect x="78.5645" width="1" height="72" fill="#E6E6E6"/>
<rect x="80.9448" width="1" height="72" fill="#E6E6E6"/>
<rect x="83.3257" width="1" height="72" fill="#E6E6E6"/>
<rect x="85.7065" width="1" height="72" fill="#E6E6E6"/>
<rect x="88.0874" width="1" height="72" fill="#E6E6E6"/>
<rect x="90.4678" width="1" height="72" fill="#E6E6E6"/>
<rect x="92.8486" width="1" height="72" fill="#E6E6E6"/>
<rect x="95.2295" width="1" height="72" fill="#E6E6E6"/>
<rect x="97.6104" width="1" height="72" fill="#E6E6E6"/>
<rect x="99.9907" width="1" height="72" fill="#E6E6E6"/>
<rect x="102.372" width="1" height="72" fill="#E6E6E6"/>
<rect x="104.752" width="1" height="72" fill="#E6E6E6"/>
<rect x="107.133" width="1" height="72" fill="#E6E6E6"/>
<rect x="109.514" width="1" height="72" fill="#E6E6E6"/>
<rect x="111.895" width="1" height="72" fill="#E6E6E6"/>
<rect x="114.275" width="1" height="72" fill="#E6E6E6"/>
<rect x="116.656" width="1" height="72" fill="#E6E6E6"/>
<rect x="119.037" width="1" height="72" fill="#E6E6E6"/>
<rect x="121.417" width="1" height="72" fill="#E6E6E6"/>
<rect x="123.798" width="1" height="72" fill="#E6E6E6"/>
<rect x="126.179" width="1" height="72" fill="#E6E6E6"/>
<rect x="128.56" width="1" height="72" fill="#E6E6E6"/>
<rect x="130.94" width="1" height="72" fill="#E6E6E6"/>
<rect x="133.321" width="1" height="72" fill="#E6E6E6"/>
<rect x="135.702" width="1" height="72" fill="#E6E6E6"/>
<rect x="138.083" width="1" height="72" fill="#E6E6E6"/>
<rect x="140.463" width="1" height="72" fill="#E6E6E6"/>
<rect x="142.844" width="1" height="72" fill="#E6E6E6"/>
<rect x="145.225" width="1" height="72" fill="#E6E6E6"/>
<rect x="147.605" width="1" height="72" fill="#E6E6E6"/>
<rect x="149.986" width="1" height="72" fill="#E6E6E6"/>
<rect x="152.367" width="1" height="72" fill="#E6E6E6"/>
<rect x="154.748" width="1" height="72" fill="#E6E6E6"/>
<rect x="157.128" width="1" height="72" fill="#E6E6E6"/>
<rect x="159.509" width="1" height="72" fill="#E6E6E6"/>
<rect x="161.89" width="1" height="72" fill="#E6E6E6"/>
<rect x="164.271" width="1" height="72" fill="#E6E6E6"/>
<rect x="166.651" width="1" height="72" fill="#E6E6E6"/>
<rect x="169.032" width="1" height="72" fill="#E6E6E6"/>
<rect x="171.413" width="1" height="72" fill="#E6E6E6"/>
<rect x="173.794" width="1" height="72" fill="#E6E6E6"/>
<rect x="176.174" width="1" height="72" fill="#E6E6E6"/>
<rect x="178.555" width="1" height="72" fill="#E6E6E6"/>
<rect x="180.936" width="1" height="72" fill="#E6E6E6"/>
<rect x="183.317" width="1" height="72" fill="#E6E6E6"/>
<rect x="185.697" width="1" height="72" fill="#E6E6E6"/>
<rect x="188.078" width="1" height="72" fill="#E6E6E6"/>
<rect x="190.459" width="1" height="72" fill="#E6E6E6"/>
<rect x="192.84" width="1" height="72" fill="#E6E6E6"/>
<rect x="195.22" width="1" height="72" fill="#E6E6E6"/>
<rect x="197.601" width="1" height="72" fill="#E6E6E6"/>
<rect x="199.982" width="1" height="72" fill="#E6E6E6"/>
<rect x="202.363" width="1" height="72" fill="#E6E6E6"/>
<rect x="204.743" width="1" height="72" fill="#E6E6E6"/>
<rect x="207.124" width="1" height="72" fill="#E6E6E6"/>
<rect x="209.505" width="1" height="72" fill="#E6E6E6"/>
<rect x="211.886" width="1" height="72" fill="#E6E6E6"/>
<rect x="214.266" width="1" height="72" fill="#E6E6E6"/>
<rect x="216.647" width="1" height="72" fill="#E6E6E6"/>
<rect x="219.028" width="1" height="72" fill="#E6E6E6"/>
<rect x="221.409" width="1" height="72" fill="#E6E6E6"/>
<rect x="223.789" width="1" height="72" fill="#E6E6E6"/>
<rect x="226.17" width="1" height="72" fill="#E6E6E6"/>
<rect x="228.551" width="1" height="72" fill="#E6E6E6"/>
<rect x="230.932" width="1" height="72" fill="#E6E6E6"/>
<rect x="233.312" width="1" height="72" fill="#E6E6E6"/>
<rect x="235.693" width="1" height="72" fill="#E6E6E6"/>
<rect x="238.074" width="1" height="72" fill="#E6E6E6"/>
<rect x="240.455" width="1" height="72" fill="#E6E6E6"/>
<rect x="242.835" width="1" height="72" fill="#E6E6E6"/>
<rect x="245.216" width="1" height="72" fill="#E6E6E6"/>
<rect x="247.597" width="1" height="72" fill="#E6E6E6"/>
<rect x="249.978" width="1" height="72" fill="#E6E6E6"/>
<rect x="252.358" width="1" height="72" fill="#E6E6E6"/>
<rect x="254.739" width="1" height="72" fill="#E6E6E6"/>
<rect x="257.12" width="1" height="72" fill="#E6E6E6"/>
<rect x="259.5" width="1" height="72" fill="#E6E6E6"/>
<rect x="261.881" width="1" height="72" fill="#E6E6E6"/>
<rect x="264.262" width="1" height="72" fill="#E6E6E6"/>
<rect x="266.643" width="1" height="72" fill="#E6E6E6"/>
<rect x="269.023" width="1" height="72" fill="#E6E6E6"/>
<rect x="271.404" width="1" height="72" fill="#E6E6E6"/>
<rect x="273.785" width="1" height="72" fill="#E6E6E6"/>
<rect x="276.166" width="1" height="72" fill="#E6E6E6"/>
<rect x="278.546" width="1" height="72" fill="#E6E6E6"/>
<rect x="280.927" width="1" height="72" fill="#E6E6E6"/>
<rect x="283.308" width="1" height="72" fill="#E6E6E6"/>
<rect x="285.688" width="1" height="72" fill="#E6E6E6"/>
<rect x="288.069" width="1" height="72" fill="#E6E6E6"/>
<rect x="290.45" width="1" height="72" fill="#E6E6E6"/>
<rect x="292.831" width="1" height="72" fill="#E6E6E6"/>
<rect x="295.211" width="1" height="72" fill="#E6E6E6"/>
<rect x="297.592" width="1" height="72" fill="#E6E6E6"/>
<rect x="299.973" width="1" height="72" fill="#E6E6E6"/>
<rect x="302.354" width="1" height="72" fill="#E6E6E6"/>
<rect x="304.734" width="1" height="72" fill="#E6E6E6"/>
<rect x="307.115" width="1" height="72" fill="#E6E6E6"/>
<rect x="309.496" width="1" height="72" fill="#E6E6E6"/>
<rect x="311.876" width="1" height="72" fill="#E6E6E6"/>
<rect x="314.257" width="1" height="72" fill="#E6E6E6"/>
<rect x="316.638" width="1" height="72" fill="#E6E6E6"/>
<rect x="319.019" width="1" height="72" fill="#E6E6E6"/>
<rect x="321.399" width="1" height="72" fill="#E6E6E6"/>
<rect x="323.78" width="1" height="72" fill="#E6E6E6"/>
<rect x="326.161" width="1" height="72" fill="#E6E6E6"/>
<rect x="328.542" width="1" height="72" fill="#E6E6E6"/>
<rect x="330.922" width="1" height="72" fill="#E6E6E6"/>
<rect x="333.303" width="1" height="72" fill="#E6E6E6"/>
<rect x="335.684" width="1" height="72" fill="#E6E6E6"/>
<rect x="338.064" width="1" height="72" fill="#E6E6E6"/>
<rect x="340.445" width="1" height="72" fill="#E6E6E6"/>
<rect x="342.826" width="1" height="72" fill="#E6E6E6"/>
<rect x="345.207" width="1" height="72" fill="#E6E6E6"/>
<rect x="347.587" width="1" height="72" fill="#E6E6E6"/>
<rect x="349.968" width="1" height="72" fill="#E6E6E6"/>
<rect x="352.349" width="1" height="72" fill="#E6E6E6"/>
<rect x="354.729" width="1" height="72" fill="#E6E6E6"/>
<rect x="357.11" width="1" height="72" fill="#E6E6E6"/>
<rect x="359.491" width="1" height="72" fill="#E6E6E6"/>
<rect x="361.872" width="1" height="72" fill="#E6E6E6"/>
<rect x="364.253" width="1" height="72" fill="#E6E6E6"/>
<rect x="366.633" width="1" height="72" fill="#E6E6E6"/>
<rect x="369.014" width="1" height="72" fill="#E6E6E6"/>
<rect x="371.395" width="1" height="72" fill="#E6E6E6"/>
<rect x="373.775" width="1" height="72" fill="#E6E6E6"/>
<rect x="376.156" width="1" height="72" fill="#E6E6E6"/>
<rect x="378.537" width="1" height="72" fill="#E6E6E6"/>
<rect x="380.918" width="1" height="72" fill="#E6E6E6"/>
<rect x="383.299" width="1" height="72" fill="#E6E6E6"/>
<rect x="385.679" width="1" height="72" fill="#E6E6E6"/>
<rect x="388.06" width="1" height="72" fill="#E6E6E6"/>
<rect x="390.441" width="1" height="72" fill="#E6E6E6"/>
<rect x="392.821" width="1" height="72" fill="#E6E6E6"/>
<rect x="395.202" width="1" height="72" fill="#E6E6E6"/>
<rect x="397.583" width="1" height="72" fill="#E6E6E6"/>
<rect x="399.964" width="1" height="72" fill="#E6E6E6"/>
<rect x="402.345" width="1" height="72" fill="#E6E6E6"/>
<rect x="404.725" width="1" height="72" fill="#E6E6E6"/>
<rect x="407.106" width="1" height="72" fill="#E6E6E6"/>
<rect x="409.487" width="1" height="72" fill="#E6E6E6"/>
<rect x="411.867" width="1" height="72" fill="#E6E6E6"/>
<rect x="414.248" width="1" height="72" fill="#E6E6E6"/>
<rect x="416.629" width="1" height="72" fill="#E6E6E6"/>
<rect x="419.01" width="1" height="72" fill="#E6E6E6"/>
<rect x="421.391" width="1" height="72" fill="#E6E6E6"/>
<rect x="423.771" width="1" height="72" fill="#E6E6E6"/>
<rect x="426.152" width="1" height="72" fill="#E6E6E6"/>
<rect x="428.533" width="1" height="72" fill="#E6E6E6"/>
<rect x="430.913" width="1" height="72" fill="#E6E6E6"/>
<rect x="433.294" width="1" height="72" fill="#E6E6E6"/>
<rect x="435.675" width="1" height="72" fill="#E6E6E6"/>
<rect x="438.056" width="1" height="72" fill="#E6E6E6"/>
<rect x="440.437" width="1" height="72" fill="#E6E6E6"/>
<rect x="442.817" width="1" height="72" fill="#E6E6E6"/>
<rect x="445.198" width="1" height="72" fill="#E6E6E6"/>
<rect x="447.579" width="1" height="72" fill="#E6E6E6"/>
<rect x="449.959" width="1" height="72" fill="#E6E6E6"/>
<rect x="452.34" width="1" height="72" fill="#E6E6E6"/>
<rect x="454.721" width="1" height="72" fill="#E6E6E6"/>
<rect x="457.102" width="1" height="72" fill="#E6E6E6"/>
<rect x="459.482" width="1" height="72" fill="#E6E6E6"/>
<rect x="461.863" width="1" height="72" fill="#E6E6E6"/>
<rect x="464.244" width="1" height="72" fill="#E6E6E6"/>
<rect x="466.625" width="1" height="72" fill="#E6E6E6"/>
<rect x="469.005" width="1" height="72" fill="#E6E6E6"/>
<rect x="471.386" width="1" height="72" fill="#E6E6E6"/>
<rect x="473.767" width="1" height="72" fill="#E6E6E6"/>
<rect x="476.147" width="1" height="72" fill="#E6E6E6"/>
<rect x="478.528" width="1" height="72" fill="#E6E6E6"/>
<rect x="480.909" width="1" height="72" fill="#E6E6E6"/>
<rect x="483.29" width="1" height="72" fill="#E6E6E6"/>
<rect x="485.67" width="1" height="72" fill="#E6E6E6"/>
<rect x="488.051" width="1" height="72" fill="#E6E6E6"/>
<rect x="490.432" width="1" height="72" fill="#E6E6E6"/>
<rect x="492.812" width="1" height="72" fill="#E6E6E6"/>
<rect x="495.193" width="1" height="72" fill="#E6E6E6"/>
<rect x="497.574" width="1" height="72" fill="#E6E6E6"/>
<rect x="499.955" width="1" height="72" fill="#E6E6E6"/>
<rect x="502.335" width="1" height="72" fill="#E6E6E6"/>
<rect x="504.716" width="1" height="72" fill="#E6E6E6"/>
<rect x="507.097" width="1" height="72" fill="#E6E6E6"/>
<rect x="509.478" width="1" height="72" fill="#E6E6E6"/>
<rect x="511.858" width="1" height="72" fill="#E6E6E6"/>
<rect x="514.239" width="1" height="72" fill="#E6E6E6"/>
<rect x="516.62" width="1" height="72" fill="#E6E6E6"/>
<rect x="519" width="1" height="72" fill="#E6E6E6"/>
</g>
<defs>
<clipPath id="clip0_633_12239">
<rect width="520" height="72" fill="white"/>
</clipPath>
</defs>
</svg>
