<svg width="16" height="16" viewBox="0 0 16 16" fill="none" xmlns="http://www.w3.org/2000/svg">
<g clip-path="url(#clip0_374_1477)">
<path d="M7.5622 10.8099H8.43782V8.38989H10.6401V7.52944H8.43782V5.10944H7.5622V7.52944H5.38641V8.38989H7.5622V10.8099Z" fill="#E8762D"/>
<path d="M3.50249 14.3055H4.24544V12.1544H6.20895V11.4821H4.24544V9.30414H3.50249V11.4821H1.53897V12.1544H3.50249V14.3055Z" fill="#C72037"/>
<path d="M11.7546 6.53457H12.4975V4.38346H14.4876V3.73812H12.4975V1.56012H11.7546V3.73812H9.79105V4.38346H11.7546V6.53457Z" fill="#5B879B"/>
<path d="M7.69486 15.9995H8.33168V14.4668H9.68491V13.9021H8.33168V12.3694H7.69486V13.9021H6.36816V14.4668H7.69486V15.9995Z" fill="#5C6692"/>
<path d="M3.52902 6.53457H4.2189V4.35657H6.20895V3.73812H4.2189V1.56012H3.52902V3.73812H1.53897V4.35657H3.52902V6.53457Z" fill="#EB9129"/>
<path d="M14.01 9.7612H14.6468V8.25542H16V7.66386H14.6468V6.15808H14.01V7.66386H12.6833V8.25542H14.01V9.7612Z" fill="#5C6692"/>
<path fill-rule="evenodd" clip-rule="evenodd" d="M11.7546 14.3055H12.4975V12.1544H14.4876V11.4821H12.4975V9.30414H11.7546V11.4821H9.79105V12.1544H11.7546V14.3055Z" fill="#1F457E"/>
<path d="M9.57877 1.93655V1.47944H8.25207V0.000549316H7.77446V1.47944H6.44776V1.93655H7.77446V3.41544H8.25207V1.93655H9.57877ZM1.3267 9.65368H1.80431V8.17478H3.13101V7.71767H1.80431V6.26567H1.3267V7.71767H0V8.20167L1.3267 8.17478V9.65368Z" fill="#7199A6"/>
</g>
<defs>
<clipPath id="clip0_374_1477">
<rect width="16" height="16" fill="white"/>
</clipPath>
</defs>
</svg>
