<svg width="40" height="40" viewBox="0 0 40 40" fill="none" xmlns="http://www.w3.org/2000/svg">
<path d="M35.5037 17.0877L31.607 8.69526C31.4907 8.44461 31.289 8.24143 31.0366 8.12052C30.7843 7.99961 30.4969 7.9685 30.2237 8.03251L11.492 12.4207C11.2299 12.4821 10.9962 12.6273 10.8279 12.8336C10.6596 13.0398 10.5662 13.2952 10.5627 13.5593L10.507 17.4917C10.5048 17.6487 10.5344 17.8047 10.5941 17.9504C10.6538 18.0962 10.7424 18.2289 10.8548 18.3408C10.9672 18.4528 11.1011 18.5418 11.2489 18.6026C11.3966 18.6634 11.5551 18.6949 11.7153 18.6953L34.3977 18.7675C34.6008 18.7682 34.8008 18.7187 34.9793 18.6238C35.1578 18.5289 35.3091 18.3914 35.4192 18.2241C35.5294 18.0569 35.5948 17.8651 35.6096 17.6665C35.6243 17.4679 35.5879 17.2689 35.5037 17.0877Z" fill="#7632F9"/>
<path d="M27.9443 20.0316H6.41667C5.63426 20.0316 5 20.6534 5 21.4204V24.5685C5 25.3355 5.63426 25.9574 6.41667 25.9574H27.9443C28.7267 25.9574 29.361 25.3355 29.361 24.5685V21.4204C29.361 20.6534 28.7267 20.0316 27.9443 20.0316Z" fill="#7632F9"/>
<path d="M18.411 27.0587H11.707C10.9281 27.0587 10.2967 27.6777 10.2967 28.4413V31.6018C10.2967 32.3654 10.9281 32.9845 11.707 32.9845H18.411C19.1899 32.9845 19.8214 32.3654 19.8214 31.6018V28.4413C19.8214 27.6777 19.1899 27.0587 18.411 27.0587Z" fill="#7632F9"/>
</svg>
