<svg width="390" height="244" viewBox="0 0 390 244" fill="none" xmlns="http://www.w3.org/2000/svg">
<g clip-path="url(#clip0_545_31034)">
<rect width="1" height="244" fill="#E6E6E6"/>
<rect x="2.66443" width="1" height="244" fill="#E6E6E6"/>
<rect x="5.32874" width="1" height="244" fill="#E6E6E6"/>
<rect x="7.99316" width="1" height="244" fill="#E6E6E6"/>
<rect x="10.6576" width="1" height="244" fill="#E6E6E6"/>
<rect x="13.3219" width="1" height="244" fill="#E6E6E6"/>
<rect x="15.9863" width="1" height="244" fill="#E6E6E6"/>
<rect x="18.6506" width="1" height="244" fill="#E6E6E6"/>
<rect x="21.3151" width="1" height="244" fill="#E6E6E6"/>
<rect x="23.9795" width="1" height="244" fill="#E6E6E6"/>
<rect x="26.6438" width="1" height="244" fill="#E6E6E6"/>
<rect x="29.3082" width="1" height="244" fill="#E6E6E6"/>
<rect x="31.9727" width="1" height="244" fill="#E6E6E6"/>
<rect x="34.637" width="1" height="244" fill="#E6E6E6"/>
<rect x="37.3014" width="1" height="244" fill="#E6E6E6"/>
<rect x="39.9657" width="1" height="244" fill="#E6E6E6"/>
<rect x="42.6301" width="1" height="244" fill="#E6E6E6"/>
<rect x="45.2946" width="1" height="244" fill="#E6E6E6"/>
<rect x="47.9589" width="1" height="244" fill="#E6E6E6"/>
<rect x="50.6233" width="1" height="244" fill="#E6E6E6"/>
<rect x="53.2877" width="1" height="244" fill="#E6E6E6"/>
<rect x="55.952" width="1" height="244" fill="#E6E6E6"/>
<rect x="58.6165" width="1" height="244" fill="#E6E6E6"/>
<rect x="61.2808" width="1" height="244" fill="#E6E6E6"/>
<rect x="63.9452" width="1" height="244" fill="#E6E6E6"/>
<rect x="66.6096" width="1" height="244" fill="#E6E6E6"/>
<rect x="69.2739" width="1" height="244" fill="#E6E6E6"/>
<rect x="71.9384" width="1" height="244" fill="#E6E6E6"/>
<rect x="74.6028" width="1" height="244" fill="#E6E6E6"/>
<rect x="77.2671" width="1" height="244" fill="#E6E6E6"/>
<rect x="79.9315" width="1" height="244" fill="#E6E6E6"/>
<rect x="82.5958" width="1" height="244" fill="#E6E6E6"/>
<rect x="85.2603" width="1" height="244" fill="#E6E6E6"/>
<rect x="87.9247" width="1" height="244" fill="#E6E6E6"/>
<rect x="90.589" width="1" height="244" fill="#E6E6E6"/>
<rect x="93.2534" width="1" height="244" fill="#E6E6E6"/>
<rect x="95.9178" width="1" height="244" fill="#E6E6E6"/>
<rect x="98.5822" width="1" height="244" fill="#E6E6E6"/>
<rect x="101.247" width="1" height="244" fill="#E6E6E6"/>
<rect x="103.911" width="1" height="244" fill="#E6E6E6"/>
<rect x="106.575" width="1" height="244" fill="#E6E6E6"/>
<rect x="109.24" width="1" height="244" fill="#E6E6E6"/>
<rect x="111.904" width="1" height="244" fill="#E6E6E6"/>
<rect x="114.568" width="1" height="244" fill="#E6E6E6"/>
<rect x="117.233" width="1" height="244" fill="#E6E6E6"/>
<rect x="119.897" width="1" height="244" fill="#E6E6E6"/>
<rect x="122.562" width="1" height="244" fill="#E6E6E6"/>
<rect x="125.226" width="1" height="244" fill="#E6E6E6"/>
<rect x="127.89" width="1" height="244" fill="#E6E6E6"/>
<rect x="130.555" width="1" height="244" fill="#E6E6E6"/>
<rect x="133.219" width="1" height="244" fill="#E6E6E6"/>
<rect x="135.884" width="1" height="244" fill="#E6E6E6"/>
<rect x="138.548" width="1" height="244" fill="#E6E6E6"/>
<rect x="141.212" width="1" height="244" fill="#E6E6E6"/>
<rect x="143.877" width="1" height="244" fill="#E6E6E6"/>
<rect x="146.541" width="1" height="244" fill="#E6E6E6"/>
<rect x="149.205" width="1" height="244" fill="#E6E6E6"/>
<rect x="151.87" width="1" height="244" fill="#E6E6E6"/>
<rect x="154.534" width="1" height="244" fill="#E6E6E6"/>
<rect x="157.199" width="1" height="244" fill="#E6E6E6"/>
<rect x="159.863" width="1" height="244" fill="#E6E6E6"/>
<rect x="162.527" width="1" height="244" fill="#E6E6E6"/>
<rect x="165.192" width="1" height="244" fill="#E6E6E6"/>
<rect x="167.856" width="1" height="244" fill="#E6E6E6"/>
<rect x="170.521" width="1" height="244" fill="#E6E6E6"/>
<rect x="173.185" width="1" height="244" fill="#E6E6E6"/>
<rect x="175.849" width="1" height="244" fill="#E6E6E6"/>
<rect x="178.514" width="1" height="244" fill="#E6E6E6"/>
<rect x="181.178" width="1" height="244" fill="#E6E6E6"/>
<rect x="183.842" width="1" height="244" fill="#E6E6E6"/>
<rect x="186.507" width="1" height="244" fill="#E6E6E6"/>
<rect x="189.171" width="1" height="244" fill="#E6E6E6"/>
<rect x="191.836" width="1" height="244" fill="#E6E6E6"/>
<rect x="194.5" width="1" height="244" fill="#E6E6E6"/>
<rect x="197.164" width="1" height="244" fill="#E6E6E6"/>
<rect x="199.829" width="1" height="244" fill="#E6E6E6"/>
<rect x="202.493" width="1" height="244" fill="#E6E6E6"/>
<rect x="205.157" width="1" height="244" fill="#E6E6E6"/>
<rect x="207.822" width="1" height="244" fill="#E6E6E6"/>
<rect x="210.486" width="1" height="244" fill="#E6E6E6"/>
<rect x="213.151" width="1" height="244" fill="#E6E6E6"/>
<rect x="215.815" width="1" height="244" fill="#E6E6E6"/>
<rect x="218.479" width="1" height="244" fill="#E6E6E6"/>
<rect x="221.144" width="1" height="244" fill="#E6E6E6"/>
<rect x="223.808" width="1" height="244" fill="#E6E6E6"/>
<rect x="226.473" width="1" height="244" fill="#E6E6E6"/>
<rect x="229.137" width="1" height="244" fill="#E6E6E6"/>
<rect x="231.801" width="1" height="244" fill="#E6E6E6"/>
<rect x="234.466" width="1" height="244" fill="#E6E6E6"/>
<rect x="237.13" width="1" height="244" fill="#E6E6E6"/>
<rect x="239.794" width="1" height="244" fill="#E6E6E6"/>
<rect x="242.459" width="1" height="244" fill="#E6E6E6"/>
<rect x="245.123" width="1" height="244" fill="#E6E6E6"/>
<rect x="247.788" width="1" height="244" fill="#E6E6E6"/>
<rect x="250.452" width="1" height="244" fill="#E6E6E6"/>
<rect x="253.116" width="1" height="244" fill="#E6E6E6"/>
<rect x="255.781" width="1" height="244" fill="#E6E6E6"/>
<rect x="258.445" width="1" height="244" fill="#E6E6E6"/>
<rect x="261.11" width="1" height="244" fill="#E6E6E6"/>
<rect x="263.774" width="1" height="244" fill="#E6E6E6"/>
<rect x="266.438" width="1" height="244" fill="#E6E6E6"/>
<rect x="269.103" width="1" height="244" fill="#E6E6E6"/>
<rect x="271.767" width="1" height="244" fill="#E6E6E6"/>
<rect x="274.432" width="1" height="244" fill="#E6E6E6"/>
<rect x="277.096" width="1" height="244" fill="#E6E6E6"/>
<rect x="279.76" width="1" height="244" fill="#E6E6E6"/>
<rect x="282.425" width="1" height="244" fill="#E6E6E6"/>
<rect x="285.089" width="1" height="244" fill="#E6E6E6"/>
<rect x="287.754" width="1" height="244" fill="#E6E6E6"/>
<rect x="290.418" width="1" height="244" fill="#E6E6E6"/>
<rect x="293.082" width="1" height="244" fill="#E6E6E6"/>
<rect x="295.747" width="1" height="244" fill="#E6E6E6"/>
<rect x="298.411" width="1" height="244" fill="#E6E6E6"/>
<rect x="301.076" width="1" height="244" fill="#E6E6E6"/>
<rect x="303.74" width="1" height="244" fill="#E6E6E6"/>
<rect x="306.404" width="1" height="244" fill="#E6E6E6"/>
<rect x="309.069" width="1" height="244" fill="#E6E6E6"/>
<rect x="311.733" width="1" height="244" fill="#E6E6E6"/>
<rect x="314.397" width="1" height="244" fill="#E6E6E6"/>
<rect x="317.062" width="1" height="244" fill="#E6E6E6"/>
<rect x="319.726" width="1" height="244" fill="#E6E6E6"/>
<rect x="322.391" width="1" height="244" fill="#E6E6E6"/>
<rect x="325.055" width="1" height="244" fill="#E6E6E6"/>
<rect x="327.719" width="1" height="244" fill="#E6E6E6"/>
<rect x="330.384" width="1" height="244" fill="#E6E6E6"/>
<rect x="333.048" width="1" height="244" fill="#E6E6E6"/>
<rect x="335.713" width="1" height="244" fill="#E6E6E6"/>
<rect x="338.377" width="1" height="244" fill="#E6E6E6"/>
<rect x="341.042" width="1" height="244" fill="#E6E6E6"/>
<rect x="343.706" width="1" height="244" fill="#E6E6E6"/>
<rect x="346.37" width="1" height="244" fill="#E6E6E6"/>
<rect x="349.035" width="1" height="244" fill="#E6E6E6"/>
<rect x="351.699" width="1" height="244" fill="#E6E6E6"/>
<rect x="354.364" width="1" height="244" fill="#E6E6E6"/>
<rect x="357.028" width="1" height="244" fill="#E6E6E6"/>
<rect x="359.692" width="1" height="244" fill="#E6E6E6"/>
<rect x="362.357" width="1" height="244" fill="#E6E6E6"/>
<rect x="365.021" width="1" height="244" fill="#E6E6E6"/>
<rect x="367.686" width="1" height="244" fill="#E6E6E6"/>
<rect x="370.35" width="1" height="244" fill="#E6E6E6"/>
<rect x="373.014" width="1" height="244" fill="#E6E6E6"/>
<rect x="375.679" width="1" height="244" fill="#E6E6E6"/>
<rect x="378.343" width="1" height="244" fill="#E6E6E6"/>
<rect x="381.007" width="1" height="244" fill="#E6E6E6"/>
<rect x="383.672" width="1" height="244" fill="#E6E6E6"/>
<rect x="386.336" width="1" height="244" fill="#E6E6E6"/>
<rect x="389.001" width="1" height="244" fill="#E6E6E6"/>
</g>
<defs>
<clipPath id="clip0_545_31034">
<rect width="390" height="244" fill="white"/>
</clipPath>
</defs>
</svg>
