<svg width="197" height="72" viewBox="0 0 197 72" fill="none" xmlns="http://www.w3.org/2000/svg">
<g clip-path="url(#clip0_374_1630)">
<rect width="1" height="72" fill="#E6E6E6"/>
<rect x="1.73451" width="1" height="72" fill="#E6E6E6"/>
<rect x="3.46903" width="1" height="72" fill="#E6E6E6"/>
<rect x="5.20354" width="1" height="72" fill="#E6E6E6"/>
<rect x="6.93805" width="1" height="72" fill="#E6E6E6"/>
<rect x="8.67257" width="1" height="72" fill="#E6E6E6"/>
<rect x="10.4071" width="1" height="72" fill="#E6E6E6"/>
<rect x="12.1416" width="1" height="72" fill="#E6E6E6"/>
<rect x="13.8761" width="1" height="72" fill="#E6E6E6"/>
<rect x="15.6106" width="1" height="72" fill="#E6E6E6"/>
<rect x="17.3451" width="1" height="72" fill="#E6E6E6"/>
<rect x="19.0796" width="1" height="72" fill="#E6E6E6"/>
<rect x="20.8142" width="1" height="72" fill="#E6E6E6"/>
<rect x="22.5487" width="1" height="72" fill="#E6E6E6"/>
<rect x="24.2832" width="1" height="72" fill="#E6E6E6"/>
<rect x="26.0177" width="1" height="72" fill="#E6E6E6"/>
<rect x="27.7522" width="1" height="72" fill="#E6E6E6"/>
<rect x="29.4867" width="1" height="72" fill="#E6E6E6"/>
<rect x="31.2212" width="1" height="72" fill="#E6E6E6"/>
<rect x="32.9557" width="1" height="72" fill="#E6E6E6"/>
<rect x="34.6903" width="1" height="72" fill="#E6E6E6"/>
<rect x="36.4248" width="1" height="72" fill="#E6E6E6"/>
<rect x="38.1593" width="1" height="72" fill="#E6E6E6"/>
<rect x="39.8938" width="1" height="72" fill="#E6E6E6"/>
<rect x="41.6283" width="1" height="72" fill="#E6E6E6"/>
<rect x="43.3628" width="1" height="72" fill="#E6E6E6"/>
<rect x="45.0973" width="1" height="72" fill="#E6E6E6"/>
<rect x="46.8318" width="1" height="72" fill="#E6E6E6"/>
<rect x="48.5664" width="1" height="72" fill="#E6E6E6"/>
<rect x="50.3009" width="1" height="72" fill="#E6E6E6"/>
<rect x="52.0354" width="1" height="72" fill="#E6E6E6"/>
<rect x="53.7699" width="1" height="72" fill="#E6E6E6"/>
<rect x="55.5044" width="1" height="72" fill="#E6E6E6"/>
<rect x="57.2389" width="1" height="72" fill="#E6E6E6"/>
<rect x="58.9734" width="1" height="72" fill="#E6E6E6"/>
<rect x="60.7079" width="1" height="72" fill="#E6E6E6"/>
<rect x="62.4425" width="1" height="72" fill="#E6E6E6"/>
<rect x="64.177" width="1" height="72" fill="#E6E6E6"/>
<rect x="65.9115" width="1" height="72" fill="#E6E6E6"/>
<rect x="67.646" width="1" height="72" fill="#E6E6E6"/>
<rect x="69.3805" width="1" height="72" fill="#E6E6E6"/>
<rect x="71.115" width="1" height="72" fill="#E6E6E6"/>
<rect x="72.8495" width="1" height="72" fill="#E6E6E6"/>
<rect x="74.584" width="1" height="72" fill="#E6E6E6"/>
<rect x="76.3186" width="1" height="72" fill="#E6E6E6"/>
<rect x="78.0531" width="1" height="72" fill="#E6E6E6"/>
<rect x="79.7876" width="1" height="72" fill="#E6E6E6"/>
<rect x="81.5221" width="1" height="72" fill="#E6E6E6"/>
<rect x="83.2566" width="1" height="72" fill="#E6E6E6"/>
<rect x="84.9911" width="1" height="72" fill="#E6E6E6"/>
<rect x="86.7256" width="1" height="72" fill="#E6E6E6"/>
<rect x="88.4601" width="1" height="72" fill="#E6E6E6"/>
<rect x="90.1947" width="1" height="72" fill="#E6E6E6"/>
<rect x="91.9292" width="1" height="72" fill="#E6E6E6"/>
<rect x="93.6637" width="1" height="72" fill="#E6E6E6"/>
<rect x="95.3982" width="1" height="72" fill="#E6E6E6"/>
<rect x="97.1327" width="1" height="72" fill="#E6E6E6"/>
<rect x="98.8672" width="1" height="72" fill="#E6E6E6"/>
<rect x="100.602" width="1" height="72" fill="#E6E6E6"/>
<rect x="102.336" width="1" height="72" fill="#E6E6E6"/>
<rect x="104.071" width="1" height="72" fill="#E6E6E6"/>
<rect x="105.805" width="1" height="72" fill="#E6E6E6"/>
<rect x="107.54" width="1" height="72" fill="#E6E6E6"/>
<rect x="109.274" width="1" height="72" fill="#E6E6E6"/>
<rect x="111.009" width="1" height="72" fill="#E6E6E6"/>
<rect x="112.743" width="1" height="72" fill="#E6E6E6"/>
<rect x="114.478" width="1" height="72" fill="#E6E6E6"/>
<rect x="116.212" width="1" height="72" fill="#E6E6E6"/>
<rect x="117.947" width="1" height="72" fill="#E6E6E6"/>
<rect x="119.681" width="1" height="72" fill="#E6E6E6"/>
<rect x="121.416" width="1" height="72" fill="#E6E6E6"/>
<rect x="123.15" width="1" height="72" fill="#E6E6E6"/>
<rect x="124.885" width="1" height="72" fill="#E6E6E6"/>
<rect x="126.619" width="1" height="72" fill="#E6E6E6"/>
<rect x="128.354" width="1" height="72" fill="#E6E6E6"/>
<rect x="130.088" width="1" height="72" fill="#E6E6E6"/>
<rect x="131.823" width="1" height="72" fill="#E6E6E6"/>
<rect x="133.557" width="1" height="72" fill="#E6E6E6"/>
<rect x="135.292" width="1" height="72" fill="#E6E6E6"/>
<rect x="137.026" width="1" height="72" fill="#E6E6E6"/>
<rect x="138.761" width="1" height="72" fill="#E6E6E6"/>
<rect x="140.496" width="1" height="72" fill="#E6E6E6"/>
<rect x="142.23" width="1" height="72" fill="#E6E6E6"/>
<rect x="143.965" width="1" height="72" fill="#E6E6E6"/>
<rect x="145.699" width="1" height="72" fill="#E6E6E6"/>
<rect x="147.434" width="1" height="72" fill="#E6E6E6"/>
<rect x="149.168" width="1" height="72" fill="#E6E6E6"/>
<rect x="150.903" width="1" height="72" fill="#E6E6E6"/>
<rect x="152.637" width="1" height="72" fill="#E6E6E6"/>
<rect x="154.372" width="1" height="72" fill="#E6E6E6"/>
<rect x="156.106" width="1" height="72" fill="#E6E6E6"/>
<rect x="157.841" width="1" height="72" fill="#E6E6E6"/>
<rect x="159.575" width="1" height="72" fill="#E6E6E6"/>
<rect x="161.31" width="1" height="72" fill="#E6E6E6"/>
<rect x="163.044" width="1" height="72" fill="#E6E6E6"/>
<rect x="164.779" width="1" height="72" fill="#E6E6E6"/>
<rect x="166.513" width="1" height="72" fill="#E6E6E6"/>
<rect x="168.248" width="1" height="72" fill="#E6E6E6"/>
<rect x="169.982" width="1" height="72" fill="#E6E6E6"/>
<rect x="171.717" width="1" height="72" fill="#E6E6E6"/>
<rect x="173.451" width="1" height="72" fill="#E6E6E6"/>
<rect x="175.186" width="1" height="72" fill="#E6E6E6"/>
<rect x="176.92" width="1" height="72" fill="#E6E6E6"/>
<rect x="178.655" width="1" height="72" fill="#E6E6E6"/>
<rect x="180.389" width="1" height="72" fill="#E6E6E6"/>
<rect x="182.124" width="1" height="72" fill="#E6E6E6"/>
<rect x="183.858" width="1" height="72" fill="#E6E6E6"/>
<rect x="185.593" width="1" height="72" fill="#E6E6E6"/>
<rect x="187.327" width="1" height="72" fill="#E6E6E6"/>
<rect x="189.062" width="1" height="72" fill="#E6E6E6"/>
<rect x="190.796" width="1" height="72" fill="#E6E6E6"/>
<rect x="192.531" width="1" height="72" fill="#E6E6E6"/>
<rect x="194.265" width="1" height="72" fill="#E6E6E6"/>
<rect x="196" width="1" height="72" fill="#E6E6E6"/>
</g>
<defs>
<clipPath id="clip0_374_1630">
<rect width="197" height="72" fill="white"/>
</clipPath>
</defs>
</svg>
