<svg width="120" height="72" viewBox="0 0 120 72" fill="none" xmlns="http://www.w3.org/2000/svg">
<g clip-path="url(#clip0_374_1753)">
<rect y="-8" width="1" height="88" fill="#E6E6E6"/>
<rect x="1.98334" y="-8" width="1" height="88" fill="#E6E6E6"/>
<rect x="3.96667" y="-8" width="1" height="88" fill="#E6E6E6"/>
<rect x="5.95001" y="-8" width="1" height="88" fill="#E6E6E6"/>
<rect x="7.93335" y="-8" width="1" height="88" fill="#E6E6E6"/>
<rect x="9.91669" y="-8" width="1" height="88" fill="#E6E6E6"/>
<rect x="11.9" y="-8" width="1" height="88" fill="#E6E6E6"/>
<rect x="13.8834" y="-8" width="1" height="88" fill="#E6E6E6"/>
<rect x="15.8666" y="-8" width="1" height="88" fill="#E6E6E6"/>
<rect x="17.85" y="-8" width="1" height="88" fill="#E6E6E6"/>
<rect x="19.8333" y="-8" width="1" height="88" fill="#E6E6E6"/>
<rect x="21.8167" y="-8" width="1" height="88" fill="#E6E6E6"/>
<rect x="23.8" y="-8" width="1" height="88" fill="#E6E6E6"/>
<rect x="25.7833" y="-8" width="1" height="88" fill="#E6E6E6"/>
<rect x="27.7667" y="-8" width="1" height="88" fill="#E6E6E6"/>
<rect x="29.75" y="-8" width="1" height="88" fill="#E6E6E6"/>
<rect x="31.7333" y="-8" width="1" height="88" fill="#E6E6E6"/>
<rect x="33.7167" y="-8" width="1" height="88" fill="#E6E6E6"/>
<rect x="35.7" y="-8" width="1" height="88" fill="#E6E6E6"/>
<rect x="37.6833" y="-8" width="1" height="88" fill="#E6E6E6"/>
<rect x="39.6667" y="-8" width="1" height="88" fill="#E6E6E6"/>
<rect x="41.65" y="-8" width="1" height="88" fill="#E6E6E6"/>
<rect x="43.6334" y="-8" width="1" height="88" fill="#E6E6E6"/>
<rect x="45.6167" y="-8" width="1" height="88" fill="#E6E6E6"/>
<rect x="47.6" y="-8" width="1" height="88" fill="#E6E6E6"/>
<rect x="49.5833" y="-8" width="1" height="88" fill="#E6E6E6"/>
<rect x="51.5667" y="-8" width="1" height="88" fill="#E6E6E6"/>
<rect x="53.55" y="-8" width="1" height="88" fill="#E6E6E6"/>
<rect x="55.5333" y="-8" width="1" height="88" fill="#E6E6E6"/>
<rect x="57.5167" y="-8" width="1" height="88" fill="#E6E6E6"/>
<rect x="59.5" y="-8" width="1" height="88" fill="#E6E6E6"/>
<rect x="61.4833" y="-8" width="1" height="88" fill="#E6E6E6"/>
<rect x="63.4667" y="-8" width="1" height="88" fill="#E6E6E6"/>
<rect x="65.45" y="-8" width="1" height="88" fill="#E6E6E6"/>
<rect x="67.4333" y="-8" width="1" height="88" fill="#E6E6E6"/>
<rect x="69.4167" y="-8" width="1" height="88" fill="#E6E6E6"/>
<rect x="71.4" y="-8" width="1" height="88" fill="#E6E6E6"/>
<rect x="73.3833" y="-8" width="1" height="88" fill="#E6E6E6"/>
<rect x="75.3666" y="-8" width="1" height="88" fill="#E6E6E6"/>
<rect x="77.35" y="-8" width="1" height="88" fill="#E6E6E6"/>
<rect x="79.3333" y="-8" width="1" height="88" fill="#E6E6E6"/>
<rect x="81.3167" y="-8" width="1" height="88" fill="#E6E6E6"/>
<rect x="83.3" y="-8" width="1" height="88" fill="#E6E6E6"/>
<rect x="85.2833" y="-8" width="1" height="88" fill="#E6E6E6"/>
<rect x="87.2666" y="-8" width="1" height="88" fill="#E6E6E6"/>
<rect x="89.2499" y="-8" width="1" height="88" fill="#E6E6E6"/>
<rect x="91.2333" y="-8" width="1" height="88" fill="#E6E6E6"/>
<rect x="93.2166" y="-8" width="1" height="88" fill="#E6E6E6"/>
<rect x="95.2" y="-8" width="1" height="88" fill="#E6E6E6"/>
<rect x="97.1833" y="-8" width="1" height="88" fill="#E6E6E6"/>
<rect x="99.1666" y="-8" width="1" height="88" fill="#E6E6E6"/>
<rect x="101.15" y="-8" width="1" height="88" fill="#E6E6E6"/>
<rect x="103.133" y="-8" width="1" height="88" fill="#E6E6E6"/>
<rect x="105.117" y="-8" width="1" height="88" fill="#E6E6E6"/>
<rect x="107.1" y="-8" width="1" height="88" fill="#E6E6E6"/>
<rect x="109.083" y="-8" width="1" height="88" fill="#E6E6E6"/>
<rect x="111.067" y="-8" width="1" height="88" fill="#E6E6E6"/>
<rect x="113.05" y="-8" width="1" height="88" fill="#E6E6E6"/>
<rect x="115.033" y="-8" width="1" height="88" fill="#E6E6E6"/>
<rect x="117.017" y="-8" width="1" height="88" fill="#E6E6E6"/>
<rect x="119" y="-8" width="1" height="88" fill="#E6E6E6"/>
</g>
<defs>
<clipPath id="clip0_374_1753">
<rect width="120" height="72" fill="white"/>
</clipPath>
</defs>
</svg>
