<svg width="120" height="646" viewBox="0 0 120 646" fill="none" xmlns="http://www.w3.org/2000/svg">
<g clip-path="url(#clip0_513_9174)">
<rect width="1" height="646" fill="#E6E6E6"/>
<rect x="1.98328" width="1" height="646" fill="#E6E6E6"/>
<rect x="3.96667" width="1" height="646" fill="#E6E6E6"/>
<rect x="5.94995" width="1" height="646" fill="#E6E6E6"/>
<rect x="7.93335" width="1" height="646" fill="#E6E6E6"/>
<rect x="9.91663" width="1" height="646" fill="#E6E6E6"/>
<rect x="11.9" width="1" height="646" fill="#E6E6E6"/>
<rect x="13.8833" width="1" height="646" fill="#E6E6E6"/>
<rect x="15.8667" width="1" height="646" fill="#E6E6E6"/>
<rect x="17.85" width="1" height="646" fill="#E6E6E6"/>
<rect x="19.8334" width="1" height="646" fill="#E6E6E6"/>
<rect x="21.8167" width="1" height="646" fill="#E6E6E6"/>
<rect x="23.8" width="1" height="646" fill="#E6E6E6"/>
<rect x="25.7833" width="1" height="646" fill="#E6E6E6"/>
<rect x="27.7667" width="1" height="646" fill="#E6E6E6"/>
<rect x="29.75" width="1" height="646" fill="#E6E6E6"/>
<rect x="31.7333" width="1" height="646" fill="#E6E6E6"/>
<rect x="33.7167" width="1" height="646" fill="#E6E6E6"/>
<rect x="35.7" width="1" height="646" fill="#E6E6E6"/>
<rect x="37.6833" width="1" height="646" fill="#E6E6E6"/>
<rect x="39.6666" width="1" height="646" fill="#E6E6E6"/>
<rect x="41.65" width="1" height="646" fill="#E6E6E6"/>
<rect x="43.6333" width="1" height="646" fill="#E6E6E6"/>
<rect x="45.6167" width="1" height="646" fill="#E6E6E6"/>
<rect x="47.6" width="1" height="646" fill="#E6E6E6"/>
<rect x="49.5834" width="1" height="646" fill="#E6E6E6"/>
<rect x="51.5667" width="1" height="646" fill="#E6E6E6"/>
<rect x="53.55" width="1" height="646" fill="#E6E6E6"/>
<rect x="55.5333" width="1" height="646" fill="#E6E6E6"/>
<rect x="57.5167" width="1" height="646" fill="#E6E6E6"/>
<rect x="59.5" width="1" height="646" fill="#E6E6E6"/>
<rect x="61.4834" width="1" height="646" fill="#E6E6E6"/>
<rect x="63.4667" width="1" height="646" fill="#E6E6E6"/>
<rect x="65.45" width="1" height="646" fill="#E6E6E6"/>
<rect x="67.4333" width="1" height="646" fill="#E6E6E6"/>
<rect x="69.4166" width="1" height="646" fill="#E6E6E6"/>
<rect x="71.4" width="1" height="646" fill="#E6E6E6"/>
<rect x="73.3833" width="1" height="646" fill="#E6E6E6"/>
<rect x="75.3667" width="1" height="646" fill="#E6E6E6"/>
<rect x="77.35" width="1" height="646" fill="#E6E6E6"/>
<rect x="79.3333" width="1" height="646" fill="#E6E6E6"/>
<rect x="81.3167" width="1" height="646" fill="#E6E6E6"/>
<rect x="83.2999" width="1" height="646" fill="#E6E6E6"/>
<rect x="85.2833" width="1" height="646" fill="#E6E6E6"/>
<rect x="87.2666" width="1" height="646" fill="#E6E6E6"/>
<rect x="89.25" width="1" height="646" fill="#E6E6E6"/>
<rect x="91.2333" width="1" height="646" fill="#E6E6E6"/>
<rect x="93.2167" width="1" height="646" fill="#E6E6E6"/>
<rect x="95.2" width="1" height="646" fill="#E6E6E6"/>
<rect x="97.1832" width="1" height="646" fill="#E6E6E6"/>
<rect x="99.1666" width="1" height="646" fill="#E6E6E6"/>
<rect x="101.15" width="1" height="646" fill="#E6E6E6"/>
<rect x="103.133" width="1" height="646" fill="#E6E6E6"/>
<rect x="105.117" width="1" height="646" fill="#E6E6E6"/>
<rect x="107.1" width="1" height="646" fill="#E6E6E6"/>
<rect x="109.083" width="1" height="646" fill="#E6E6E6"/>
<rect x="111.067" width="1" height="646" fill="#E6E6E6"/>
<rect x="113.05" width="1" height="646" fill="#E6E6E6"/>
<rect x="115.033" width="1" height="646" fill="#E6E6E6"/>
<rect x="117.017" width="1" height="646" fill="#E6E6E6"/>
<rect x="119" width="1" height="646" fill="#E6E6E6"/>
</g>
<defs>
<clipPath id="clip0_513_9174">
<rect width="120" height="646" fill="white"/>
</clipPath>
</defs>
</svg>
