<svg width="15" height="16" viewBox="0 0 15 16" fill="none" xmlns="http://www.w3.org/2000/svg">
<g clip-path="url(#clip0_374_1503)">
<path d="M8.57152 2.46143V4.92287L12.8576 7.38431V4.92287L8.57152 2.46143ZM0 4.92287V7.38431L2.14304 8.61503V6.15359L0 4.92287ZM6.42848 6.15359L4.28544 7.38431V14.7686L6.42848 16V11.0771L8.57152 12.3078V9.84639L6.42848 8.61567V6.15359Z" fill="#E55B2D"/>
<path d="M8.57151 2.46143L2.14304 6.15359V8.61503L6.42912 6.15359V8.61503L8.57216 7.38431V2.46143H8.57151ZM15 3.69215L12.857 4.92287V7.38431L15 6.15359V3.69215ZM10.7146 8.61567L8.57151 9.84639V12.3078L10.7146 11.0771V8.61567ZM8.57151 12.3078L6.42847 11.0771V16L8.57151 14.7693V12.3078Z" fill="#ED8E24"/>
<path d="M8.57152 0L0 4.92288L2.14304 6.1536L8.57152 2.46144L12.8576 4.92288L15.0006 3.69216L8.57152 0ZM8.57152 7.38432L6.42848 8.61504L8.57152 9.84576L10.7146 8.61504L8.57152 7.38432Z" fill="#F8BF3C"/>
</g>
<defs>
<clipPath id="clip0_374_1503">
<rect width="15" height="16" fill="white"/>
</clipPath>
</defs>
</svg>
