<svg width="24" height="24" viewBox="0 0 24 24" fill="none" xmlns="http://www.w3.org/2000/svg">
<g clip-path="url(#clip0_374_1839)">
<path fill-rule="evenodd" clip-rule="evenodd" d="M18.3178 16.6275L18.2085 16.3952L15.8208 11.8687C15.74 11.7172 15.7501 11.627 15.8569 11.4983L19.6343 7.06189C19.6783 7.00995 19.7183 6.95441 19.7353 6.86207L18.6323 7.15062L14.0517 8.36791C13.9096 8.40614 13.845 8.3643 13.774 8.24672L11.1728 3.91279C11.1277 3.83777 11.079 3.76852 10.9834 3.7018L10.7735 4.8585L10.0474 8.945L9.97241 9.38647C9.96014 9.53074 9.88801 9.57907 9.76105 9.61911L4.36852 11.3233C4.28917 11.3486 4.21271 11.3803 4.12795 11.4575L8.56431 13.2191L8.43447 13.3211L5.67419 15.1054C5.62922 15.1405 5.57496 15.1617 5.51811 15.1663C5.46126 15.1709 5.4043 15.1588 5.35426 15.1314L2.05548 13.6612C1.56207 13.4448 1.11772 13.148 0.772185 12.7253C-0.00940835 11.7695 0.144602 10.6813 1.18625 10.0202C1.52709 9.8027 1.9141 9.63967 2.30002 9.51379L7.59697 7.83122C7.74124 7.78505 7.81338 7.71869 7.84115 7.55818L8.56251 3.47168C8.6938 2.74383 8.76377 1.99289 9.11796 1.32996C9.25393 1.07749 9.41732 0.822127 9.61101 0.607162C10.3125 -0.171907 11.2918 -0.201483 12.0333 0.540075C12.2836 0.790387 12.5022 1.08578 12.6851 1.38875L15.1024 5.40529C15.1969 5.56398 15.2827 5.59645 15.4573 5.54956L21.3782 3.97663C21.785 3.86915 22.1969 3.82984 22.6142 3.9045C23.5232 4.07474 23.921 4.77013 23.6133 5.64514C23.4734 6.04189 23.2317 6.38345 22.9641 6.70265L18.8318 11.5599C18.7189 11.6919 18.7164 11.7872 18.7946 11.935L21.2552 16.6001C21.4514 16.9723 21.6014 17.3586 21.6051 17.786C21.6148 18.7584 20.9039 19.554 19.9376 19.6954C19.3966 19.7748 18.8938 19.6594 18.3867 19.5028L14.6717 18.3728C14.557 18.3385 14.513 18.2935 14.4928 18.1697L14.0448 15.5584C14.0405 15.5346 14.0477 15.5086 14.0513 15.4553L18.3146 16.6311" fill="#E25A1C"/>
<path d="M8.56072 13.2188L9.347 13.5614L8.47307 20.5225L13.2499 15.2277L14.0553 15.4539L15.0472 18.4692L13.7581 18.0147L10.4225 21.6157C10.4225 21.6157 8.93077 23.1602 8.12213 22.8998C7.31349 22.6393 6.63108 21.9187 6.55534 20.6304C6.47959 19.342 6.13839 15.6638 6.13839 15.6638L4.50812 14.4887L8.56072 13.2188Z" fill="#E25A1C"/>
<path d="M6.13807 15.6645C6.13807 15.6645 5.41815 23.6258 6.82048 23.8909C8.2228 24.156 6.66899 23.853 6.66899 23.853C6.66899 23.853 7.46501 24.763 10.6112 21.3888L13.7578 18.015L7.46465 21.73C7.61614 21.5403 8.26067 15.0957 8.26067 15.0957L6.13807 15.6645Z" fill="#E25A1C"/>
</g>
<defs>
<clipPath id="clip0_374_1839">
<rect width="24" height="24" fill="white"/>
</clipPath>
</defs>
</svg>
