<svg width="24" height="17" viewBox="0 0 24 17" fill="none" xmlns="http://www.w3.org/2000/svg">
<path d="M6.60701 6.77441C6.03893 6.77441 5.51601 7.09447 5.01043 7.6536C4.51372 7.08579 3.98193 6.77441 3.38765 6.77441C2.40371 6.77441 1.68585 7.47772 1.68585 8.42476C1.68585 9.3718 2.40371 10.0662 3.38765 10.0662C3.99242 10.0662 4.46111 9.78211 4.98423 9.21591C5.48961 9.78373 6.00406 10.0678 6.60701 10.0678C7.59095 10.0662 8.30881 9.37422 8.30881 8.42476C8.30881 7.4751 7.59075 6.77441 6.60701 6.77441ZM3.39431 9.07274C2.97742 9.07274 2.72887 8.79752 2.72887 8.43344C2.72887 8.06957 2.97742 7.78647 3.39431 7.78647C3.74547 7.78647 4.03253 8.06957 4.34318 8.45121C4.05007 8.8064 3.74023 9.07274 3.39431 9.07274ZM6.57697 9.07274C6.23125 9.07274 5.93874 8.79752 5.6281 8.43344C5.94761 8.0518 6.22238 7.78647 6.57697 7.78647C6.99385 7.78647 7.23979 8.073 7.23979 8.43344C7.23979 8.79388 6.99385 9.07274 6.57697 9.07274Z" fill="#494848"/>
<path d="M5.72667 9.83304L6.38849 9.0419C6.12521 8.96274 5.8819 8.72528 5.63011 8.43066L4.98584 9.21757C5.1967 9.46271 5.44727 9.6707 5.72667 9.83304Z" fill="#20A7CA"/>
<path d="M10.3768 8.98165C10.3796 8.90108 10.3453 8.82354 10.2838 8.77144C10.1855 8.70057 10.0742 8.64908 9.95645 8.6202C9.73611 8.56568 9.52787 8.47098 9.34201 8.34053C9.20513 8.23674 9.12712 8.07278 9.13316 7.90094C9.13135 7.71739 9.22126 7.54514 9.37265 7.44196C9.55247 7.31676 9.76837 7.25498 9.98709 7.26588C10.2094 7.25598 10.4278 7.32726 10.6015 7.46639C10.7521 7.58512 10.8368 7.76868 10.8297 7.96051V7.96939H10.3854C10.3891 7.87247 10.3501 7.77857 10.2792 7.71274C10.1963 7.64328 10.0903 7.60835 9.98265 7.61521C9.88146 7.60895 9.78127 7.63742 9.69842 7.69598C9.63451 7.74646 9.59762 7.8236 9.59823 7.90518C9.59964 7.97908 9.63754 8.04754 9.69922 8.08812C9.81453 8.15658 9.93851 8.20888 10.0679 8.24381C10.277 8.29247 10.4727 8.38738 10.6402 8.52166C10.7699 8.63636 10.8414 8.80315 10.835 8.9762C10.8408 9.15995 10.7537 9.33421 10.6031 9.43942C10.4221 9.56118 10.2064 9.62075 9.9887 9.60904C9.75728 9.61429 9.52989 9.54684 9.33858 9.4166C9.15836 9.29827 9.05515 9.09231 9.06825 8.87685V8.86716H9.52384C9.51416 8.98145 9.56053 9.09331 9.64842 9.16682C9.75184 9.23648 9.87541 9.2698 9.99959 9.26172C10.1006 9.26859 10.201 9.24133 10.2848 9.18438C10.3463 9.13572 10.3806 9.0602 10.3768 8.98165ZM12.1544 9.33684C12.1064 9.42104 12.0378 9.49192 11.9552 9.5426C11.725 9.66982 11.4387 9.62882 11.2531 9.44245C11.1525 9.32533 11.1021 9.14703 11.1021 8.90795V7.88196H11.5585V8.9132C11.5516 9.00548 11.5734 9.09756 11.6208 9.17691C11.6659 9.23224 11.7349 9.26233 11.806 9.25789C11.8707 9.2591 11.9348 9.24739 11.9947 9.22275C12.0459 9.19953 12.0903 9.16298 12.1229 9.11714V7.88196H12.5811V9.58137H12.1906L12.1544 9.33684ZM14.4283 8.77629C14.4387 8.99255 14.3771 9.20599 14.2527 9.38308C14.1384 9.53533 13.9563 9.62115 13.7662 9.61247C13.6846 9.61368 13.6038 9.59692 13.5294 9.563C13.4602 9.52867 13.4002 9.47879 13.3538 9.417V10.233H12.8976V7.87933H13.3101L13.3373 8.07985C13.3836 8.00957 13.4455 7.95081 13.5181 7.90841C13.5939 7.86681 13.6792 7.84581 13.7656 7.84783C13.9604 7.84036 14.145 7.93385 14.2547 8.09519C14.3795 8.28783 14.441 8.51459 14.4301 8.74398L14.4283 8.77629ZM13.9701 8.74115C13.9753 8.60647 13.9479 8.47259 13.8902 8.35083C13.8451 8.25714 13.7493 8.19858 13.6453 8.2014C13.584 8.19959 13.5233 8.21413 13.4697 8.24341C13.4207 8.27248 13.3806 8.31448 13.3538 8.36476V9.11108C13.3812 9.15813 13.4213 9.1961 13.4697 9.22093C13.5243 9.24739 13.5846 9.26031 13.6453 9.25869C13.7449 9.26475 13.8392 9.21407 13.8892 9.12764C13.9459 9.01941 13.9729 8.89805 13.9672 8.77589L13.9701 8.74115ZM15.4205 9.61045C15.1999 9.62055 14.9859 9.53452 14.8333 9.3748C14.6847 9.21164 14.6061 8.99679 14.6139 8.77609V8.71369C14.6049 8.48713 14.6788 8.26521 14.8218 8.08934C15.112 7.7814 15.6029 7.76504 15.9128 8.05319C16.046 8.20867 16.1145 8.40939 16.1041 8.61414V8.86393H15.0889V8.87362C15.0933 8.97559 15.133 9.07292 15.2011 9.14884C15.2713 9.22235 15.3701 9.26172 15.4715 9.25688C15.5567 9.25889 15.6418 9.24839 15.7243 9.22618C15.8005 9.20155 15.874 9.16924 15.9438 9.12946L16.0676 9.41357C15.9865 9.47657 15.8946 9.52423 15.7964 9.55411C15.6749 9.59329 15.5479 9.61227 15.4205 9.61045ZM15.3792 8.20363C15.3001 8.201 15.2251 8.23755 15.1782 8.30136C15.1264 8.37708 15.0959 8.46552 15.0903 8.5572L15.0947 8.56507H15.6565V8.52489C15.6608 8.4415 15.6368 8.35891 15.588 8.29106C15.5376 8.22806 15.4594 8.19393 15.3789 8.19939C15.3792 8.19918 15.3792 8.20363 15.3792 8.20363ZM17.2727 8.27309H17.1041C17.0455 8.27067 16.9872 8.2852 16.9364 8.31509C16.8921 8.34417 16.8572 8.38576 16.8364 8.43463V9.57854H16.38V7.87913H16.8076L16.8278 8.13053C16.8616 8.04935 16.915 7.97767 16.9832 7.92214C17.0455 7.87267 17.1231 7.84622 17.2027 7.84743C17.2239 7.84723 17.245 7.84904 17.2658 7.85268L17.3245 7.86601L17.2727 8.27309ZM18.4167 9.11189C18.4157 9.05879 18.3882 9.00972 18.3439 8.98084C18.2608 8.93157 18.1689 8.89866 18.0734 8.88412C17.9103 8.85847 17.7553 8.79628 17.6196 8.70218C17.5184 8.62464 17.4609 8.50268 17.466 8.37506C17.4658 8.22846 17.5339 8.09035 17.6502 8.0015C17.7913 7.89367 17.9661 7.83935 18.1435 7.84844C18.328 7.83875 18.5104 7.89246 18.6604 8.00049C18.7824 8.08974 18.8517 8.23432 18.8446 8.38556V8.39525H18.4058C18.4082 8.33286 18.3844 8.27248 18.3409 8.22826C18.2881 8.18222 18.2193 8.1592 18.1496 8.16405C18.0865 8.16062 18.0242 8.18 17.974 8.21857C17.9333 8.25148 17.9099 8.30136 17.9107 8.35386C17.9099 8.40535 17.9351 8.45402 17.9774 8.48309C18.0609 8.52994 18.1528 8.55982 18.2477 8.57113C18.4153 8.59577 18.5747 8.65897 18.7138 8.75569C18.815 8.83667 18.8717 8.96126 18.8656 9.09089C18.867 9.24092 18.7936 9.38167 18.6699 9.46627C18.5173 9.56926 18.3356 9.62014 18.152 9.61126C17.9581 9.62115 17.7672 9.55855 17.6168 9.43538C17.4944 9.34451 17.4224 9.20094 17.4226 9.04849V9.0398H17.8413C17.8369 9.11613 17.8698 9.18984 17.9292 9.23749C17.9945 9.2809 18.072 9.30251 18.1504 9.29908C18.2185 9.30332 18.2862 9.28535 18.3435 9.24799C18.3899 9.21811 18.4173 9.16682 18.4167 9.11189ZM19.8655 9.61045C19.6453 9.62055 19.4315 9.53452 19.2793 9.3748C19.1307 9.21164 19.0519 8.99679 19.0597 8.77609V8.71369C19.0509 8.48733 19.1244 8.26542 19.267 8.08934C19.5571 7.7814 20.0481 7.76504 20.358 8.05319C20.4916 8.20847 20.5599 8.40939 20.5485 8.61414V8.86393H19.5347V8.87362C19.5389 8.97559 19.5782 9.07272 19.6462 9.14884C19.7167 9.22255 19.8155 9.26213 19.9173 9.25688C20.0024 9.25889 20.0872 9.24839 20.1693 9.22618C20.2459 9.20175 20.3199 9.16944 20.3896 9.12946L20.5134 9.41357C20.4321 9.47637 20.3402 9.52402 20.2422 9.55411C20.1205 9.59329 19.9933 9.61227 19.8655 9.61045ZM19.8252 8.20363C19.7461 8.2008 19.6707 8.23735 19.6242 8.30136C19.5724 8.37708 19.5419 8.46552 19.5363 8.5572L19.5415 8.56507H20.1034V8.52489C20.1076 8.4415 20.0836 8.35891 20.0348 8.29106C19.9842 8.22786 19.9058 8.19353 19.8252 8.19939C19.8252 8.19918 19.8252 8.20363 19.8252 8.20363ZM21.4006 7.45912V7.8757H21.6866V8.19777H21.4006V9.06363C21.3959 9.11432 21.4106 9.165 21.4419 9.20518C21.4709 9.23406 21.5108 9.2494 21.5516 9.24718C21.5721 9.24738 21.5927 9.24597 21.613 9.24294C21.6336 9.23971 21.6536 9.23507 21.6735 9.22962L21.713 9.56098C21.6689 9.57632 21.6237 9.58844 21.578 9.59712C21.531 9.60479 21.4834 9.60843 21.4358 9.60863C21.3014 9.61752 21.1693 9.57047 21.0708 9.47839C20.9758 9.36269 20.9299 9.21447 20.9426 9.06525V8.19737H20.695V7.8759H20.9426V7.45912H21.4006Z" fill="#494848"/>
<path d="M5.01128 7.64405C4.80183 7.39548 4.55307 7.18285 4.27488 7.01465L3.61206 7.81468C3.86404 7.90252 4.087 8.12928 4.32407 8.41864L4.35048 8.43702C4.35048 8.43722 5.01128 7.64405 5.01128 7.64405Z" fill="#20A7CA"/>
<path d="M11.5566 7.31238H11.3127L11.2653 7.4505H11.125L11.3621 6.80878H11.505L11.7437 7.4505H11.6024L11.5566 7.31238ZM11.3469 7.21142H11.5225L11.4346 6.95901L11.3469 7.21142ZM12.2674 7.22899C12.2706 7.29017 12.2517 7.35055 12.2138 7.3986C12.1583 7.45979 12.0708 7.48018 11.9942 7.44969C11.9731 7.4404 11.9545 7.42627 11.9398 7.4083V7.63668H11.8029V6.97739H11.9285L11.9364 7.03372C11.9662 6.99132 12.0154 6.96688 12.0672 6.9687C12.1249 6.96567 12.1803 6.99132 12.2154 7.03716C12.2531 7.09006 12.272 7.15407 12.269 7.21909L12.2674 7.22899ZM12.1279 7.2195C12.1297 7.18133 12.1212 7.14337 12.1033 7.10965C12.0888 7.08239 12.0596 7.06583 12.0287 7.06744C12.0102 7.06704 11.9916 7.07128 11.9751 7.07976C11.9604 7.08764 11.9483 7.09955 11.94 7.11409V7.32329C11.9487 7.33661 11.9608 7.34711 11.9751 7.35398C11.9922 7.36145 12.011 7.36508 12.0295 7.36448C12.0592 7.3667 12.0878 7.35256 12.1041 7.32753C12.1214 7.29744 12.1297 7.26291 12.1279 7.22818V7.2195ZM12.6563 7.4507C12.6514 7.43939 12.647 7.42809 12.643 7.41637C12.6393 7.40426 12.6369 7.39194 12.6359 7.37942C12.6212 7.40244 12.6018 7.42203 12.5788 7.43657C12.5528 7.45353 12.5222 7.46181 12.491 7.46019C12.4458 7.46302 12.4013 7.44929 12.3656 7.42142C12.3357 7.39477 12.3196 7.356 12.3216 7.31602C12.3202 7.2722 12.3424 7.231 12.3797 7.20799C12.4319 7.17871 12.4914 7.16538 12.5508 7.16922H12.6288V7.13146C12.6299 7.11167 12.6228 7.09228 12.6095 7.07774C12.5934 7.06401 12.5726 7.05715 12.5514 7.05816C12.5325 7.05694 12.5139 7.0626 12.4988 7.07391C12.4863 7.0842 12.4793 7.09995 12.4805 7.11611H12.3462C12.345 7.0737 12.3668 7.03392 12.4033 7.01252C12.4498 6.98142 12.5053 6.96588 12.5613 6.9685C12.6145 6.96588 12.6673 6.98102 12.7113 7.01171C12.75 7.04079 12.7716 7.08723 12.7693 7.1357V7.33257C12.7691 7.35357 12.7712 7.37437 12.7754 7.39497C12.7788 7.41516 12.7843 7.43495 12.7919 7.45393L12.6563 7.4507ZM12.5291 7.36266C12.5522 7.36327 12.575 7.35741 12.595 7.3459C12.6117 7.33742 12.6252 7.32389 12.6337 7.30733V7.23969H12.5555C12.5311 7.23807 12.5071 7.24554 12.4879 7.26069C12.4734 7.2728 12.465 7.29098 12.465 7.30996C12.4648 7.3249 12.4712 7.33904 12.4827 7.34873C12.4958 7.35882 12.5123 7.36367 12.5291 7.36266ZM13.0975 7.36145C13.1193 7.36226 13.1405 7.35499 13.1572 7.34126C13.1721 7.32793 13.1802 7.30855 13.1792 7.28855H13.3064C13.3078 7.33601 13.2858 7.38104 13.2477 7.4089C13.2046 7.44242 13.1512 7.45979 13.0967 7.45817C13.0312 7.46161 12.9675 7.43697 12.9211 7.39032C12.8774 7.34247 12.8546 7.27927 12.8578 7.21445V7.20132C12.8548 7.13671 12.877 7.0735 12.9201 7.02544C13.0129 6.94144 13.1518 6.93417 13.2528 7.00788C13.2913 7.04039 13.3122 7.08945 13.309 7.13973H13.1818C13.1826 7.11712 13.1747 7.09511 13.1598 7.07815C13.1443 7.06139 13.1221 7.0523 13.0993 7.05351C13.0677 7.05068 13.0373 7.06644 13.0213 7.0941C13.005 7.1256 12.9971 7.16073 12.9986 7.19607V7.2092C12.9971 7.24453 13.005 7.27987 13.0213 7.31117C13.0352 7.34085 13.0647 7.36024 13.0975 7.36145ZM13.5207 7.03392C13.5791 6.95638 13.6894 6.94104 13.7668 6.9996C13.7729 7.00424 13.7785 7.00909 13.7839 7.01434C13.8184 7.05755 13.8351 7.11227 13.8305 7.1674V7.4505H13.691V7.16639C13.6938 7.13832 13.6864 7.11005 13.6698 7.08723C13.6533 7.07047 13.6301 7.06179 13.6067 7.06361C13.5894 7.06341 13.5721 7.06664 13.5559 7.0733C13.5418 7.07936 13.5295 7.08865 13.5199 7.10056V7.45232H13.3822V6.76294H13.5217C13.5215 6.76294 13.5207 7.03392 13.5207 7.03392ZM14.1659 7.46484C14.1008 7.46686 14.0377 7.44283 13.9904 7.398C13.9456 7.35378 13.9214 7.29279 13.9236 7.23V7.21243C13.921 7.14781 13.9438 7.08481 13.9867 7.03655C14.0305 6.9899 14.0924 6.96527 14.1561 6.9689C14.2159 6.96507 14.2746 6.98607 14.3185 7.02686C14.3587 7.06926 14.3796 7.126 14.3766 7.18436V7.25382H14.0686C14.0694 7.2829 14.0813 7.31056 14.1018 7.33116C14.124 7.35216 14.1539 7.36327 14.1843 7.36185C14.2103 7.36226 14.2361 7.35923 14.2615 7.35317C14.2847 7.3461 14.3069 7.33702 14.3282 7.32591L14.3659 7.40587C14.3409 7.42364 14.3131 7.43717 14.2835 7.44545C14.2456 7.45817 14.2059 7.46463 14.1659 7.46484ZM14.1534 7.06825C14.1299 7.06765 14.1075 7.07794 14.093 7.09652C14.0768 7.11692 14.0672 7.14175 14.065 7.1678H14.2405V7.15629C14.2415 7.13246 14.2341 7.10924 14.2196 7.09046C14.202 7.0735 14.1776 7.06543 14.1534 7.06825ZM21.964 7.5133H21.8894V7.74713H21.8412V7.5133H21.7664V7.4713H21.964C21.964 7.4711 21.964 7.5133 21.964 7.5133ZM22.2413 7.57044L22.1641 7.74632H22.1377L22.0579 7.56176V7.74551H22.0105V7.4713H22.0702L22.1526 7.67161L22.2405 7.4713H22.2974V7.74733H22.2492C22.2492 7.74713 22.2413 7.57044 22.2413 7.57044Z" fill="#494848"/>
</svg>
