<svg width="24" height="24" viewBox="0 0 24 24" fill="none" xmlns="http://www.w3.org/2000/svg">
<g clip-path="url(#clip0_374_2534)">
<path d="M6.82106 10.0571C6.82106 10.3496 6.85256 10.5868 6.90825 10.7602C6.97125 10.9338 7.05038 11.1236 7.16081 11.3287C7.19963 11.3917 7.21575 11.4547 7.21575 11.5104C7.21575 11.5888 7.16813 11.6679 7.06575 11.7468L6.56831 12.0787C6.49725 12.1256 6.42619 12.1498 6.36338 12.1498C6.28425 12.1498 6.20513 12.1102 6.126 12.0392C6.01982 11.9246 5.92465 11.8003 5.84175 11.6679C5.7539 11.516 5.67233 11.3606 5.59725 11.202C4.98188 11.9285 4.20788 12.2919 3.276 12.2919C2.61319 12.2919 2.08444 12.1022 1.69706 11.7234C1.31025 11.3441 1.11319 10.8388 1.11319 10.2073C1.11319 9.53641 1.34981 8.99153 1.83188 8.58147C2.313 8.17047 2.95238 7.96534 3.76613 7.96534C4.03425 7.96534 4.31025 7.98878 4.60238 8.02834C4.89488 8.06791 5.19506 8.13091 5.51081 8.20197V7.62559C5.51081 7.02559 5.38406 6.60747 5.13956 6.36297C4.88644 6.11828 4.46025 5.99959 3.85238 5.99959C3.57619 5.99959 3.29213 6.03109 2.99981 6.10216C2.70959 6.17131 2.42468 6.2611 2.14725 6.37084C2.0205 6.42578 1.926 6.45728 1.87106 6.47341C1.81556 6.48878 1.776 6.49684 1.7445 6.49684C1.63388 6.49684 1.57894 6.41772 1.57894 6.25234V5.86553C1.57894 5.73878 1.59431 5.64428 1.63388 5.58878C1.67325 5.53384 1.7445 5.47891 1.85513 5.42322C2.13113 5.28109 2.463 5.16259 2.84963 5.06791C3.23644 4.96534 3.64725 4.91791 4.0815 4.91791C5.0205 4.91791 5.7075 5.13091 6.15 5.55728C6.58425 5.98347 6.80475 6.63091 6.80475 7.49959V10.0571H6.82106ZM3.61594 11.2577C3.876 11.2577 4.14469 11.21 4.42894 11.1155C4.71319 11.0203 4.96575 10.8468 5.17894 10.6102C5.30494 10.4602 5.40019 10.2945 5.44706 10.1049C5.49469 9.91516 5.52619 9.68678 5.52619 9.41772V9.08678C5.28702 9.02802 5.04469 8.98301 4.80038 8.95197C4.55403 8.9209 4.30599 8.90525 4.05769 8.90509C3.52894 8.90509 3.14213 9.00766 2.88131 9.22084C2.62125 9.43384 2.49469 9.73347 2.49469 10.1283C2.49469 10.4996 2.58919 10.7758 2.78681 10.9653C2.97656 11.1624 3.25275 11.2577 3.61594 11.2577ZM9.95513 12.1102C9.813 12.1102 9.7185 12.0868 9.6555 12.0311C9.59175 11.9835 9.53681 11.8736 9.48919 11.7236L7.63406 5.62084C7.58719 5.46278 7.56281 5.36022 7.56281 5.30453C7.56281 5.17853 7.626 5.10766 7.75275 5.10766H8.52619C8.67619 5.10766 8.77875 5.13091 8.83444 5.18659C8.89744 5.23347 8.94506 5.34409 8.99194 5.49409L10.3183 10.7208L11.5502 5.49428C11.5892 5.33678 11.6368 5.23366 11.6996 5.18678C11.7634 5.13897 11.874 5.10747 12.0161 5.10747H12.6474C12.7974 5.10747 12.9002 5.13091 12.9632 5.18659C13.0262 5.23347 13.0819 5.34409 13.1132 5.49409L14.3606 10.7838L15.7266 5.49428C15.7734 5.33678 15.8291 5.23366 15.8841 5.18678C15.9471 5.13897 16.0504 5.10747 16.1923 5.10747H16.9262C17.0529 5.10747 17.124 5.17047 17.124 5.30453C17.124 5.34391 17.1159 5.38366 17.1079 5.43128C17.0998 5.47891 17.0844 5.54191 17.0529 5.62816L15.1502 11.7315C15.1026 11.889 15.0476 11.9915 14.9839 12.039C14.9209 12.0868 14.8183 12.1183 14.6843 12.1183H14.0055C13.8553 12.1183 13.7528 12.0939 13.6898 12.0392C13.626 11.9835 13.5711 11.8809 13.5396 11.7234L12.3158 6.63091L11.0998 11.7153C11.0604 11.8736 11.0136 11.9762 10.9498 12.0311C10.8866 12.0868 10.7762 12.1102 10.6341 12.1102H9.95513ZM20.0998 12.3234C19.6898 12.3234 19.2788 12.2758 18.8841 12.1813C18.4892 12.0868 18.1817 11.9835 17.9766 11.8655C17.8498 11.7945 17.7634 11.7155 17.7319 11.6443C17.7008 11.5747 17.6845 11.4993 17.6843 11.423V11.0203C17.6843 10.8549 17.7473 10.7758 17.8661 10.7758C17.913 10.7758 17.9604 10.7838 18.0081 10.8C18.0549 10.8153 18.126 10.8468 18.2049 10.8783C18.484 11.0009 18.7753 11.0937 19.0738 11.1551C19.3894 11.2181 19.6971 11.2496 20.0134 11.2496C20.5108 11.2496 20.8974 11.1624 21.1656 10.989C21.4343 10.8153 21.5764 10.5626 21.5764 10.239C21.5764 10.0177 21.5053 9.83678 21.3634 9.68659C21.2213 9.53659 20.9524 9.40234 20.5658 9.27578L19.4209 8.92047C18.8445 8.73878 18.4181 8.47084 18.1583 8.11553C17.8976 7.76772 17.7634 7.38091 17.7634 6.97084C17.7634 6.63897 17.8346 6.34684 17.9766 6.09409C18.1175 5.84012 18.3113 5.61933 18.5449 5.44666C18.7815 5.26572 19.0504 5.13091 19.3661 5.03641C19.6817 4.94191 20.0134 4.90234 20.3606 4.90234C20.5343 4.90234 20.7158 4.91041 20.8894 4.93384C21.0711 4.95728 21.2366 4.98878 21.4028 5.02028C21.5603 5.05984 21.7104 5.09941 21.8526 5.14703C21.9947 5.19466 22.1053 5.24153 22.1844 5.28916C22.2951 5.35216 22.374 5.41516 22.4209 5.48603C22.4685 5.54978 22.4919 5.63641 22.4919 5.74684V6.11809C22.4919 6.28384 22.4289 6.37084 22.3103 6.37084C22.2473 6.37084 22.1447 6.33878 22.0108 6.27578C21.5603 6.07066 21.0549 5.96809 20.4947 5.96809C20.0449 5.96809 19.6898 6.03916 19.4451 6.18934C19.1996 6.33878 19.0738 6.56809 19.0738 6.89172C19.0738 7.11297 19.1528 7.30253 19.3103 7.45197C19.4685 7.60197 19.7608 7.75234 20.1789 7.88622L21.3002 8.24153C21.8687 8.42322 22.2789 8.67578 22.5234 8.99959C22.7681 9.32341 22.8868 9.69466 22.8868 10.1049C22.8868 10.4447 22.8156 10.7523 22.6817 11.0203C22.5396 11.2892 22.3498 11.5258 22.1053 11.7153C21.8606 11.9124 21.5683 12.0545 21.2293 12.1578C20.874 12.2677 20.5028 12.3234 20.0998 12.3234Z" fill="#252F3E"/>
<path d="M22.125 13.7528C21.294 13.7646 20.313 13.9501 19.5711 14.4713C19.3418 14.6369 19.3813 14.8579 19.6341 14.8264C20.4793 14.7239 22.3416 14.5028 22.6734 14.929C23.0053 15.3471 22.3029 17.1078 21.9866 17.8896C21.8921 18.1259 22.0973 18.2213 22.3103 18.0396C23.6996 16.8713 24.063 14.4318 23.7788 14.0764C23.6368 13.903 22.956 13.7408 22.125 13.7528ZM0.305631 14.2236C0.131819 14.2454 0.0530686 14.4554 0.236631 14.6213C3.33188 17.4154 7.42894 19.0973 11.9766 19.0973C15.2213 19.0973 18.9947 18.0792 21.5918 16.1611C22.0179 15.8446 21.6474 15.3634 21.213 15.5603C18.3004 16.7922 15.1341 17.3922 12.2528 17.3922C7.98188 17.3922 3.85276 16.216 0.505319 14.2735C0.432194 14.2302 0.363756 14.2165 0.305819 14.2236H0.305631Z" fill="#FF9900"/>
</g>
<defs>
<clipPath id="clip0_374_2534">
<rect width="24" height="24" fill="white"/>
</clipPath>
</defs>
</svg>
