<svg width="32" height="32" viewBox="0 0 32 32" fill="none" xmlns="http://www.w3.org/2000/svg">
<path d="M26.6666 7.99984C26.6666 5.10917 21.7826 2.6665 16 2.6665C10.2173 2.6665 5.33331 5.10917 5.33331 7.99984V10.6665C5.33331 13.5572 10.2173 15.9998 16 15.9998C21.7826 15.9998 26.6666 13.5572 26.6666 10.6665V7.99984ZM16 25.3332C10.2173 25.3332 5.33331 22.8905 5.33331 19.9998V23.9998C5.33331 26.8905 10.2173 29.3332 16 29.3332C21.7826 29.3332 26.6666 26.8905 26.6666 23.9998V19.9998C26.6666 22.8905 21.7826 25.3332 16 25.3332Z" fill="white"/>
<path d="M26.6666 13.3335C26.6666 16.2242 21.7826 18.6668 16 18.6668C10.2173 18.6668 5.33331 16.2242 5.33331 13.3335V17.3335C5.33331 20.2242 10.2173 22.6668 16 22.6668C21.7826 22.6668 26.6666 20.2242 26.6666 17.3335V13.3335Z" fill="white"/>
</svg>
