<svg width="32" height="32" viewBox="0 0 32 32" fill="none" xmlns="http://www.w3.org/2000/svg">
<path d="M7.5 3C6.30653 3 5.16193 3.47411 4.31802 4.31802C3.47411 5.16193 3 6.30653 3 7.5V9H29V7.5C29 6.30653 28.5259 5.16193 27.682 4.31802C26.8381 3.47411 25.6935 3 24.5 3H7.5ZM29 11H3V24.5C3 25.6935 3.47411 26.8381 4.31802 27.682C5.16193 28.5259 6.30653 29 7.5 29H16.967C16.8232 28.8435 16.6845 28.6824 16.551 28.517C15.18 26.82 14.5 24.8 14.5 22.533V18.5C14.5 18.0186 14.6736 17.5533 14.989 17.1896C15.3044 16.8259 15.7404 16.5881 16.217 16.52C18.2493 16.2312 20.1895 15.4844 21.891 14.336C22.2195 14.1171 22.6053 14.0004 23 14.0004C23.3947 14.0004 23.7805 14.1171 24.109 14.336C25.589 15.3337 27.2509 16.0302 29 16.386V11ZM29 17.913C26.9522 17.5394 25.0037 16.7465 23.277 15.584C23.1949 15.5294 23.0986 15.5003 23 15.5003C22.9014 15.5003 22.8051 15.5294 22.723 15.584C20.8351 16.8567 18.6831 17.6845 16.429 18.005C16.3099 18.0221 16.201 18.0815 16.1222 18.1725C16.0434 18.2634 16 18.3797 16 18.5V22.533C16 25.181 17.068 27.343 19.174 29C20.162 29.778 21.3773 30.4447 22.82 31C22.9358 31.0447 23.0642 31.0447 23.18 31C27.693 29.264 30 26.425 30 22.533V18.5C30 18.3795 29.9565 18.2631 29.8775 18.1722C29.7985 18.0812 29.6893 18.0219 29.57 18.005C29.3794 17.978 29.1894 17.9473 29 17.913Z" fill="white"/>
</svg>
