<svg width="32" height="32" viewBox="0 0 32 32" fill="none" xmlns="http://www.w3.org/2000/svg">
<path d="M18.9334 19.3335V19.6535C18 20.4535 17.3334 21.6535 17.3334 22.9335V26.6668H8.66671C6.66671 26.6668 4.92004 26.0002 3.48004 24.5735C2.05337 23.1735 1.33337 21.4535 1.33337 19.4402C1.33337 17.7068 1.85337 16.1602 2.89337 14.8002C4.45337 12.7602 5.33337 12.5735 7.00004 12.2002C7.56004 10.1602 8.66671 8.50683 10.3334 7.24016C12 5.9735 13.8934 5.3335 16 5.3335C18.6 5.3335 20.8 6.24016 22.6134 8.0535C24.1067 9.54683 24.9734 11.3335 25.24 13.3335C21.8134 13.3868 18.9334 16.1068 18.9334 19.3335ZM30.6667 23.0668V27.7335C30.6667 28.5335 29.8667 29.3335 28.9334 29.3335H21.6C20.8 29.3335 20 28.5335 20 27.6002V22.9335C20 22.1335 20.8 21.3335 21.6 21.3335V19.3335C21.6 17.4668 23.4667 16.0002 25.3334 16.0002C27.2 16.0002 29.0667 17.4668 29.0667 19.3335V21.3335C29.8667 21.3335 30.6667 22.1335 30.6667 23.0668ZM27.3334 19.3335C27.3334 18.2668 26.4 17.6002 25.3334 17.6002C24.2667 17.6002 23.3334 18.2668 23.3334 19.3335V21.3335H27.3334V19.3335Z" fill="white"/>
</svg>
