<svg width="24" height="24" viewBox="0 0 24 24" fill="none" xmlns="http://www.w3.org/2000/svg">
<path d="M16.3371 15.801C15.6428 15.801 14.9485 16.0805 14.3914 16.3616L9.65655 12.7239C9.7954 12.3039 9.93426 11.8839 9.93426 11.3233C9.93426 10.7627 9.79712 10.3427 9.65655 9.92275L14.2131 6.42046C14.6297 6.84046 15.3257 7.11989 16.0217 7.11989C16.4813 7.1229 16.937 7.03418 17.3619 6.85894C17.7868 6.6837 18.1725 6.42545 18.4964 6.09931C18.8203 5.77317 19.0759 5.3857 19.2482 4.95957C19.4206 4.53344 19.5061 4.07722 19.5 3.61761C19.5061 3.15785 19.4205 2.70149 19.2481 2.27524C19.0757 1.849 18.8199 1.46145 18.4958 1.13529C18.1717 0.809124 17.7858 0.550912 17.3607 0.375771C16.9356 0.200631 16.4798 0.112085 16.02 0.11532C15.5606 0.112772 15.1054 0.201825 14.6808 0.377272C14.2563 0.552719 13.871 0.81104 13.5475 1.13713C13.2239 1.46322 12.9686 1.85054 12.7965 2.27644C12.6244 2.70235 12.539 3.15829 12.5451 3.61761C12.5451 4.31875 12.8228 5.01989 13.1005 5.57875L8.96055 8.66103C8.26455 7.82103 7.42969 7.26046 6.45769 7.11989V5.57875C7.70912 5.29932 8.54398 4.17818 8.54398 2.91818C8.54398 1.37532 7.29255 0.11532 5.76169 0.11532C4.23083 0.11532 2.9794 1.37703 2.9794 2.91818C2.9794 4.17818 3.81255 5.29932 5.06569 5.57875V7.12161C2.9794 7.53989 1.44855 9.21989 1.44855 11.3216C1.44855 13.4233 2.9794 15.105 4.92683 15.3845V16.9256C3.6754 17.205 2.83883 18.3262 2.83883 19.5879C2.83883 21.129 4.09026 22.389 5.62112 22.389C7.15198 22.389 8.40512 21.129 8.40512 19.5879C8.40512 18.3262 7.57026 17.205 6.31712 16.9256V15.3845C7.29083 15.2439 8.26455 14.6833 8.82169 13.8433L13.416 17.3405C13.1383 17.901 12.8605 18.6005 12.8605 19.3016C12.8605 21.2628 14.3914 22.8039 16.3388 22.8039C16.7985 22.8069 17.2541 22.7182 17.679 22.5429C18.104 22.3677 18.4897 22.1094 18.8136 21.7833C19.1375 21.4572 19.3931 21.0697 19.5654 20.6436C19.7377 20.2174 19.8233 19.7612 19.8171 19.3016C19.8233 18.8419 19.7377 18.3855 19.5652 17.9592C19.3928 17.533 19.1371 17.1454 18.813 16.8193C18.4889 16.4931 18.103 16.2349 17.6778 16.0598C17.2527 15.8846 16.7969 15.7961 16.3371 15.7993V15.801ZM16.0234 1.51589C17.136 1.51589 18.1097 2.49818 18.1097 3.61761C18.1097 4.73875 17.136 5.71932 16.0234 5.71932C14.9091 5.71932 13.9354 4.73875 13.9354 3.61761C13.9354 2.49818 14.9091 1.51589 16.0234 1.51589ZM5.66912 8.54789C7.12798 8.54789 8.40512 9.83361 8.40512 11.301C8.40512 12.7702 7.12798 14.0542 5.67083 14.0542C4.21369 14.0542 2.93655 12.7685 2.93655 11.301C2.93655 9.83361 4.21198 8.54789 5.67083 8.54789H5.66912ZM4.23255 2.91818C4.23255 2.07818 4.78969 1.51589 5.62283 1.51589C6.45769 1.51589 7.01483 2.07646 7.01483 2.91818C7.01483 3.75818 6.45769 4.31875 5.62283 4.31875C4.78969 4.31875 4.23255 3.75818 4.23255 2.91818ZM7.01483 19.7285C7.01483 20.5685 6.45769 21.1308 5.62283 21.1308C4.78969 21.1308 4.23255 20.5702 4.23255 19.7285C4.23255 18.8885 4.78969 18.3279 5.62283 18.3279C6.45769 18.3279 7.01483 18.8885 7.01483 19.7285ZM16.3405 21.405C15.2263 21.405 14.2543 20.4245 14.2543 19.3033C14.2543 18.1822 15.228 17.2016 16.3405 17.2016C17.4548 17.2016 18.4268 18.1822 18.4268 19.3033C18.4268 20.4245 17.4531 21.405 16.3405 21.405Z" fill="black"/>
</svg>
