<svg width="24" height="23" viewBox="0 0 24 23" fill="none" xmlns="http://www.w3.org/2000/svg">
<g clip-path="url(#clip0_374_2602)">
<path d="M0.860925 17.5577C0.613607 17.9598 0.333499 18.4312 0.112411 18.8043C0.0636969 18.8875 0.032782 18.9801 0.0187298 19.0755C0.00539079 19.1713 0.0104781 19.2687 0.0337188 19.3626C0.0562024 19.4571 0.0974222 19.545 0.153631 19.6235C0.20984 19.7021 0.281038 19.7694 0.36254 19.8218L5.33046 22.8789C5.41571 22.9322 5.51221 22.9678 5.61245 22.9837C5.71175 22.9996 5.8148 22.9958 5.91316 22.9715C6.01153 22.9472 6.10427 22.9042 6.18577 22.8443C6.26728 22.7845 6.33566 22.7087 6.38719 22.6217C6.58767 22.2888 6.84154 21.8577 7.11416 21.3976C9.08334 18.174 11.0788 18.5686 14.6433 20.2604L19.571 22.5928C19.6632 22.6369 19.7634 22.6621 19.8656 22.6668C19.9678 22.6714 20.0699 22.6555 20.1658 22.6199C20.2614 22.5843 20.3495 22.5301 20.4235 22.46C20.4984 22.3898 20.5574 22.3056 20.5987 22.2121L22.9641 16.8881C23.0044 16.7983 23.0269 16.702 23.0297 16.6038C23.0334 16.5066 23.0175 16.4084 22.9838 16.3167C22.9501 16.2251 22.8995 16.14 22.8339 16.067C22.7683 15.9941 22.6896 15.9352 22.6006 15.8912C21.5617 15.403 19.4942 14.4426 17.6411 13.5373C10.9008 10.2913 5.21336 10.5055 0.860925 17.5577Z" fill="url(#paint0_linear_374_2602)"/>
<path d="M23.1356 5.45615C23.3857 5.05402 23.6658 4.58362 23.8841 4.21048C23.9337 4.12537 23.9665 4.03092 23.9806 3.93273C23.9946 3.83547 23.989 3.7354 23.9646 3.64001C23.9397 3.54439 23.8965 3.4545 23.8372 3.37535C23.7781 3.29597 23.7039 3.22892 23.6189 3.17803L18.6585 0.120901C18.5723 0.0675958 18.4768 0.0320587 18.3765 0.0161605C18.2763 0.000262293 18.1742 0.00493823 18.0758 0.0283179C17.9775 0.0526328 17.8847 0.0956514 17.8032 0.155503C17.7217 0.215355 17.6533 0.291106 17.6009 0.378078C17.4051 0.711005 17.1465 1.14213 16.8739 1.60224C14.8972 4.84079 12.9205 4.44614 9.35221 2.75439L4.42926 0.421097C4.33745 0.377143 4.23815 0.350958 4.13697 0.345346C4.0358 0.3388 3.93368 0.353763 3.83813 0.38743C3.74257 0.421097 3.65451 0.473467 3.57957 0.541736C3.50368 0.610004 3.44373 0.692301 3.40064 0.783949L1.03518 6.12293C0.953884 6.30402 0.94616 6.50954 1.01363 6.6962C1.04736 6.78879 1.09888 6.87389 1.16446 6.94683C1.23004 7.01978 1.30967 7.07963 1.39866 7.12265C2.44134 7.61175 4.50889 8.57125 6.35816 9.47745C13.0807 12.7226 18.7859 12.5093 23.1356 5.45615Z" fill="url(#paint1_linear_374_2602)"/>
</g>
<defs>
<linearGradient id="paint0_linear_374_2602" x1="22.8049" y1="24.462" x2="7.80996" y2="15.8293" gradientUnits="userSpaceOnUse">
<stop stop-color="#0052CC"/>
<stop offset="0.92" stop-color="#2380FB"/>
<stop offset="1" stop-color="#2684FF"/>
</linearGradient>
<linearGradient id="paint1_linear_374_2602" x1="1.19097" y1="-1.45115" x2="16.1895" y2="7.18154" gradientUnits="userSpaceOnUse">
<stop stop-color="#0052CC"/>
<stop offset="0.92" stop-color="#2380FB"/>
<stop offset="1" stop-color="#2684FF"/>
</linearGradient>
<clipPath id="clip0_374_2602">
<rect width="24" height="23" fill="white"/>
</clipPath>
</defs>
</svg>
