<svg width="24" height="24" viewBox="0 0 24 24" fill="none" xmlns="http://www.w3.org/2000/svg">
<path fill-rule="evenodd" clip-rule="evenodd" d="M13.8375 9.52539H15.9563V11.6816H17.025C17.5125 11.6816 18.0188 11.5879 18.4875 11.4379C18.7125 11.3629 18.975 11.2504 19.2 11.1191C18.9 10.7254 18.75 10.2379 18.7125 9.75039C18.6563 9.09414 18.7875 8.23164 19.2375 7.72539L19.4625 7.46289L19.725 7.66914C20.4 8.21289 20.9438 8.94414 21.0563 9.80664C21.8625 9.56289 22.8 9.61914 23.5125 10.0316L23.7938 10.2004L23.6438 10.5004C23.0438 11.6629 21.7875 12.0379 20.5688 11.9629C18.7313 16.5191 14.7563 18.6754 9.91875 18.6754C7.425 18.6754 5.1375 17.7379 3.825 15.5254L3.80625 15.4879L3.61875 15.0941C3.16875 14.1191 3.0375 13.0504 3.13125 11.9816L3.16875 11.6629H4.96875V9.52539H7.0875V7.42539H11.3063V5.30664H13.8375V9.52539Z" fill="#3A4D54"/>
<path d="M20.7 10.3312C20.85 9.22495 20.025 8.36245 19.5 7.94995C18.9187 8.62495 18.825 10.425 19.7437 11.175C19.2187 11.625 18.15 12.0562 17.025 12.0562H3.48749C3.37499 13.2187 3.58124 14.2875 4.04999 15.2062L4.19999 15.4875C4.29374 15.6562 4.40624 15.8062 4.51874 15.9749C5.08124 16.0124 5.58749 16.0312 6.05624 16.0125C6.97499 15.9937 7.72499 15.8812 8.30624 15.6937C8.39999 15.6562 8.47499 15.7124 8.51249 15.7874C8.54999 15.8812 8.49374 15.9562 8.41874 15.9937C8.34374 16.0125 8.26874 16.0499 8.17499 16.0687C7.72499 16.1999 7.23749 16.275 6.61874 16.3125H6.50624C6.26249 16.3312 5.99999 16.3312 5.71874 16.3312C5.41874 16.3312 5.13749 16.3312 4.79999 16.3125C5.92499 17.5875 7.68749 18.3375 9.89999 18.3375C14.5875 18.3375 18.5625 16.2562 20.3062 11.6062C21.5625 11.7375 22.7625 11.4187 23.3062 10.35C22.4625 9.8437 21.3375 10.0125 20.7 10.3312Z" fill="#00AADA"/>
<path d="M20.7 10.3312C20.85 9.22495 20.025 8.36245 19.5 7.94995C18.9187 8.62495 18.825 10.425 19.7437 11.175C19.2187 11.625 18.15 12.0562 17.025 12.0562H4.27499C4.21874 13.8375 4.87499 15.1875 6.05624 15.9937C6.97499 15.975 7.72499 15.8625 8.30624 15.675C8.39999 15.6375 8.475 15.6937 8.5125 15.7687C8.54999 15.8625 8.49374 15.9375 8.41875 15.975C8.34375 15.9937 8.26874 16.0312 8.17499 16.05C7.72499 16.1812 7.19999 16.275 6.58124 16.3125L6.56249 16.2937C8.15624 17.1187 10.4625 17.1 13.125 16.0875C16.0875 14.9437 18.8625 12.7687 20.7937 10.2937C20.7562 10.3125 20.7187 10.3125 20.7 10.3312Z" fill="#28B8EB"/>
<path d="M3.50626 13.4629C3.58126 14.0816 3.76876 14.6629 4.05001 15.2066L4.20001 15.4879C4.29376 15.6566 4.40626 15.8066 4.51876 15.9754C5.08126 16.0129 5.58751 16.0316 6.05626 16.0129C6.97501 15.9941 7.72501 15.8816 8.30626 15.6941C8.40001 15.6566 8.47501 15.7129 8.51251 15.7879C8.55001 15.8816 8.49376 15.9566 8.41876 15.9941C8.34376 16.0129 8.26876 16.0504 8.17501 16.0691C7.72501 16.2004 7.20001 16.2941 6.58126 16.3316H6.50626C6.26251 16.3504 6.00001 16.3504 5.73751 16.3504C5.43751 16.3504 5.13751 16.3504 4.81876 16.3316C5.94376 17.6066 7.72501 18.3566 9.93751 18.3566C13.95 18.3566 17.4375 16.8379 19.4625 13.4816H3.50626V13.4629Z" fill="#028BB8"/>
<path d="M4.40625 13.4629C4.65 14.5504 5.2125 15.4129 6.05625 15.9941C6.975 15.9754 7.725 15.8629 8.30625 15.6754C8.4 15.6379 8.475 15.6941 8.5125 15.7691C8.55 15.8629 8.49375 15.9379 8.41875 15.9754C8.34375 15.9941 8.26875 16.0316 8.175 16.0504C7.725 16.1816 7.2 16.2754 6.5625 16.3129C8.15625 17.1379 10.4625 17.1191 13.1063 16.1066C14.7 15.4879 16.2562 14.5691 17.6437 13.4629H4.40625Z" fill="#019BC6"/>
<path fill-rule="evenodd" clip-rule="evenodd" d="M5.325 9.88125H7.1625V11.7188H5.325V9.88125ZM5.475 10.0312H5.625V11.55H5.475V10.0312ZM5.7375 10.0312H5.8875V11.55H5.7375V10.0312ZM6.01875 10.0312H6.16875V11.55H6.01875V10.0312ZM6.3 10.0312H6.45V11.55H6.3V10.0312ZM6.58125 10.0312H6.73125V11.55H6.58125V10.0312ZM6.8625 10.0312H7.0125V11.55H6.8625V10.0312ZM7.425 7.78125H9.2625V9.61875H7.425V7.78125ZM7.59375 7.93125H7.74375V9.45H7.59375V7.93125ZM7.85625 7.93125H8.00625V9.45H7.85625V7.93125ZM8.1375 7.93125H8.2875V9.45H8.1375V7.93125ZM8.41875 7.93125H8.56875V9.45H8.41875V7.93125ZM8.68125 7.93125H8.83125V9.45H8.68125V7.93125ZM8.9625 7.93125H9.1125V9.45H8.9625V7.93125Z" fill="#00ACD3"/>
<path fill-rule="evenodd" clip-rule="evenodd" d="M7.425 9.88086H9.2625V11.7184H7.425V9.88086ZM7.59375 10.0309H7.74375V11.5496H7.59375V10.0309ZM7.85625 10.0309H8.00625V11.5496H7.85625V10.0309ZM8.1375 10.0309H8.2875V11.5496H8.1375V10.0309ZM8.41875 10.0309H8.56875V11.5496H8.41875V10.0309ZM8.68125 10.0309H8.83125V11.5496H8.68125V10.0309ZM8.9625 10.0309H9.1125V11.5496H8.9625V10.0309Z" fill="#23C2EE"/>
<path fill-rule="evenodd" clip-rule="evenodd" d="M9.54375 9.88086H11.3812V11.7184H9.54375V9.88086ZM9.69375 10.0309H9.84375V11.5496H9.69375V10.0309ZM9.975 10.0309H10.125V11.5496H9.975V10.0309ZM10.2562 10.0309H10.4062V11.5496H10.2562V10.0309ZM10.5187 10.0309H10.6687V11.5496H10.5187V10.0309ZM10.8 10.0309H10.95V11.5496H10.8V10.0309ZM11.0812 10.0309H11.2312V11.5496H11.0812V10.0309Z" fill="#00ACD3"/>
<path fill-rule="evenodd" clip-rule="evenodd" d="M9.54375 7.78125H11.3812V9.61875H9.54375V7.78125ZM9.69375 7.93125H9.84375V9.45H9.69375V7.93125ZM9.975 7.93125H10.125V9.45H9.975V7.93125ZM10.2562 7.93125H10.4062V9.45H10.2562V7.93125ZM10.5187 7.93125H10.6687V9.45H10.5187V7.93125ZM10.8 7.93125H10.95V9.45H10.8V7.93125ZM11.0812 7.93125H11.2312V9.45H11.0812V7.93125ZM11.6625 9.88125H13.5V11.7188H11.6625V9.88125ZM11.8125 10.0312H11.9625V11.55H11.8125V10.0312ZM12.0937 10.0312H12.2437V11.55H12.0937V10.0312ZM12.3562 10.0312H12.5062V11.55H12.3562V10.0312ZM12.6375 10.0312H12.7875V11.55H12.6375V10.0312ZM12.9187 10.0312H13.0687V11.55H12.9187V10.0312ZM13.2 10.0312H13.35V11.55H13.2V10.0312Z" fill="#23C2EE"/>
<path fill-rule="evenodd" clip-rule="evenodd" d="M11.6625 7.78125H13.5V9.61875H11.6625V7.78125ZM11.8125 7.93125H11.9625V9.45H11.8125V7.93125ZM12.0938 7.93125H12.2438V9.45H12.0938V7.93125ZM12.3563 7.93125H12.5063V9.45H12.3563V7.93125ZM12.6375 7.93125H12.7875V9.45H12.6375V7.93125ZM12.9188 7.93125H13.0688V9.45H12.9188V7.93125ZM13.2 7.93125H13.35V9.45H13.2V7.93125Z" fill="#00ACD3"/>
<path fill-rule="evenodd" clip-rule="evenodd" d="M11.6625 5.66211H13.5V7.49961H11.6625V5.66211ZM11.8125 5.81211H11.9625V7.33086H11.8125V5.81211ZM12.0938 5.81211H12.2438V7.33086H12.0938V5.81211ZM12.3563 5.81211H12.5063V7.33086H12.3563V5.81211ZM12.6375 5.81211H12.7875V7.33086H12.6375V5.81211ZM12.9188 5.81211H13.0688V7.33086H12.9188V5.81211ZM13.2 5.81211H13.35V7.33086H13.2V5.81211Z" fill="#23C2EE"/>
<path fill-rule="evenodd" clip-rule="evenodd" d="M13.7812 9.88086H15.6188V11.7184H13.7812V9.88086ZM13.9313 10.0309H14.0812V11.5496H13.9313V10.0309ZM14.1937 10.0309H14.3438V11.5496H14.1937V10.0309ZM14.475 10.0309H14.625V11.5496H14.475V10.0309ZM14.7562 10.0309H14.9062V11.5496H14.7562V10.0309ZM15.0375 10.0309H15.1875V11.5496H15.0375V10.0309ZM15.3187 10.0309H15.4688V11.5496H15.3187V10.0309Z" fill="#00ACD3"/>
<path fill-rule="evenodd" clip-rule="evenodd" d="M9.15 14.6816C9.43125 14.6816 9.65625 14.9066 9.65625 15.1879C9.65625 15.4691 9.43125 15.6941 9.15 15.6941C8.86875 15.6941 8.64375 15.4691 8.64375 15.1879C8.64375 14.9066 8.86875 14.6816 9.15 14.6816Z" fill="#D4EEF1"/>
<path fill-rule="evenodd" clip-rule="evenodd" d="M9.15 14.8313C9.1875 14.8313 9.24375 14.8313 9.28125 14.85C9.24375 14.8688 9.20625 14.925 9.20625 14.9813C9.20625 15.0563 9.28125 15.1313 9.35625 15.1313C9.4125 15.1313 9.46875 15.0938 9.4875 15.0563C9.50625 15.0938 9.50625 15.15 9.50625 15.1875C9.50625 15.3938 9.3375 15.5438 9.15 15.5438C8.94375 15.5438 8.79375 15.375 8.79375 15.1875C8.79375 15 8.94375 14.8313 9.15 14.8313ZM0.206253 13.65H23.7188C23.2125 13.5188 22.1063 13.35 22.275 12.675C21.3375 13.7438 19.1063 13.425 18.525 12.9C17.8875 13.8188 14.2125 13.4625 13.9688 12.75C13.1813 13.6875 10.725 13.6875 9.9375 12.75C9.675 13.4625 6 13.8188 5.38125 12.9C4.81875 13.425 2.56875 13.7438 1.63125 12.675C1.8375 13.3313 0.712503 13.5188 0.206253 13.65Z" fill="#3A4D54"/>
<path d="M10.5 18.3375C9.24375 17.7375 8.56875 16.9313 8.175 16.05C7.70625 16.1813 7.14375 16.275 6.50625 16.3125C6.2625 16.3313 6 16.3313 5.7375 16.3313C5.41875 16.3313 5.1 16.3313 4.7625 16.3125C5.8875 17.4375 7.3125 18.3188 9.91875 18.3375H10.5Z" fill="#BFDBE0"/>
<path d="M8.64376 16.8563C8.47501 16.6125 8.30626 16.3313 8.17501 16.05C7.70626 16.1813 7.14376 16.275 6.50626 16.3125C6.93751 16.5375 7.57501 16.7625 8.64376 16.8563Z" fill="#D4EEF1"/>
</svg>
