<svg width="32" height="32" viewBox="0 0 32 32" fill="none" xmlns="http://www.w3.org/2000/svg">
<path d="M6.66666 26.6668C6.66666 26.3132 6.52618 25.9741 6.27614 25.724C6.02609 25.474 5.68695 25.3335 5.33333 25.3335C4.9797 25.3335 4.64057 25.474 4.39052 25.724C4.14047 25.9741 3.99999 26.3132 3.99999 26.6668C3.99999 27.0205 4.14047 27.3596 4.39052 27.6096C4.64057 27.8597 4.9797 28.0002 5.33333 28.0002C5.68695 28.0002 6.02609 27.8597 6.27614 27.6096C6.52618 27.3596 6.66666 27.0205 6.66666 26.6668ZM17.3333 26.6668C17.3333 26.3132 17.1929 25.9741 16.9428 25.724C16.6928 25.474 16.3536 25.3335 16 25.3335C15.6464 25.3335 15.3072 25.474 15.0572 25.724C14.8071 25.9741 14.6667 26.3132 14.6667 26.6668C14.6667 27.0205 14.8071 27.3596 15.0572 27.6096C15.3072 27.8597 15.6464 28.0002 16 28.0002C16.3536 28.0002 16.6928 27.8597 16.9428 27.6096C17.1929 27.3596 17.3333 27.0205 17.3333 26.6668ZM28 26.6668C28 26.3132 27.8595 25.9741 27.6095 25.724C27.3594 25.474 27.0203 25.3335 26.6667 25.3335C26.313 25.3335 25.9739 25.474 25.7239 25.724C25.4738 25.9741 25.3333 26.3132 25.3333 26.6668C25.3333 27.0205 25.4738 27.3596 25.7239 27.6096C25.9739 27.8597 26.313 28.0002 26.6667 28.0002C27.0203 28.0002 27.3594 27.8597 27.6095 27.6096C27.8595 27.3596 28 27.0205 28 26.6668ZM17.3333 5.3335C17.3333 4.97988 17.1929 4.64074 16.9428 4.39069C16.6928 4.14064 16.3536 4.00016 16 4.00016C15.6464 4.00016 15.3072 4.14064 15.0572 4.39069C14.8071 4.64074 14.6667 4.97988 14.6667 5.3335C14.6667 5.68712 14.8071 6.02626 15.0572 6.27631C15.3072 6.52635 15.6464 6.66683 16 6.66683C16.3536 6.66683 16.6928 6.52635 16.9428 6.27631C17.1929 6.02626 17.3333 5.68712 17.3333 5.3335ZM20 5.3335C19.999 6.15989 19.7422 6.96572 19.2647 7.64019C18.7872 8.31467 18.1125 8.8247 17.3333 9.10016V14.6668H23.1107C25.8213 14.6668 28 16.9068 28 19.6095V22.8988C28.8905 23.2122 29.6413 23.8306 30.1195 24.6445C30.5978 25.4584 30.7725 26.4153 30.6128 27.3457C30.4531 28.2761 29.9693 29.12 29.247 29.7279C28.5247 30.3357 27.6107 30.6683 26.6667 30.6668C25.7247 30.6647 24.8137 30.3302 24.0942 29.7222C23.3746 29.1143 22.8928 28.2719 22.7334 27.3435C22.574 26.4151 22.7475 25.4603 23.2231 24.6472C23.6987 23.8341 24.446 23.215 25.3333 22.8988V19.6095C25.3333 18.3428 24.3107 17.3335 23.1107 17.3335H17.3333V22.8988C18.2238 23.2122 18.9747 23.8306 19.4529 24.6445C19.9311 25.4584 20.1058 26.4153 19.9461 27.3457C19.7864 28.2761 19.3026 29.12 18.5803 29.7279C17.8581 30.3357 16.944 30.6683 16 30.6668C15.058 30.6647 14.147 30.3302 13.4275 29.7222C12.708 29.1143 12.2261 28.2719 12.0667 27.3435C11.9074 26.4151 12.0808 25.4603 12.5564 24.6472C13.032 23.8341 13.7793 23.215 14.6667 22.8988V17.3335H8.88933C7.68933 17.3335 6.66666 18.3428 6.66666 19.6095V22.8988C7.55714 23.2122 8.30798 23.8306 8.7862 24.6445C9.26443 25.4584 9.43916 26.4153 9.27946 27.3457C9.11976 28.2761 8.63594 29.12 7.91368 29.7279C7.19142 30.3357 6.27733 30.6683 5.33333 30.6668C4.39136 30.6647 3.48036 30.3302 2.76084 29.7222C2.04131 29.1143 1.55942 28.2719 1.40007 27.3435C1.24071 26.4151 1.41412 25.4603 1.88973 24.6472C2.36535 23.8341 3.11265 23.215 3.99999 22.8988V19.6095C3.99999 16.9068 6.17866 14.6668 8.88933 14.6668H14.6667V9.10016C13.7771 8.78613 13.0273 8.16762 12.5499 7.35403C12.0724 6.54045 11.8981 5.58422 12.0577 4.65449C12.2173 3.72475 12.7006 2.88142 13.422 2.27366C14.1435 1.6659 15.0567 1.33288 16 1.3335C17.0609 1.3335 18.0783 1.75492 18.8284 2.50507C19.5786 3.25522 20 4.27263 20 5.3335Z" fill="white"/>
</svg>
