<svg width="85" height="104" viewBox="0 0 85 104" fill="none" xmlns="http://www.w3.org/2000/svg">
<g clip-path="url(#clip0_550_35773)">
<path d="M77.204 43.1477L67.2796 21.3272C66.9833 20.6755 66.4698 20.1473 65.827 19.8329C65.1842 19.5185 64.4523 19.4376 63.7565 19.6041L16.0492 31.0135C15.3818 31.1729 14.7866 31.5506 14.3578 32.0868C13.9291 32.623 13.6914 33.287 13.6824 33.9737L13.5406 44.1979C13.535 44.6062 13.6104 45.0116 13.7624 45.3906C13.9145 45.7696 14.1402 46.1146 14.4264 46.4057C14.7126 46.6968 15.0538 46.9281 15.43 47.0863C15.8062 47.2445 16.21 47.3263 16.618 47.3272L74.3871 47.515C74.9044 47.5167 75.4137 47.3883 75.8684 47.1414C76.323 46.8945 76.7083 46.5372 76.9888 46.1023C77.2694 45.6673 77.4361 45.1688 77.4737 44.6525C77.5113 44.1362 77.4185 43.6187 77.204 43.1477Z" fill="#471E95"/>
<path d="M57.9512 50.8008H3.12296C1.13028 50.8008 -0.485107 52.4175 -0.485107 54.4119V62.5968C-0.485107 64.5912 1.13028 66.2079 3.12296 66.2079H57.9512C59.9439 66.2079 61.5593 64.5912 61.5593 62.5968V54.4119C61.5593 52.4175 59.9439 50.8008 57.9512 50.8008Z" fill="#471E95"/>
<path d="M33.6711 69.0723H16.5968C14.613 69.0723 13.0049 70.6818 13.0049 72.6672V80.8844C13.0049 82.8699 14.613 84.4794 16.5968 84.4794H33.6711C35.6548 84.4794 37.263 82.8699 37.263 80.8844V72.6672C37.263 70.6818 35.6548 69.0723 33.6711 69.0723Z" fill="#471E95"/>
</g>
<defs>
<clipPath id="clip0_550_35773">
<rect width="85" height="104" fill="white"/>
</clipPath>
</defs>
</svg>
