<svg width="24" height="24" viewBox="0 0 24 24" fill="none" xmlns="http://www.w3.org/2000/svg">
<g clip-path="url(#clip0_513_9082)">
<path d="M23.3882 10.9457L13.0539 0.611871C12.4592 0.0167461 11.4939 0.0167461 10.8983 0.611871L8.7525 2.758L11.4746 5.48012C12.1074 5.26656 12.8327 5.40981 13.3369 5.914C13.8437 6.42137 13.9858 7.15281 13.767 7.78768L16.3905 10.4114C17.0252 10.1926 17.7578 10.3339 18.2644 10.8417C18.9731 11.5499 18.9731 12.6979 18.2644 13.4065C18.096 13.575 17.896 13.7087 17.6759 13.7999C17.4558 13.8911 17.2198 13.938 16.9816 13.938C16.7433 13.938 16.5074 13.8911 16.2873 13.7999C16.0672 13.7087 15.8672 13.575 15.6988 13.4065C15.4458 13.1533 15.2733 12.8309 15.203 12.4799C15.1328 12.1288 15.168 11.7649 15.3041 11.4338L12.8576 8.98731L12.8573 15.4262C13.0348 15.5137 13.1968 15.6294 13.3371 15.769C14.0454 16.4772 14.0454 17.6249 13.3371 18.3346C12.6285 19.0427 11.4801 19.0427 10.7723 18.3346C10.0639 17.6251 10.0639 16.4774 10.7723 15.769C10.942 15.599 11.1438 15.4645 11.3661 15.3734V8.87481C11.1437 8.78391 10.9417 8.64932 10.7723 8.479C10.2356 7.94275 10.1064 7.15525 10.3817 6.496L7.698 3.81231L0.612003 10.8979C0.326124 11.1839 0.165527 11.5717 0.165527 11.9761C0.165527 12.3804 0.326124 12.7682 0.612003 13.0542L10.9464 23.3881C11.5416 23.9832 12.5064 23.9832 13.1025 23.3881L23.3884 13.1022C23.6742 12.8161 23.8347 12.4283 23.8347 12.0239C23.8347 11.6196 23.6741 11.2317 23.3882 10.9457Z" fill="#F34F29"/>
</g>
<defs>
<clipPath id="clip0_513_9082">
<rect width="24" height="24" fill="white"/>
</clipPath>
</defs>
</svg>
