<svg width="24" height="24" viewBox="0 0 24 24" fill="none" xmlns="http://www.w3.org/2000/svg">
<g clip-path="url(#clip0_374_2585)">
<path fill-rule="evenodd" clip-rule="evenodd" d="M12 0.956787C5.74744 0.956787 0.67725 6.02585 0.67725 12.2795C0.67725 17.2824 3.92156 21.5265 8.42044 23.0239C8.98612 23.1289 9.19388 22.7782 9.19388 22.4792C9.19388 22.2092 9.18338 21.3172 9.1785 20.3711C6.0285 21.056 5.36381 19.0352 5.36381 19.0352C4.84875 17.7264 4.10663 17.3784 4.10663 17.3784C3.07913 16.6757 4.18406 16.6903 4.18406 16.6903C5.32088 16.77 5.91975 17.8571 5.91975 17.8571C6.92963 19.5877 8.56856 19.0875 9.21469 18.7984C9.31631 18.0665 9.60975 17.5669 9.93356 17.2841C7.41862 16.9982 4.77469 16.0271 4.77469 11.6885C4.77469 10.4524 5.21719 9.44229 5.9415 8.64916C5.82375 8.36416 5.43619 7.21254 6.051 5.65291C6.051 5.65291 7.00163 5.3486 9.16537 6.81354C10.0688 6.56248 11.0376 6.43629 12 6.43197C12.9619 6.43629 13.9312 6.5621 14.8363 6.81316C16.9974 5.34823 17.9469 5.65254 17.9469 5.65254C18.5632 7.21198 18.1757 8.36379 18.0581 8.64879C18.7841 9.44191 19.2234 10.452 19.2234 11.6882C19.2234 16.037 16.5746 16.9944 14.0533 17.2749C14.4596 17.6263 14.8215 18.3155 14.8215 19.3717C14.8215 20.8867 14.8084 22.106 14.8084 22.479C14.8084 22.7803 15.0124 23.1334 15.5861 23.0222C20.0824 21.5233 23.3229 17.2805 23.3229 12.2795C23.3228 6.02622 18.2531 0.956787 12 0.956787Z" fill="#181616"/>
<path d="M4.96575 17.2139C4.94081 17.2701 4.85231 17.287 4.77169 17.2486C4.68919 17.2118 4.64325 17.1351 4.66987 17.0787C4.69425 17.0206 4.78294 17.0046 4.86487 17.0434C4.94737 17.0804 4.99425 17.1578 4.96556 17.2141L4.96575 17.2139ZM5.42437 17.7256C5.37056 17.7756 5.265 17.7524 5.19337 17.6731C5.11912 17.5943 5.10525 17.4888 5.16019 17.4379C5.21606 17.3881 5.31844 17.4117 5.39269 17.4904C5.46656 17.5703 5.48119 17.6749 5.42456 17.7258L5.42437 17.7256ZM5.871 18.3775C5.80162 18.4259 5.688 18.3807 5.61787 18.28C5.5485 18.1791 5.5485 18.0582 5.61975 18.01C5.68969 17.9616 5.80162 18.0053 5.87287 18.1051C5.94187 18.2073 5.94187 18.3284 5.871 18.3775ZM6.48244 19.0077C6.42056 19.0761 6.28819 19.0578 6.19144 18.9646C6.09262 18.8733 6.06506 18.7433 6.12712 18.6751C6.19012 18.6064 6.32306 18.6256 6.42037 18.7182C6.51919 18.8093 6.549 18.9394 6.48281 19.0075L6.48244 19.0077ZM7.32619 19.3735C7.29862 19.4622 7.1715 19.5025 7.04306 19.4646C6.915 19.4258 6.83119 19.3221 6.85744 19.2325C6.88369 19.1431 7.01175 19.1013 7.14094 19.1416C7.269 19.1802 7.35281 19.2833 7.32619 19.3735ZM8.253 19.4412C8.25619 19.5346 8.14744 19.6118 8.013 19.6137C7.87744 19.6169 7.76775 19.5411 7.76644 19.4493C7.76644 19.3549 7.87294 19.2786 8.00831 19.276C8.14275 19.2736 8.25319 19.3486 8.25319 19.441L8.253 19.4412ZM9.11512 19.2946C9.13125 19.3855 9.03769 19.4791 8.904 19.504C8.77275 19.5284 8.65087 19.4718 8.634 19.3816C8.61787 19.2882 8.71312 19.1946 8.84437 19.1704C8.97825 19.1474 9.09825 19.2021 9.11512 19.2946Z" fill="#181616"/>
</g>
<defs>
<clipPath id="clip0_374_2585">
<rect width="24" height="24" fill="white"/>
</clipPath>
</defs>
</svg>
