<svg width="24" height="21" viewBox="0 0 24 21" fill="none" xmlns="http://www.w3.org/2000/svg">
<g clip-path="url(#clip0_374_2552)">
<path d="M7.64605 17.6197L3.43292 10.4198L7.64605 3.21973H16.0719L20.285 10.4198L16.0718 17.6197H7.64605Z" fill="#CAC9C2"/>
<path d="M11.9997 13.7069C10.1889 13.7069 8.71585 12.2533 8.71585 10.4666C8.71585 8.68006 10.1889 7.22656 11.9997 7.22656C13.8104 7.22656 15.2835 8.68006 15.2835 10.4666C15.2835 12.2533 13.8104 13.7069 11.9997 13.7069Z" fill="white"/>
<path d="M18.6061 0.806332C18.3478 0.365095 17.7141 0.00415039 17.1978 0.00415039H6.81562C6.29924 0.00415039 5.66549 0.365188 5.4074 0.806332L2.37374 5.99091C2.34993 6.32587 2.41218 6.67571 2.5619 6.93139L4.6154 10.3956L8.28112 4.14697H19.8677C20.1418 4.14697 20.4486 4.24937 20.7152 4.41069L18.6061 0.806332Z" fill="#5072AA"/>
<path d="M2.50567 5.76367L2.37292 5.99058C2.34911 6.32553 2.41136 6.67538 2.56098 6.93105L4.61448 10.3953L5.70704 8.53311L2.50567 5.76367Z" fill="#4D6796"/>
<path d="M7.08318 2.6675C6.91521 2.6673 6.75417 2.60138 6.6354 2.48419C6.51663 2.36699 6.44981 2.2081 6.44962 2.04237C6.44981 1.87663 6.51663 1.71774 6.6354 1.60055C6.75417 1.48336 6.91521 1.41743 7.08318 1.41724C7.25117 1.41738 7.41224 1.48329 7.53104 1.60049C7.64984 1.71769 7.71666 1.87661 7.71683 2.04237C7.71664 2.20812 7.64981 2.36702 7.53102 2.48422C7.41222 2.60142 7.25116 2.66733 7.08318 2.6675ZM17.4652 2.04237C17.4662 2.119 17.4518 2.19506 17.4227 2.26613C17.3937 2.33721 17.3506 2.40189 17.2961 2.45642C17.2415 2.51095 17.1765 2.55425 17.1048 2.5838C17.0332 2.61335 16.9563 2.62857 16.8786 2.62857C16.8009 2.62857 16.724 2.61335 16.6524 2.5838C16.5807 2.55425 16.5157 2.51095 16.4611 2.45642C16.4066 2.40189 16.3635 2.33721 16.3345 2.26613C16.3054 2.19506 16.291 2.119 16.292 2.04237C16.2939 1.89012 16.3566 1.74476 16.4664 1.63778C16.5762 1.53079 16.7243 1.47081 16.8786 1.47081C17.0329 1.47081 17.181 1.53079 17.2908 1.63778C17.4006 1.74476 17.4633 1.89012 17.4652 2.04237Z" fill="white"/>
<path d="M23.7972 9.67758L20.7152 4.41012C20.4486 4.24879 20.1418 4.14648 19.8677 4.14648H15.6895L19.3023 10.4296L13.5824 20.4008C13.4565 20.6158 13.2413 20.8115 12.9941 20.9559H17.1978C17.7142 20.9559 18.3479 20.5948 18.6061 20.1537L23.7972 11.282C24.0555 10.8408 24.0555 10.1188 23.7972 9.67758Z" fill="#CC4232"/>
<path d="M20.8543 4.64646L20.7161 4.41012C20.4497 4.24879 20.143 4.14648 19.8688 4.14648H15.6906L16.7781 6.03788L20.8543 4.64646Z" fill="#B23F33"/>
<path d="M16.8786 19.4234C16.7106 19.4232 16.5496 19.3573 16.4308 19.2401C16.312 19.1229 16.2452 18.964 16.245 18.7982C16.2452 18.6325 16.312 18.4736 16.4308 18.3564C16.5496 18.2392 16.7106 18.1733 16.8786 18.1731C17.0466 18.1732 17.2076 18.2392 17.3264 18.3564C17.4452 18.4736 17.512 18.6325 17.5122 18.7982C17.5121 18.964 17.4453 19.1229 17.3265 19.2401C17.2077 19.3573 17.0466 19.4233 16.8786 19.4234ZM21.8095 11.0912C21.6415 11.091 21.4804 11.0251 21.3616 10.9079C21.2428 10.7906 21.176 10.6317 21.1758 10.466C21.176 10.3002 21.2428 10.1413 21.3616 10.0241C21.4804 9.90691 21.6415 9.84099 21.8095 9.84082C21.9774 9.84102 22.1385 9.90694 22.2572 10.0241C22.376 10.1413 22.4428 10.3002 22.443 10.466C22.4429 10.6317 22.3761 10.7906 22.2573 10.9079C22.1385 11.0251 21.9775 11.091 21.8095 11.0912Z" fill="white"/>
<path d="M8.361 16.7148L2.56191 6.93168C2.41228 6.67601 2.35003 6.32616 2.37375 5.99121L0.216285 9.67836C-0.0419028 10.1196 -0.0419028 10.8416 0.216285 11.2828L5.40741 20.1545C5.6655 20.5956 6.29925 20.9565 6.81563 20.9565H12.9941C13.2413 20.8122 13.4565 20.6166 13.5824 20.4015L15.6973 16.7147H8.361" fill="#ECB02A"/>
<path d="M12.6429 20.9567H13.0022C13.2494 20.8124 13.4646 20.6168 13.5904 20.4017L15.7054 16.7148H13.4531L12.6429 20.9567Z" fill="#C79732"/>
<path d="M7.0832 19.4244C6.91521 19.4242 6.75416 19.3583 6.63539 19.2411C6.51661 19.1239 6.44981 18.9649 6.44964 18.7992C6.44983 18.6335 6.51665 18.4746 6.63542 18.3574C6.75419 18.2402 6.91523 18.1743 7.0832 18.1741C7.25119 18.1742 7.41227 18.2401 7.53106 18.3573C7.64986 18.4745 7.71668 18.6334 7.71686 18.7992C7.71671 18.965 7.6499 19.1239 7.5311 19.2411C7.4123 19.3583 7.25121 19.4243 7.0832 19.4244ZM2.1436 11.0922C1.9756 11.092 1.81453 11.0261 1.69573 10.9088C1.57694 10.7916 1.51012 10.6327 1.50995 10.4669C1.51015 10.3012 1.57697 10.1423 1.69577 10.0251C1.81456 9.90788 1.97562 9.84197 2.1436 9.8418C2.31158 9.84199 2.47261 9.90792 2.59138 10.0251C2.71016 10.1423 2.77697 10.3012 2.77717 10.4669C2.77699 10.6327 2.71019 10.7916 2.59142 10.9088C2.47264 11.026 2.31159 11.092 2.1436 11.0922Z" fill="white"/>
</g>
<defs>
<clipPath id="clip0_374_2552">
<rect width="24" height="21" fill="white"/>
</clipPath>
</defs>
</svg>
