<svg width="24" height="24" viewBox="0 0 24 24" fill="none" xmlns="http://www.w3.org/2000/svg">
<path d="M5.43 21.8239L0.20925 12.7811C-0.06975 12.2981 -0.06975 11.7026 0.20925 11.2196L5.43 2.17723C5.70862 1.69461 6.22312 1.39723 6.78 1.39648H17.2264C17.7814 1.39911 18.2932 1.69648 18.5707 2.17723L23.7908 11.2196C24.0697 11.7026 24.0697 12.2981 23.7908 12.7811L18.57 21.8239C18.2914 22.3065 17.7769 22.6039 17.22 22.6046H6.77625C6.22012 22.6027 5.7075 22.3054 5.42887 21.8239H5.43Z" fill="#4386FA"/>
<path opacity="0.1" d="M15.2614 9.08813C15.2614 9.08813 16.7126 12.5693 14.7341 14.5425C12.7556 16.5158 9.15302 15.2528 9.15302 15.2528L16.4813 22.6013H17.2253C17.7825 22.6005 18.297 22.3028 18.5753 21.8205L22.0313 15.8363L15.2614 9.08813Z" fill="black"/>
<path d="M16.9752 16.211L15.375 14.6071C15.3576 14.5892 15.3377 14.5741 15.3158 14.5621C15.9964 13.6854 16.3172 12.5822 16.2127 11.4772C16.1083 10.3723 15.5865 9.34868 14.7537 8.61503C13.9208 7.88138 12.8396 7.49287 11.7303 7.52863C10.621 7.5644 9.56702 8.02177 8.78318 8.80754C7.99933 9.59332 7.54456 10.6484 7.51152 11.7578C7.47848 12.8672 7.86965 13.9474 8.60534 14.7785C9.34103 15.6095 10.3659 16.1288 11.4711 16.2305C12.5763 16.3322 13.6788 16.0088 14.5538 15.326C14.5652 15.3466 14.5795 15.3656 14.5962 15.3822L16.2 16.9861C16.2471 17.0332 16.311 17.0596 16.3776 17.0596C16.4442 17.0596 16.508 17.0332 16.5552 16.9861L16.9752 16.5661C17.0222 16.519 17.0486 16.4551 17.0486 16.3885C17.0486 16.322 17.0222 16.2581 16.9752 16.211ZM11.865 15.1737C11.216 15.1738 10.5816 14.9814 10.0419 14.6209C9.50227 14.2604 9.08164 13.7479 8.83325 13.1483C8.58485 12.5487 8.51984 11.889 8.64643 11.2524C8.77303 10.6159 9.08555 10.0312 9.54446 9.57228C10.0034 9.11337 10.5881 8.80085 11.2246 8.67426C11.8611 8.54766 12.5209 8.61267 13.1205 8.86107C13.7201 9.10947 14.2325 9.53009 14.5931 10.0697C14.9536 10.6094 15.146 11.2439 15.1459 11.8929C15.1458 12.763 14.8001 13.5974 14.1848 14.2127C13.5696 14.8279 12.7351 15.1736 11.865 15.1737ZM9.76765 11.7177V13.0737C9.97653 13.4424 10.2788 13.7499 10.6444 13.9644V11.7095L9.76765 11.7177ZM11.4083 10.5935V14.258C11.6981 14.3114 11.9952 14.3114 12.285 14.258V10.5935H11.4083ZM13.9448 13.0707V12.2675H13.0688V13.955C13.4339 13.741 13.7363 13.4348 13.9455 13.067L13.9448 13.0707Z" fill="white"/>
</svg>
