<svg width="23" height="24" viewBox="0 0 23 24" fill="none" xmlns="http://www.w3.org/2000/svg">
<g clip-path="url(#clip0_374_2594)">
<path d="M22.7184 11.3361L12.3632 1.13139L11.3597 0.142578L3.56456 7.82443L1.16229e-06 11.3361C-0.178047 11.5125 -0.277996 11.7511 -0.277996 11.9999C-0.277996 12.2487 -0.178047 12.4873 1.16229e-06 12.6637L7.1216 19.6818L11.3597 23.8572L19.1539 16.1754L19.2753 16.0568L22.7184 12.669C22.8076 12.5817 22.8785 12.4779 22.9268 12.3635C22.9751 12.2491 23 12.1265 23 12.0026C23 11.8787 22.9751 11.756 22.9268 11.6416C22.8785 11.5272 22.8076 11.4234 22.7184 11.3361ZM11.3597 15.5063L7.80164 11.9999L11.3597 8.49352L14.9168 11.9999L11.3597 15.5063Z" fill="#2684FF"/>
<path d="M11.3598 8.49326C10.2407 7.39076 9.60991 5.89666 9.60508 4.33732C9.60025 2.77798 10.2218 1.28011 11.334 0.170898L3.54845 7.84005L7.78552 12.0155L11.3598 8.49326Z" fill="url(#paint0_linear_374_2594)"/>
<path d="M14.9265 11.9905L11.3597 15.5064C12.483 16.6136 13.114 18.1152 13.114 19.6808C13.114 21.2464 12.483 22.748 11.3597 23.8552L19.1668 16.166L14.9265 11.9905Z" fill="url(#paint1_linear_374_2594)"/>
</g>
<defs>
<linearGradient id="paint0_linear_374_2594" x1="10.7227" y1="4.94559" x2="5.82675" y2="9.91268" gradientUnits="userSpaceOnUse">
<stop offset="0.18" stop-color="#0052CC"/>
<stop offset="1" stop-color="#2684FF"/>
</linearGradient>
<linearGradient id="paint1_linear_374_2594" x1="12.0387" y1="19.0117" x2="16.9251" y2="14.0543" gradientUnits="userSpaceOnUse">
<stop offset="0.18" stop-color="#0052CC"/>
<stop offset="1" stop-color="#2684FF"/>
</linearGradient>
<clipPath id="clip0_374_2594">
<rect width="23" height="24" fill="white"/>
</clipPath>
</defs>
</svg>
