<svg width="24" height="24" viewBox="0 0 24 24" fill="none" xmlns="http://www.w3.org/2000/svg">
<g clip-path="url(#clip0_513_9092)">
<path d="M10.5 20.2499C8.98346 20.2505 7.48396 19.9301 6.10002 19.3099C6.06296 19.2907 6.02179 19.2806 5.98002 19.2806C5.93824 19.2806 5.89708 19.2907 5.86002 19.3099C5.82574 19.3331 5.79774 19.3644 5.77854 19.4011C5.75934 19.4377 5.74954 19.4786 5.75002 19.5199V21.5199C5.75002 21.6525 5.80269 21.7797 5.89646 21.8735C5.99023 21.9673 6.11741 22.0199 6.25002 22.0199H7.50002C7.56632 22.0199 7.62991 22.0463 7.67679 22.0932C7.72368 22.14 7.75002 22.2036 7.75002 22.2699V23.4999C7.75002 23.6325 7.8027 23.7597 7.89646 23.8535C7.99023 23.9473 8.11741 23.9999 8.25002 23.9999H13.25C13.3826 23.9999 13.5098 23.9473 13.6036 23.8535C13.6973 23.7597 13.75 23.6325 13.75 23.4999V22.2499C13.75 22.1836 13.7764 22.12 13.8232 22.0732C13.8701 22.0263 13.9337 21.9999 14 21.9999H15.25C15.3826 21.9999 15.5098 21.9473 15.6036 21.8535C15.6973 21.7597 15.75 21.6325 15.75 21.4999V19.2999C15.7504 19.2574 15.7395 19.2156 15.7184 19.1787C15.6973 19.1418 15.6668 19.1112 15.63 19.0899C15.5939 19.0678 15.5524 19.0562 15.51 19.0562C15.4677 19.0562 15.4261 19.0678 15.39 19.0899C13.8752 19.8593 12.199 20.257 10.5 20.2499Z" fill="#7632F9"/>
<path d="M22.31 18.94L18.18 14.81C18.1407 14.766 18.1189 14.709 18.1189 14.65C18.1189 14.591 18.1407 14.534 18.18 14.49C19.4837 12.5857 20.0293 10.2633 19.71 7.97773C19.3907 5.69217 18.2294 3.6082 16.4538 2.13415C14.6781 0.660099 12.416 -0.0978032 10.1107 0.0089424C7.80545 0.115688 5.62309 1.07939 3.99125 2.71122C2.35942 4.34306 1.39572 6.52542 1.28897 8.83071C1.18223 11.136 1.94013 13.3981 3.41418 15.1737C4.88823 16.9494 6.9722 18.1106 9.25776 18.43C11.5433 18.7493 13.8658 18.2037 15.77 16.9C15.814 16.8606 15.871 16.8389 15.93 16.8389C15.9891 16.8389 16.046 16.8606 16.09 16.9L20.22 21.03C20.5013 21.3109 20.8825 21.4687 21.28 21.4687C21.6775 21.4687 22.0588 21.3109 22.34 21.03C22.6103 20.7474 22.7586 20.3699 22.753 19.9789C22.7474 19.5879 22.5883 19.2148 22.31 18.94ZM8.52004 7.57001C8.53065 7.53181 8.55096 7.497 8.579 7.46897C8.60703 7.44094 8.64184 7.42062 8.68004 7.41001C8.71227 7.3925 8.74836 7.38333 8.78504 7.38333C8.82171 7.38333 8.85781 7.3925 8.89004 7.41001C9.74711 7.94725 10.7385 8.23149 11.75 8.23001C12.0856 8.2247 12.4201 8.19125 12.75 8.13001C12.764 8.12297 12.7794 8.11931 12.795 8.11931C12.8107 8.11931 12.8261 8.12297 12.84 8.13001C12.8492 8.15589 12.8492 8.18412 12.84 8.21001C12.84 8.80674 12.603 9.37904 12.181 9.801C11.7591 10.223 11.1868 10.46 10.59 10.46C9.9933 10.46 9.421 10.223 8.99905 9.801C8.57709 9.37904 8.34004 8.80674 8.34004 8.21001C8.36727 7.98879 8.42796 7.77299 8.52004 7.57001ZM3.25004 9.26001C3.24949 8.05748 3.54766 6.87365 4.11777 5.81485C4.68787 4.75605 5.51205 3.85544 6.51628 3.19393C7.5205 2.53241 8.67332 2.1307 9.87119 2.02489C11.0691 1.91907 12.2744 2.11246 13.3791 2.58768C14.4837 3.0629 15.453 3.80508 16.1999 4.74753C16.9468 5.68999 17.4479 6.80322 17.6582 7.98722C17.8685 9.17122 17.7813 10.3889 17.4046 11.5309C17.028 12.6729 16.3735 13.7035 15.5 14.53C15.4773 14.5541 15.449 14.5722 15.4176 14.5827C15.3862 14.5932 15.3527 14.5957 15.32 14.59C15.2878 14.5856 15.2569 14.5744 15.2293 14.5572C15.2017 14.5399 15.1781 14.517 15.16 14.49C14.5753 13.5725 13.7288 12.8515 12.73 12.42C12.6878 12.3995 12.6521 12.3676 12.6272 12.3278C12.6022 12.288 12.589 12.242 12.589 12.195C12.589 12.148 12.6022 12.102 12.6272 12.0622C12.6521 12.0224 12.6878 11.9905 12.73 11.97C13.5552 11.5171 14.2062 10.8026 14.5804 9.93899C14.9547 9.07537 15.031 8.11177 14.7972 7.20003C14.5634 6.28829 14.033 5.48024 13.2894 4.90322C12.5457 4.3262 11.6313 4.01302 10.69 4.01302C9.74881 4.01302 8.83433 4.3262 8.09072 4.90322C7.3471 5.48024 6.81662 6.28829 6.58287 7.20003C6.34912 8.11177 6.42538 9.07537 6.79965 9.93899C7.17392 10.8026 7.82491 11.5171 8.65003 11.97C8.69183 11.9914 8.72642 12.0246 8.74953 12.0655C8.77264 12.1064 8.78325 12.1532 8.78004 12.2C8.77745 12.2482 8.76097 12.2946 8.73258 12.3337C8.70419 12.3727 8.6651 12.4027 8.62004 12.42C7.54368 12.8196 6.65319 13.6032 6.12004 14.62C6.10436 14.6538 6.08069 14.6833 6.05108 14.706C6.02146 14.7286 5.98679 14.7437 5.95004 14.75C5.91579 14.7668 5.87817 14.7755 5.84004 14.7755C5.8019 14.7755 5.76428 14.7668 5.73004 14.75C4.94779 14.0657 4.32158 13.2215 3.89373 12.2744C3.46588 11.3272 3.24637 10.2993 3.25004 9.26001Z" fill="#7632F9"/>
</g>
<defs>
<clipPath id="clip0_513_9092">
<rect width="24" height="24" fill="white"/>
</clipPath>
</defs>
</svg>
