<svg width="24" height="23" viewBox="0 0 24 23" fill="none" xmlns="http://www.w3.org/2000/svg">
<path d="M7.96 5.15961L8.3 13.6346L14.42 5.81961C14.615 5.57461 14.97 5.52961 15.215 5.72961L19.035 8.79461L17.79 3.34961L7.96 5.15961Z" fill="#4279F4"/>
<path d="M8.50999 15.1896H13.94L10.61 12.5146L8.50999 15.1896Z" fill="#0028AA"/>
<path d="M14.955 6.96497L11.305 11.625L15.195 14.745L18.885 10.115L14.955 6.96497Z" fill="#014BD1"/>
<path d="M6.935 4.34055L10.145 0.310547L4.965 2.80555L3.685 8.41055L6.935 4.34055Z" fill="#BEDCFF"/>
<path d="M3.76 10.1303L7.2 14.4453L6.87 6.23035L3.76 10.1303Z" fill="#6CA1FF"/>
<path d="M16.795 2.385L11.845 0L8.76 3.865L16.795 2.385Z" fill="#A1C3FF"/>
<path d="M0.130005 22.5807V18.8657H0.605005V20.8107L2.305 18.8657H2.83501L1.39001 20.5007L2.96501 22.5807H2.405L1.09501 20.8507L0.610005 21.4007V22.5757H0.130005V22.5807ZM3.455 21.7657V19.9207H3.905V21.7807C3.9 21.9257 3.97501 22.0557 4.10001 22.1307C4.38001 22.2957 4.73001 22.2957 5.01501 22.1307C5.14001 22.0607 5.21501 21.9257 5.21001 21.7807V19.9207H5.66001V21.7607C5.67001 22.0207 5.54001 22.2707 5.32001 22.4157C4.86001 22.7307 4.255 22.7307 3.79501 22.4157C3.57501 22.2757 3.445 22.0257 3.455 21.7657ZM6.43001 22.5807V18.5957H6.88V19.9907C7.13 19.9007 7.39001 19.8507 7.655 19.8457C7.835 19.8407 8.01001 19.8807 8.17001 19.9607C8.31001 20.0307 8.43001 20.1407 8.51501 20.2707C8.60001 20.4007 8.66 20.5407 8.7 20.6907C8.74 20.8407 8.76 20.9957 8.76 21.1557C8.76 21.6207 8.64001 21.9757 8.39501 22.2157C8.15501 22.4557 7.77 22.5757 7.25 22.5757H6.43001V22.5807ZM6.88 22.1757H7.255C7.63 22.1757 7.90001 22.0957 8.06001 21.9307C8.22501 21.7657 8.30501 21.5057 8.31001 21.1407C8.31501 20.9207 8.25501 20.7057 8.14501 20.5157C8.04001 20.3407 7.85001 20.2357 7.64501 20.2507C7.38501 20.2457 7.12 20.2857 6.875 20.3807L6.88 22.1757ZM9.325 21.2457C9.325 20.8207 9.44001 20.4807 9.66501 20.2257C9.89001 19.9707 10.22 19.8307 10.56 19.8457C11.3 19.8457 11.67 20.3657 11.67 21.4107H9.775C9.79 21.6257 9.87501 21.8307 10.015 21.9957C10.16 22.1657 10.375 22.2557 10.67 22.2507C10.97 22.2607 11.27 22.2007 11.545 22.0857V22.5007C11.285 22.6007 11.005 22.6557 10.725 22.6557C10.505 22.6607 10.29 22.6207 10.085 22.5407C9.91501 22.4757 9.76501 22.3657 9.64501 22.2307C9.53501 22.1007 9.45001 21.9457 9.39501 21.7857C9.35001 21.6107 9.325 21.4307 9.325 21.2457ZM9.79501 21.0707H11.23C11.215 20.8607 11.15 20.6557 11.035 20.4807C10.93 20.3307 10.755 20.2407 10.57 20.2507C10.375 20.2457 10.185 20.3307 10.055 20.4757C9.90001 20.6407 9.81001 20.8507 9.79501 21.0707Z" fill="#4279F4"/>
<mask id="mask0_374_2363" style="mask-type:luminance" maskUnits="userSpaceOnUse" x="0" y="0" width="24" height="23">
<path d="M23.02 0.00195312H0V22.802H23.02V0.00195312Z" fill="white"/>
</mask>
<g mask="url(#mask0_374_2363)">
<path d="M0.130005 22.5807V18.8657H0.605005V20.8107L2.305 18.8657H2.83501L1.39001 20.5007L2.96501 22.5807H2.405L1.09501 20.8507L0.610005 21.4007V22.5757H0.130005V22.5807ZM3.455 21.7657V19.9207H3.905V21.7807C3.9 21.9257 3.97501 22.0557 4.10001 22.1307C4.38001 22.2957 4.73001 22.2957 5.01501 22.1307C5.14001 22.0607 5.21501 21.9257 5.21001 21.7807V19.9207H5.66001V21.7607C5.67001 22.0207 5.54001 22.2707 5.32001 22.4157C4.86001 22.7307 4.25501 22.7307 3.79501 22.4157C3.57501 22.2757 3.445 22.0257 3.455 21.7657ZM6.43 22.5807V18.5957H6.88V19.9907C7.13 19.9007 7.39 19.8507 7.655 19.8457C7.835 19.8407 8.01001 19.8807 8.17001 19.9607C8.31001 20.0307 8.43001 20.1407 8.51501 20.2707C8.60001 20.4007 8.66 20.5407 8.7 20.6907C8.74 20.8407 8.76001 20.9957 8.76001 21.1557C8.76001 21.6207 8.64001 21.9757 8.39501 22.2157C8.15501 22.4557 7.77 22.5757 7.25 22.5757H6.43V22.5807ZM6.88 22.1757H7.255C7.63 22.1757 7.90001 22.0957 8.06001 21.9307C8.22501 21.7657 8.30501 21.5057 8.31001 21.1407C8.31501 20.9207 8.25501 20.7057 8.14501 20.5157C8.04001 20.3407 7.85001 20.2357 7.64501 20.2507C7.38501 20.2457 7.12 20.2857 6.875 20.3807L6.88 22.1757ZM9.325 21.2457C9.325 20.8207 9.44001 20.4807 9.66501 20.2257C9.89001 19.9707 10.22 19.8307 10.56 19.8457C11.3 19.8457 11.67 20.3657 11.67 21.4107H9.775C9.79 21.6257 9.87501 21.8307 10.015 21.9957C10.16 22.1657 10.375 22.2557 10.67 22.2507C10.97 22.2607 11.27 22.2007 11.545 22.0857V22.5007C11.285 22.6007 11.005 22.6557 10.725 22.6557C10.505 22.6607 10.29 22.6207 10.085 22.5407C9.91501 22.4757 9.76501 22.3657 9.64501 22.2307C9.53501 22.1007 9.45001 21.9457 9.39501 21.7857C9.35001 21.6107 9.325 21.4307 9.325 21.2457ZM9.79501 21.0707H11.23C11.215 20.8607 11.15 20.6557 11.035 20.4807C10.93 20.3307 10.755 20.2407 10.57 20.2507C10.375 20.2457 10.185 20.3307 10.055 20.4757C9.90001 20.6407 9.81001 20.8507 9.79501 21.0707Z" stroke="#4279F4" stroke-width="0.212504" stroke-miterlimit="10"/>
</g>
<path d="M12.23 20.3307V19.9257H12.645V19.2957C12.635 19.1107 12.705 18.9257 12.835 18.7957C12.96 18.6707 13.13 18.6007 13.305 18.6057H13.96V19.0157H13.545C13.36 19.0157 13.24 19.0507 13.18 19.1257C13.12 19.2007 13.09 19.3357 13.09 19.5407V19.9257H13.79V20.3307H13.09V22.5807H12.64V20.3307H12.23ZM14.55 22.5807V18.5957H15V22.5807H14.55ZM16.135 22.2507C15.62 21.7607 15.525 20.9757 15.905 20.3757C16.29 19.7757 17.04 19.5357 17.7 19.7957C18.36 20.0557 18.74 20.7507 18.61 21.4507C18.475 22.1507 17.87 22.6557 17.155 22.6557C16.78 22.6707 16.405 22.5257 16.135 22.2507ZM16.455 20.5357C16.1 20.9457 16.1 21.5557 16.455 21.9657C16.845 22.3507 17.475 22.3507 17.865 21.9657C18.22 21.5557 18.22 20.9457 17.865 20.5357C17.475 20.1507 16.845 20.1507 16.455 20.5357ZM18.965 19.9207H19.44L20.045 22.0207L20.66 19.9207H21.105L21.715 22.0257L22.325 19.9207H22.8L21.965 22.5757H21.455L20.89 20.5357L20.33 22.5757H19.795L18.965 19.9207Z" fill="#0028AA"/>
<mask id="mask1_374_2363" style="mask-type:luminance" maskUnits="userSpaceOnUse" x="0" y="0" width="24" height="23">
<path d="M23.02 0.00195312H0V22.802H23.02V0.00195312Z" fill="white"/>
</mask>
<g mask="url(#mask1_374_2363)">
<path d="M12.23 20.3307V19.9257H12.645V19.2957C12.635 19.1107 12.705 18.9257 12.835 18.7957C12.96 18.6707 13.13 18.6007 13.305 18.6057H13.96V19.0157H13.545C13.36 19.0157 13.24 19.0507 13.18 19.1257C13.12 19.2007 13.09 19.3357 13.09 19.5407V19.9257H13.79V20.3307H13.09V22.5807H12.64V20.3307H12.23ZM14.55 22.5807V18.5957H15V22.5807H14.55ZM16.135 22.2507C15.62 21.7607 15.525 20.9757 15.905 20.3757C16.29 19.7757 17.04 19.5357 17.7 19.7957C18.36 20.0557 18.74 20.7507 18.61 21.4507C18.475 22.1507 17.87 22.6557 17.155 22.6557C16.78 22.6707 16.405 22.5257 16.135 22.2507ZM16.455 20.5357C16.1 20.9457 16.1 21.5557 16.455 21.9657C16.845 22.3507 17.475 22.3507 17.865 21.9657C18.22 21.5557 18.22 20.9457 17.865 20.5357C17.475 20.1507 16.845 20.1507 16.455 20.5357ZM18.965 19.9207H19.44L20.045 22.0207L20.66 19.9207H21.105L21.715 22.0257L22.325 19.9207H22.8L21.965 22.5757H21.455L20.89 20.5357L20.33 22.5757H19.795L18.965 19.9207Z" stroke="#0028AA" stroke-width="0.212504" stroke-miterlimit="10"/>
</g>
</svg>
