<svg width="16" height="16" viewBox="0 0 16 16" fill="none" xmlns="http://www.w3.org/2000/svg">
<path fill-rule="evenodd" clip-rule="evenodd" d="M12 2C12.5304 2 13.0391 2.21071 13.4142 2.58579C13.7893 2.96086 14 3.46957 14 4V12C14 12.5304 13.7893 13.0391 13.4142 13.4142C13.0391 13.7893 12.5304 14 12 14H4C3.46957 14 2.96086 13.7893 2.58579 13.4142C2.21071 13.0391 2 12.5304 2 12V4C2 3.46957 2.21071 2.96086 2.58579 2.58579C2.96086 2.21071 3.46957 2 4 2H12ZM5.33333 6.66667C5.15652 6.66667 4.98695 6.7369 4.86193 6.86193C4.7369 6.98695 4.66667 7.15652 4.66667 7.33333V10.6667C4.66667 10.8435 4.7369 11.013 4.86193 11.1381C4.98695 11.2631 5.15652 11.3333 5.33333 11.3333C5.51014 11.3333 5.67971 11.2631 5.80474 11.1381C5.92976 11.013 6 10.8435 6 10.6667V7.33333C6 7.15652 5.92976 6.98695 5.80474 6.86193C5.67971 6.7369 5.51014 6.66667 5.33333 6.66667ZM7.33333 6C7.15652 6 6.98695 6.07024 6.86193 6.19526C6.7369 6.32029 6.66667 6.48986 6.66667 6.66667V10.6667C6.66667 10.8435 6.7369 11.013 6.86193 11.1381C6.98695 11.2631 7.15652 11.3333 7.33333 11.3333C7.51014 11.3333 7.67971 11.2631 7.80474 11.1381C7.92976 11.013 8 10.8435 8 10.6667V8.22667C8.20333 7.99733 8.54667 7.728 8.92867 7.56467C9.15067 7.47 9.48467 7.43133 9.71667 7.50467C9.79363 7.52419 9.86218 7.56817 9.912 7.63C9.94667 7.67667 10 7.78067 10 8V10.6667C10 10.8435 10.0702 11.013 10.1953 11.1381C10.3203 11.2631 10.4899 11.3333 10.6667 11.3333C10.8435 11.3333 11.013 11.2631 11.1381 11.1381C11.2631 11.013 11.3333 10.8435 11.3333 10.6667V8C11.3333 7.55333 11.22 7.156 10.984 6.83733C10.7668 6.54837 10.4629 6.33648 10.1167 6.23267C9.51533 6.044 8.84933 6.14867 8.40467 6.33933C8.26231 6.40056 8.12363 6.47001 7.98933 6.54733C7.96139 6.39373 7.88041 6.2548 7.76053 6.15478C7.64065 6.05475 7.48946 5.99998 7.33333 6ZM5.33333 4.66667C5.15652 4.66667 4.98695 4.7369 4.86193 4.86193C4.7369 4.98695 4.66667 5.15652 4.66667 5.33333C4.66667 5.51014 4.7369 5.67971 4.86193 5.80474C4.98695 5.92976 5.15652 6 5.33333 6C5.51014 6 5.67971 5.92976 5.80474 5.80474C5.92976 5.67971 6 5.51014 6 5.33333C6 5.15652 5.92976 4.98695 5.80474 4.86193C5.67971 4.7369 5.51014 4.66667 5.33333 4.66667Z" fill="#7632F9"/>
</svg>
