<svg width="16" height="16" viewBox="0 0 16 16" fill="none" xmlns="http://www.w3.org/2000/svg">
<path d="M8 1.33301C9.5913 1.33301 11.1174 1.96515 12.2426 3.09037C13.3679 4.21558 14 5.74171 14 7.33301C14 9.38234 12.8827 11.0597 11.7053 12.263C11.1171 12.8577 10.4753 13.3969 9.788 13.8737L9.504 14.067L9.37067 14.1557L9.11933 14.3157L8.89533 14.4523L8.618 14.6137C8.42976 14.7211 8.21675 14.7776 8 14.7776C7.78325 14.7776 7.57024 14.7211 7.382 14.6137L7.10467 14.4523L6.758 14.239L6.63 14.1557L6.35667 13.9737C5.61522 13.472 4.9246 12.8991 4.29467 12.263C3.11733 11.059 2 9.38234 2 7.33301C2 5.74171 2.63214 4.21558 3.75736 3.09037C4.88258 1.96515 6.4087 1.33301 8 1.33301ZM8 5.33301C7.73736 5.33301 7.47728 5.38474 7.23463 5.48525C6.99198 5.58576 6.7715 5.73308 6.58579 5.91879C6.40007 6.10451 6.25275 6.32499 6.15224 6.56764C6.05173 6.81029 6 7.07036 6 7.33301C6 7.59565 6.05173 7.85572 6.15224 8.09837C6.25275 8.34103 6.40007 8.5615 6.58579 8.74722C6.7715 8.93294 6.99198 9.08026 7.23463 9.18077C7.47728 9.28128 7.73736 9.33301 8 9.33301C8.53043 9.33301 9.03914 9.12229 9.41421 8.74722C9.78929 8.37215 10 7.86344 10 7.33301C10 6.80257 9.78929 6.29387 9.41421 5.91879C9.03914 5.54372 8.53043 5.33301 8 5.33301Z" fill="#7632F9"/>
</svg>
