<svg width="24" height="9" viewBox="0 0 24 9" fill="none" xmlns="http://www.w3.org/2000/svg">
<g clip-path="url(#clip0_374_2463)">
<path d="M0.801563 7.08687V2.00122H0V7.11426C0 8.31909 0.791625 8.9726 1.94658 8.84284V8.10831C1.33617 8.13575 0.801609 7.92336 0.801609 7.08682L0.801563 7.08687ZM4.35309 8.20884C3.44648 8.20884 2.7008 7.43677 2.7008 6.48971C2.7008 5.52337 3.44648 4.73199 4.35314 4.73199C5.26814 4.73199 6.01233 5.52337 6.01233 6.48971C6.01233 7.43677 5.26809 8.20884 4.35309 8.20884ZM4.35309 3.98762C2.95959 3.98762 1.88039 5.10969 1.88039 6.48971C1.88039 7.85063 2.95959 8.96275 4.35309 8.96275C5.75527 8.96275 6.82402 7.85053 6.82402 6.48971C6.82402 5.10969 5.75527 3.98762 4.35309 3.98762ZM16.6252 4.10745H15.4326L13.1901 6.23207V2.00122H12.3784V8.84311H13.1901V7.31712L14.1341 6.43313L15.8133 8.84315H16.7962L14.7258 5.88177L16.6252 4.10745ZM17.1022 5.98356C17.3121 5.1745 18.0276 4.69623 18.7057 4.69623C19.4211 4.69623 20.0891 5.21062 20.29 5.98356H17.1022ZM18.7056 3.98758C17.3408 3.98758 16.2344 5.10964 16.2344 6.48009C16.2344 7.86835 17.3407 8.95335 18.7527 8.95335C19.8892 8.95335 20.7283 8.38373 21.0716 7.37199H20.2124C19.9452 7.92318 19.4498 8.24613 18.7527 8.24613C17.9426 8.24613 17.1595 7.66553 17.0546 6.68263H21.1865C21.1967 4.99958 19.9741 3.98758 18.7056 3.98758ZM22.389 4.64109V4.10763H21.6062V8.84293H22.4177V6.10244C22.4177 5.15539 23.1432 4.72381 23.9922 4.76937V3.99734C23.4292 3.9323 22.7611 4.13506 22.389 4.64109Z" fill="#3E4345"/>
<path d="M9.52508 3.98744C9.16156 3.98744 8.82087 4.06444 8.51502 4.20244L9.03369 4.81318C9.19152 4.7596 9.35766 4.73208 9.52508 4.73176C10.4401 4.73176 11.1858 5.52319 11.1858 6.48953C11.1858 7.43658 10.4401 8.20866 9.52508 8.20866C8.61847 8.20866 7.87419 7.43658 7.87419 6.48953C7.87419 5.90898 8.14297 5.39499 8.55387 5.07388L8.04678 4.47826C7.44036 4.93462 7.05387 5.66501 7.05387 6.48953C7.05387 7.85044 8.13148 8.96257 9.52512 8.96257C10.9272 8.96257 11.996 7.85035 11.996 6.48953C11.996 5.10951 10.9272 3.98744 9.52508 3.98744ZM8.15745 3.11618C8.15745 3.31049 8.07261 3.48699 7.93611 3.61109L8.28805 4.02594C8.54811 3.80262 8.7132 3.47737 8.7132 3.11609C8.7132 2.84873 8.62297 2.60179 8.47198 2.40055L8.04809 2.7522C8.1196 2.8612 8.15751 2.98738 8.15745 3.11618ZM7.44631 3.80136C7.05397 3.80136 6.73512 3.49387 6.73512 3.11618C6.73512 2.73857 7.05402 2.431 7.44631 2.431C7.58412 2.431 7.71341 2.46977 7.82272 2.53571L8.25491 2.17745C8.03539 2.00095 7.75358 1.89498 7.44631 1.89498C6.74642 1.89498 6.17773 2.4422 6.17773 3.11618C6.17773 3.79043 6.74652 4.3377 7.44631 4.3377C7.62158 4.3377 7.78958 4.30324 7.94333 4.23964L7.56261 3.79164C7.52375 3.79722 7.48503 3.80136 7.44631 3.80136ZM9.66584 0.86777C9.96022 0.86777 10.1988 1.09798 10.1988 1.3818C10.1988 1.66607 9.96022 1.8961 9.66584 1.8961C9.51209 1.8961 9.37409 1.83286 9.27631 1.73084L8.96066 1.99411C9.13442 2.17997 9.38581 2.2988 9.66584 2.2988C10.1904 2.2988 10.6169 1.88791 10.6169 1.3818C10.6169 0.877441 10.1905 0.465201 9.66584 0.465201C9.35694 0.465201 9.0837 0.608686 8.91003 0.829268L9.32253 0.99196C9.41581 0.915854 9.53506 0.86777 9.66584 0.86777ZM9.13278 1.38189C9.13278 1.29094 9.15866 1.20678 9.20183 1.13252L8.81244 0.979185C8.74841 1.10455 8.71506 1.24228 8.71494 1.38189C8.71494 1.539 8.75652 1.6864 8.82837 1.81482L9.16039 1.539C9.14408 1.48944 9.13278 1.4369 9.13278 1.38189ZM7.67328 1.22347C7.94633 1.22347 8.17766 1.05525 8.26648 0.819552L8.00933 0.718932C7.96212 0.855311 7.82975 0.955841 7.67328 0.955841C7.47627 0.955841 7.31703 0.80147 7.31703 0.612824C7.31703 0.423954 7.47617 0.270933 7.67328 0.270933C7.86716 0.270933 8.02522 0.421075 8.02812 0.608551L8.29531 0.71322C8.30122 0.680294 8.30656 0.647099 8.30656 0.612824C8.30666 0.27642 8.02217 0.00195312 7.67328 0.00195312C7.32275 0.00195312 7.03812 0.27642 7.03812 0.612779C7.03812 0.950218 7.32266 1.22347 7.67328 1.22347Z" fill="#652B81"/>
</g>
<defs>
<clipPath id="clip0_374_2463">
<rect width="24" height="9" fill="white"/>
</clipPath>
</defs>
</svg>
