<svg width="16" height="16" viewBox="0 0 16 16" fill="none" xmlns="http://www.w3.org/2000/svg">
<path d="M2.66671 13.3337C2.30004 13.3337 1.98626 13.2032 1.72537 12.9423C1.46449 12.6814 1.33382 12.3674 1.33337 12.0003V4.00033C1.33337 3.63366 1.46404 3.31988 1.72537 3.05899C1.98671 2.7981 2.30049 2.66744 2.66671 2.66699H13.3334C13.7 2.66699 14.014 2.79766 14.2754 3.05899C14.5367 3.32033 14.6672 3.6341 14.6667 4.00033V12.0003C14.6667 12.367 14.5363 12.681 14.2754 12.9423C14.0145 13.2037 13.7005 13.3341 13.3334 13.3337H2.66671ZM8.00004 8.55033C8.0556 8.55033 8.11404 8.54188 8.17537 8.52499C8.23671 8.5081 8.29493 8.48321 8.35004 8.45033L13.0667 5.50033C13.1556 5.44477 13.2223 5.37544 13.2667 5.29233C13.3112 5.20921 13.3334 5.11744 13.3334 5.01699C13.3334 4.79477 13.2389 4.6281 13.05 4.51699C12.8612 4.40588 12.6667 4.41144 12.4667 4.53366L8.00004 7.33366L3.53337 4.53366C3.33337 4.41144 3.13893 4.40877 2.95004 4.52566C2.76115 4.64255 2.66671 4.80633 2.66671 5.01699C2.66671 5.1281 2.68893 5.22544 2.73337 5.30899C2.77782 5.39255 2.84449 5.45633 2.93337 5.50033L7.65004 8.45033C7.7056 8.48366 7.76404 8.50877 7.82537 8.52566C7.88671 8.54255 7.94493 8.55077 8.00004 8.55033Z" fill="#7632F9"/>
</svg>
