<svg width="19" height="24" viewBox="0 0 19 24" fill="none" xmlns="http://www.w3.org/2000/svg">
<g clip-path="url(#clip0_374_2491)">
<path d="M1.4394 7.59053C2.23436 7.59053 2.8788 6.93717 2.8788 6.1312C2.8788 5.32524 2.23436 4.67188 1.4394 4.67188C0.644441 4.67188 0 5.32524 0 6.1312C0 6.93717 0.644441 7.59053 1.4394 7.59053Z" fill="#509EE3"/>
<path d="M1.4394 11.6765C2.23436 11.6765 2.8788 11.0231 2.8788 10.2171C2.8788 9.41118 2.23436 8.75781 1.4394 8.75781C0.644441 8.75781 0 9.41118 0 10.2171C0 11.0231 0.644441 11.6765 1.4394 11.6765Z" fill="#509EE3"/>
<path opacity="0.2" d="M5.46967 7.59053C6.26463 7.59053 6.90907 6.93717 6.90907 6.1312C6.90907 5.32524 6.26463 4.67188 5.46967 4.67188C4.67471 4.67188 4.03027 5.32524 4.03027 6.1312C4.03027 6.93717 4.67471 7.59053 5.46967 7.59053Z" fill="#509EE3"/>
<path d="M5.46967 11.7163C6.26463 11.7163 6.90907 11.0629 6.90907 10.2569C6.90907 9.45097 6.26463 8.79761 5.46967 8.79761C4.67471 8.79761 4.03027 9.45097 4.03027 10.2569C4.03027 11.0629 4.67471 11.7163 5.46967 11.7163Z" fill="#509EE3"/>
<path opacity="0.2" d="M9.50001 7.59053C10.295 7.59053 10.9394 6.93717 10.9394 6.1312C10.9394 5.32524 10.295 4.67188 9.50001 4.67188C8.70505 4.67188 8.06061 5.32524 8.06061 6.1312C8.06061 6.93717 8.70505 7.59053 9.50001 7.59053Z" fill="#509EE3"/>
<path opacity="0.2" d="M9.50001 2.92061C10.295 2.92061 10.9394 2.26725 10.9394 1.46128C10.9394 0.655316 10.295 0.00195312 9.50001 0.00195312C8.70505 0.00195312 8.06061 0.655316 8.06061 1.46128C8.06061 2.26725 8.70505 2.92061 9.50001 2.92061Z" fill="#509EE3"/>
<path opacity="0.2" d="M9.50001 11.7163C10.295 11.7163 10.9394 11.0629 10.9394 10.2569C10.9394 9.45097 10.295 8.79761 9.50001 8.79761C8.70505 8.79761 8.06061 9.45097 8.06061 10.2569C8.06061 11.0629 8.70505 11.7163 9.50001 11.7163Z" fill="#509EE3"/>
<path opacity="0.2" d="M13.5303 7.59053C14.3252 7.59053 14.9697 6.93717 14.9697 6.1312C14.9697 5.32524 14.3252 4.67188 13.5303 4.67188C12.7353 4.67188 12.0909 5.32524 12.0909 6.1312C12.0909 6.93717 12.7353 7.59053 13.5303 7.59053Z" fill="#509EE3"/>
<path d="M17.5606 7.59053C18.3556 7.59053 19 6.93717 19 6.1312C19 5.32524 18.3556 4.67188 17.5606 4.67188C16.7657 4.67188 16.1212 5.32524 16.1212 6.1312C16.1212 6.93717 16.7657 7.59053 17.5606 7.59053Z" fill="#509EE3"/>
<path d="M13.5303 11.7163C14.3252 11.7163 14.9697 11.0629 14.9697 10.2569C14.9697 9.45097 14.3252 8.79761 13.5303 8.79761C12.7353 8.79761 12.0909 9.45097 12.0909 10.2569C12.0909 11.0629 12.7353 11.7163 13.5303 11.7163Z" fill="#509EE3"/>
<path d="M17.5606 11.7163C18.3556 11.7163 19 11.0629 19 10.2569C19 9.45097 18.3556 8.79761 17.5606 8.79761C16.7657 8.79761 16.1212 9.45097 16.1212 10.2569C16.1212 11.0629 16.7657 11.7163 17.5606 11.7163Z" fill="#509EE3"/>
<path d="M1.4394 15.7624C2.23436 15.7624 2.8788 15.109 2.8788 14.3031C2.8788 13.4971 2.23436 12.8438 1.4394 12.8438C0.644441 12.8438 0 13.4971 0 14.3031C0 15.109 0.644441 15.7624 1.4394 15.7624Z" fill="#509EE3"/>
<path opacity="0.2" d="M5.46967 15.8024C6.26463 15.8024 6.90907 15.1491 6.90907 14.3431C6.90907 13.5372 6.26463 12.8838 5.46967 12.8838C4.67471 12.8838 4.03027 13.5372 4.03027 14.3431C4.03027 15.1491 4.67471 15.8024 5.46967 15.8024Z" fill="#509EE3"/>
<path d="M9.50001 15.8024C10.295 15.8024 10.9394 15.1491 10.9394 14.3431C10.9394 13.5372 10.295 12.8838 9.50001 12.8838C8.70505 12.8838 8.06061 13.5372 8.06061 14.3431C8.06061 15.1491 8.70505 15.8024 9.50001 15.8024Z" fill="#509EE3"/>
<path opacity="0.2" d="M13.5303 15.8024C14.3252 15.8024 14.9697 15.1491 14.9697 14.3431C14.9697 13.5372 14.3252 12.8838 13.5303 12.8838C12.7353 12.8838 12.0909 13.5372 12.0909 14.3431C12.0909 15.1491 12.7353 15.8024 13.5303 15.8024Z" fill="#509EE3"/>
<path d="M17.5606 15.8024C18.3556 15.8024 19 15.1491 19 14.3431C19 13.5372 18.3556 12.8838 17.5606 12.8838C16.7657 12.8838 16.1212 13.5372 16.1212 14.3431C16.1212 15.1491 16.7657 15.8024 17.5606 15.8024Z" fill="#509EE3"/>
<path d="M1.4394 19.8483C2.23436 19.8483 2.8788 19.195 2.8788 18.389C2.8788 17.5831 2.23436 16.9297 1.4394 16.9297C0.644441 16.9297 0 17.5831 0 18.389C0 19.195 0.644441 19.8483 1.4394 19.8483Z" fill="#509EE3"/>
<path opacity="0.2" d="M5.46967 19.8884C6.26463 19.8884 6.90907 19.235 6.90907 18.4291C6.90907 17.6231 6.26463 16.9697 5.46967 16.9697C4.67471 16.9697 4.03027 17.6231 4.03027 18.4291C4.03027 19.235 4.67471 19.8884 5.46967 19.8884Z" fill="#509EE3"/>
<path opacity="0.2" d="M9.50001 19.8884C10.295 19.8884 10.9394 19.235 10.9394 18.4291C10.9394 17.6231 10.295 16.9697 9.50001 16.9697C8.70505 16.9697 8.06061 17.6231 8.06061 18.4291C8.06061 19.235 8.70505 19.8884 9.50001 19.8884Z" fill="#509EE3"/>
<path opacity="0.2" d="M9.50001 23.9743C10.295 23.9743 10.9394 23.321 10.9394 22.515C10.9394 21.709 10.295 21.0557 9.50001 21.0557C8.70505 21.0557 8.06061 21.709 8.06061 22.515C8.06061 23.321 8.70505 23.9743 9.50001 23.9743Z" fill="#509EE3"/>
<path opacity="0.2" d="M13.5303 19.8884C14.3252 19.8884 14.9697 19.235 14.9697 18.4291C14.9697 17.6231 14.3252 16.9697 13.5303 16.9697C12.7353 16.9697 12.0909 17.6231 12.0909 18.4291C12.0909 19.235 12.7353 19.8884 13.5303 19.8884Z" fill="#509EE3"/>
<path d="M17.5606 19.8884C18.3556 19.8884 19 19.235 19 18.4291C19 17.6231 18.3556 16.9697 17.5606 16.9697C16.7657 16.9697 16.1212 17.6231 16.1212 18.4291C16.1212 19.235 16.7657 19.8884 17.5606 19.8884Z" fill="#509EE3"/>
</g>
<defs>
<clipPath id="clip0_374_2491">
<rect width="19" height="24" fill="white"/>
</clipPath>
</defs>
</svg>
