<svg width="24" height="9" viewBox="0 0 24 9" fill="none" xmlns="http://www.w3.org/2000/svg">
<g clip-path="url(#clip0_374_2384)">
<path d="M0 6.98175V3.48768H0.780018V3.93037C0.976813 3.57165 1.40538 3.38477 1.79139 3.38477C2.24103 3.38477 2.63419 3.59318 2.81709 4.00228C3.08468 3.54281 3.48502 3.38477 3.92748 3.38477C4.54611 3.38477 5.13607 3.78695 5.13607 4.71323V6.98175H4.34931V4.84931C4.34931 4.44022 4.14535 4.13145 3.68856 4.13145C3.25997 4.13145 2.97891 4.47595 2.97891 4.90658V6.98132H2.17824V4.84931C2.17824 4.44753 1.9806 4.13361 1.51705 4.13361C1.08174 4.13361 0.807411 4.46391 0.807411 4.90874V6.98346L0 6.98175Z" fill="#333333"/>
<path d="M6.13313 6.9821V1.78406H6.94853V6.9821H6.13313Z" fill="#333333"/>
<path d="M6.62109 8.88457C6.8044 8.93668 6.96918 8.9707 7.31894 8.9707C7.96917 8.9707 8.73611 8.59605 8.93797 7.54447L9.7715 3.32824H11.0108L11.1621 2.62676H9.91015L10.0787 1.78877C10.2077 1.13811 10.56 0.808249 11.1255 0.808249C11.2726 0.808249 11.2313 0.821166 11.3623 0.846573L11.5435 0.128296C11.369 0.074899 11.2127 0.0430329 10.8722 0.0430329C10.5127 0.0375096 10.1618 0.154983 9.87516 0.376764C9.55786 0.627387 9.34842 0.995568 9.25277 1.47098L9.01803 2.62676H7.90974L7.81913 3.32869H8.88108L8.11581 7.22711C8.03152 7.66935 7.78542 8.19816 7.07916 8.19816C6.91902 8.19816 6.97717 8.18568 6.83223 8.16156L6.62109 8.88457Z" fill="#0194E2"/>
<path d="M11.7449 6.95366H10.93L12.0471 1.70911H12.8621L11.7449 6.95366Z" fill="#0194E2"/>
<path d="M15.8106 3.70722C15.0993 3.19861 14.1309 3.29862 13.5336 3.94235C12.9362 4.58607 12.8899 5.57963 13.4247 6.27845L13.9586 5.87798C13.6935 5.54201 13.6397 5.08082 13.82 4.69058C14.0003 4.30034 14.3829 4.04969 14.8052 4.04526V4.47157L15.8106 3.70722Z" fill="#43C9ED"/>
<path d="M13.7874 6.6308C14.4987 7.13942 15.4672 7.0394 16.0645 6.39568C16.6619 5.75195 16.7082 4.7584 16.1734 4.05957L15.6395 4.46005C15.9045 4.79602 15.9584 5.2572 15.7781 5.64744C15.5978 6.03768 15.2152 6.28833 14.7929 6.29276V5.86646L13.7874 6.6308Z" fill="#0194E2"/>
<path d="M17.1945 3.48633H18.085L18.2662 5.87414L19.5342 3.48633L20.3795 3.49882L20.7116 5.87414L21.8287 3.48633L22.6437 3.49882L20.953 6.98472H20.138L19.7453 4.4858L18.4474 6.98472H17.602L17.1945 3.48633Z" fill="#0194E2"/>
<path d="M23.1351 3.54789H22.9665V3.48804H23.3727V3.54917H23.2043V4.05387H23.1351V3.54789Z" fill="#0194E2"/>
<path d="M23.4746 3.48804H23.559L23.6651 3.78947C23.6787 3.82821 23.6913 3.86784 23.7043 3.90746H23.7083C23.7212 3.86784 23.7331 3.82821 23.7461 3.78947L23.8514 3.48804H23.9357V4.05387H23.8701V3.74168C23.8701 3.69216 23.8754 3.62412 23.8789 3.57372H23.8754L23.8333 3.70291L23.7287 3.99618H23.6829L23.577 3.70334L23.535 3.57417H23.5317C23.5354 3.62454 23.5409 3.69258 23.5409 3.74211V4.05429H23.4768L23.4746 3.48804Z" fill="#0194E2"/>
</g>
<defs>
<clipPath id="clip0_374_2384">
<rect width="24" height="9" fill="white"/>
</clipPath>
</defs>
</svg>
