<svg width="24" height="24" viewBox="0 0 24 24" fill="none" xmlns="http://www.w3.org/2000/svg">
<g clip-path="url(#clip0_374_2456)">
<path d="M2.11371 2.95611C1.31996 3.14341 0.526198 3.80338 0.187291 4.55255C0.00891848 4.94497 0 5.11442 0 10.6618C0 16.1111 0.00891862 16.3876 0.178372 16.7443C0.633222 17.7521 1.52508 18.3586 2.67559 18.4478L3.29989 18.4923V17.4845H2.87179C2.23857 17.4845 1.56076 17.1189 1.23969 16.6105L0.981048 16.2003V10.6886C0.981048 4.63281 0.954292 4.95388 1.534 4.40093C2.14939 3.8123 1.61427 3.83906 12.1204 3.85689C22.6622 3.88365 21.8328 3.83906 22.4571 4.47228C23.0279 5.06091 23.019 4.93605 22.9922 10.8045L22.9654 16.12L22.6979 16.557C22.3679 17.0921 21.6812 17.4845 21.0747 17.4845H20.6912V17.8859C20.6912 18.1088 20.6823 18.314 20.6734 18.3496C20.6288 18.4745 21.262 18.4834 21.7614 18.3764C22.4214 18.2248 23.0903 17.7789 23.447 17.2527C24 16.4054 24 16.4678 23.9732 10.4745L23.9465 5.04307L23.7414 4.59714C23.4738 4.01743 22.8317 3.36637 22.2609 3.10773L21.806 2.9026L12.1293 2.88477C6.68004 2.88477 2.30992 2.91152 2.11371 2.95611Z" fill="black"/>
<path d="M17.3645 7.41581C16.8383 7.81714 16.8562 7.57634 16.8562 14.0245C16.8562 19.8038 16.8651 19.9465 17.0345 20.2319C17.2664 20.6064 17.9175 20.9097 18.3188 20.8383C18.7291 20.7581 19.1482 20.4727 19.3266 20.1427C19.4782 19.8662 19.4872 19.4559 19.4872 13.9621V8.07578L19.282 7.78147C18.9966 7.38905 18.6488 7.22852 18.0869 7.22852C17.748 7.23743 17.5429 7.29095 17.3645 7.41581ZM9.2575 10.6265C9.05237 10.7335 8.84724 10.9387 8.74022 11.1527C8.57076 11.4916 8.56184 11.67 8.56184 15.6744C8.56184 19.5719 8.57076 19.8751 8.7313 20.1605C9.23074 21.1148 10.5596 21.1148 11.0412 20.1605L11.2463 19.7592L11.2196 15.5674C11.1928 11.5719 11.1839 11.3578 11.0145 11.0814C10.8183 10.7514 10.2385 10.4392 9.84612 10.4392C9.70343 10.4481 9.43587 10.5284 9.2575 10.6265ZM13.7614 12.4994C13.3065 12.5886 13.0212 12.8294 12.8339 13.2575C12.6644 13.6232 12.6555 13.8372 12.6822 16.7982C12.709 19.777 12.7179 19.9554 12.8874 20.2497C13.2441 20.8562 14.1449 21.0613 14.7246 20.6689C15.3311 20.2675 15.34 20.214 15.34 16.6644C15.34 14.9164 15.3043 13.3913 15.2597 13.2753C15.0546 12.7313 14.35 12.3746 13.7614 12.4994ZM4.96764 15.4426C4.47712 15.8171 4.44144 15.9955 4.45036 18.0468C4.4682 20.1516 4.49495 20.2765 5.0925 20.6778C5.50276 20.9632 6.21625 20.9186 6.56407 20.5975C7.01892 20.1694 7.04568 20.0446 7.04568 18.02C7.04568 15.9331 7.01 15.7458 6.48381 15.4336C6.08247 15.1839 5.30655 15.1928 4.96764 15.4426Z" fill="black"/>
</g>
<defs>
<clipPath id="clip0_374_2456">
<rect width="24" height="24" fill="white"/>
</clipPath>
</defs>
</svg>
