<svg width="24" height="24" viewBox="0 0 24 24" fill="none" xmlns="http://www.w3.org/2000/svg">
<g clip-path="url(#clip0_374_2216)">
<path d="M3.69747 5.73705L8.57547 8.66205C8.84559 8.82439 9.16273 8.89049 9.47522 8.84956C9.78771 8.80864 10.0771 8.6631 10.2963 8.43667C10.4428 8.29548 10.5591 8.12604 10.6382 7.93859C10.7173 7.75115 10.7575 7.54961 10.7565 7.34617V1.4838C10.7662 1.22702 10.7065 0.972374 10.5837 0.746669C10.4609 0.520963 10.2795 0.332558 10.0586 0.201297C9.83773 0.0700397 9.58557 0.000763865 9.32865 0.000763865C9.07174 0.000763865 8.81957 0.0700397 8.59872 0.201297C8.37782 0.332558 8.1964 0.520963 8.07358 0.746669C7.95076 0.972374 7.89109 1.22702 7.90084 1.4838V4.8198L5.13072 3.15855C4.96737 3.06159 4.78624 2.99835 4.59803 2.97259C4.40983 2.94683 4.21837 2.95905 4.03497 3.00855C3.66522 3.10792 3.35322 3.36105 3.17247 3.70005C2.77609 4.41255 3.00747 5.30505 3.69747 5.7333M15.4237 8.6583L20.3017 5.7333C20.9917 5.30467 21.2235 4.40842 20.8267 3.6993C20.737 3.53198 20.6143 3.38456 20.4661 3.26592C20.3179 3.14729 20.1472 3.0599 19.9642 3.00902C19.7813 2.95814 19.59 2.94483 19.4018 2.96988C19.2136 2.99493 19.0324 3.05784 18.8692 3.1548L16.1317 4.79355V1.47855C16.1387 1.28669 16.1069 1.0954 16.0383 0.916101C15.9696 0.736802 15.8656 0.573172 15.7323 0.434983C15.599 0.296794 15.4393 0.186882 15.2626 0.11181C15.0859 0.0367382 14.8959 -0.00195312 14.7039 -0.00195312C14.5119 -0.00195313 14.3219 0.0367382 14.1452 0.11181C13.9685 0.186882 13.8088 0.296794 13.6755 0.434983C13.5422 0.573172 13.4382 0.736802 13.3695 0.916101C13.3009 1.0954 13.2691 1.28669 13.2761 1.47855V7.22467C13.2467 7.53247 13.3113 7.84194 13.4613 8.1123C13.6421 8.45092 13.9541 8.70105 14.3238 8.8038C14.507 8.85503 14.6988 8.86816 14.8873 8.84236C15.0757 8.81656 15.2569 8.75238 15.4196 8.6538M11.082 11.989C11.0868 11.8953 11.1225 11.8015 11.184 11.734L11.754 11.1415C11.8215 11.0787 11.9087 11.0414 12.0007 11.0358H12.0221C12.1139 11.0412 12.201 11.0786 12.2681 11.1415L12.8381 11.734C12.8998 11.8053 12.9357 11.8953 12.9401 11.9894V12.0119C12.9356 12.1063 12.8997 12.1964 12.8381 12.268L12.2681 12.8605C12.2013 12.924 12.1141 12.9617 12.0221 12.967H12.0007C11.9085 12.9618 11.8207 12.9239 11.754 12.8605L11.184 12.268C11.1224 12.1964 11.0865 12.1063 11.082 12.0119V11.989ZM9.35547 11.7453V12.2568C9.36181 12.3853 9.4109 12.5081 9.49497 12.6055L11.43 14.6144C11.5213 14.7008 11.6401 14.752 11.7656 14.7592H12.2576C12.383 14.752 12.5019 14.7008 12.5932 14.6144L14.5282 12.6055C14.6123 12.5081 14.6614 12.3853 14.6677 12.2568V11.7453C14.6614 11.6167 14.6123 11.494 14.5282 11.3965L12.5932 9.38767C12.5019 9.30133 12.383 9.25006 12.2576 9.24292H11.7656C11.6401 9.25006 11.5213 9.30133 11.43 9.38767L9.49497 11.4003C9.41115 11.4979 9.36209 11.6206 9.35547 11.749M1.17372 10.3578L3.93559 12.0142L1.17372 13.669C0.841773 13.8758 0.602126 14.2024 0.504452 14.5811C0.406779 14.9598 0.458571 15.3615 0.649092 15.703C0.738685 15.8706 0.861303 16.0183 1.00954 16.1371C1.15778 16.256 1.32857 16.3435 1.51159 16.3945C1.88134 16.4973 2.27734 16.4444 2.60734 16.2475L7.48534 13.3225C7.93534 13.0368 8.19784 12.5433 8.19784 12.013C8.19781 11.7527 8.13259 11.4964 8.00814 11.2677C7.88369 11.0389 7.70396 10.845 7.48534 10.7035L2.60734 7.77855C2.44399 7.68159 2.26286 7.61835 2.07466 7.59259C1.88645 7.56683 1.69499 7.57905 1.51159 7.62855C1.14184 7.72792 0.829842 7.98105 0.649092 8.32005C0.252717 9.03255 0.484092 9.9243 1.17409 10.3533M15.7972 12.019C15.7929 12.2799 15.8567 12.5374 15.9823 12.766C16.1079 12.9947 16.291 13.1866 16.5135 13.3229L21.3885 16.2479C21.7185 16.4444 22.1137 16.4977 22.4835 16.3949C22.8532 16.2922 23.1648 16.0424 23.346 15.7038C23.5374 15.3624 23.5896 14.9603 23.4918 14.5814C23.394 14.2024 23.1537 13.8759 22.821 13.6698L20.0625 12.0145L22.8243 10.3582C23.5143 9.92955 23.7457 9.03442 23.3493 8.32492C23.2599 8.15724 23.1374 8.00948 22.9891 7.89061C22.8408 7.77174 22.67 7.68424 22.4868 7.63342C22.1167 7.53067 21.7211 7.58317 21.3918 7.78342L16.5168 10.7084C16.2927 10.8457 16.1086 11.0394 15.9829 11.2702C15.8572 11.501 15.7943 11.7608 15.8006 12.0235M9.55497 15.1908C9.2183 15.1258 8.86951 15.1878 8.57584 15.3648L3.69784 18.2898C3.00784 18.7184 2.77684 19.6135 3.17284 20.323C3.35397 20.6617 3.66559 20.9118 4.03534 21.0142C4.21844 21.065 4.40994 21.0781 4.59827 21.0529C4.7866 21.0276 4.96785 20.9644 5.13109 20.8672L7.90122 19.2059V22.5172C7.89358 22.7094 7.92486 22.9012 7.99316 23.0811C8.06147 23.261 8.1654 23.4252 8.29872 23.5639C8.43204 23.7026 8.592 23.813 8.76901 23.8884C8.94603 23.9638 9.13644 24.0026 9.32884 24.0026C9.52124 24.0026 9.71166 23.9638 9.88867 23.8884C10.0657 23.813 10.2256 23.7026 10.359 23.5639C10.4923 23.4252 10.5962 23.261 10.6645 23.0811C10.7328 22.9012 10.7641 22.7094 10.7565 22.5172V16.6503C10.7615 16.3036 10.6436 15.9664 10.4235 15.6984C10.2035 15.4305 9.89563 15.2492 9.55459 15.1867M20.3021 18.2902L15.4241 15.3652C15.2609 15.2679 15.0796 15.2047 14.8913 15.1795C14.7029 15.1542 14.5114 15.1674 14.3283 15.2182C14.1453 15.2689 13.9744 15.3564 13.8261 15.4752C13.6779 15.594 13.5553 15.7417 13.4658 15.9093C13.3158 16.1801 13.2512 16.4899 13.2806 16.798V22.5168C13.273 22.709 13.3042 22.9009 13.3725 23.0807C13.4408 23.2606 13.5448 23.4248 13.6781 23.5635C13.8114 23.7022 13.9714 23.8126 14.1484 23.888C14.3254 23.9634 14.5158 24.0022 14.7082 24.0022C14.9006 24.0022 15.091 23.9634 15.268 23.888C15.4451 23.8126 15.605 23.7022 15.7383 23.5635C15.8717 23.4248 15.9756 23.2606 16.0439 23.0807C16.1122 22.9009 16.1435 22.709 16.1358 22.5168V19.2303L18.8685 20.869C19.0318 20.966 19.2129 21.0292 19.4012 21.055C19.5894 21.0808 19.7808 21.0685 19.9642 21.019C20.334 20.9197 20.646 20.6665 20.8267 20.3275C21.2231 19.615 20.9917 18.7225 20.3017 18.2943" fill="#29B5E8"/>
</g>
<defs>
<clipPath id="clip0_374_2216">
<rect width="24" height="24" fill="white"/>
</clipPath>
</defs>
</svg>
