<svg width="32" height="32" viewBox="0 0 32 32" fill="none" xmlns="http://www.w3.org/2000/svg">
<path fill-rule="evenodd" clip-rule="evenodd" d="M7.83863 3.8385C6.66663 5.00917 6.66663 6.89584 6.66663 10.6665V21.3332C6.66663 25.1038 6.66663 26.9905 7.83863 28.1612C9.00929 29.3332 10.896 29.3332 14.6666 29.3332H17.3333C21.104 29.3332 22.9906 29.3332 24.1613 28.1612C25.3333 26.9905 25.3333 25.1038 25.3333 21.3332V10.6665C25.3333 6.89584 25.3333 5.00917 24.1613 3.8385C22.9906 2.6665 21.104 2.6665 17.3333 2.6665H14.6666C10.896 2.6665 9.00929 2.6665 7.83863 3.8385ZM11 22.6665C11 22.4013 11.1053 22.1469 11.2929 21.9594C11.4804 21.7719 11.7347 21.6665 12 21.6665H16C16.2652 21.6665 16.5195 21.7719 16.7071 21.9594C16.8946 22.1469 17 22.4013 17 22.6665C17 22.9317 16.8946 23.1861 16.7071 23.3736C16.5195 23.5611 16.2652 23.6665 16 23.6665H12C11.7347 23.6665 11.4804 23.5611 11.2929 23.3736C11.1053 23.1861 11 22.9317 11 22.6665ZM12 16.3332C11.7347 16.3332 11.4804 16.4385 11.2929 16.6261C11.1053 16.8136 11 17.068 11 17.3332C11 17.5984 11.1053 17.8527 11.2929 18.0403C11.4804 18.2278 11.7347 18.3332 12 18.3332H20C20.2652 18.3332 20.5195 18.2278 20.7071 18.0403C20.8946 17.8527 21 17.5984 21 17.3332C21 17.068 20.8946 16.8136 20.7071 16.6261C20.5195 16.4385 20.2652 16.3332 20 16.3332H12ZM11 11.9998C11 11.7346 11.1053 11.4803 11.2929 11.2927C11.4804 11.1052 11.7347 10.9998 12 10.9998H20C20.2652 10.9998 20.5195 11.1052 20.7071 11.2927C20.8946 11.4803 21 11.7346 21 11.9998C21 12.2651 20.8946 12.5194 20.7071 12.7069C20.5195 12.8945 20.2652 12.9998 20 12.9998H12C11.7347 12.9998 11.4804 12.8945 11.2929 12.7069C11.1053 12.5194 11 12.2651 11 11.9998Z" fill="white"/>
<path opacity="0.5" d="M6.97996 5.41064C6.66663 6.58798 6.66663 8.23598 6.66663 10.6666V21.3333C6.66663 23.764 6.66663 25.4106 6.97996 26.5893L6.66663 26.5653C5.36663 26.4373 4.49196 26.148 3.83863 25.4946C2.66663 24.324 2.66663 22.4373 2.66663 18.6666V13.3333C2.66663 9.56131 2.66663 7.67598 3.83863 6.50531C4.49196 5.85198 5.36663 5.56264 6.66663 5.43464L6.97996 5.41064ZM25.02 26.5893C25.3333 25.4106 25.3333 23.7626 25.3333 21.3333V10.6666C25.3333 8.23598 25.3333 6.58798 25.02 5.41064L25.3333 5.43464C26.6333 5.56264 27.508 5.85198 28.1613 6.50531C29.3333 7.67598 29.3333 9.55998 29.3333 13.332V18.6653C29.3333 22.4386 29.3333 24.3226 28.1613 25.4946C27.508 26.148 26.6333 26.4373 25.3333 26.5653L25.02 26.5893Z" fill="white"/>
</svg>
