<svg width="24" height="24" viewBox="0 0 24 24" fill="none" xmlns="http://www.w3.org/2000/svg">
<path d="M10.5908 10.3311C10.6601 10.3818 10.7445 10.4118 10.8364 10.4118C11.0614 10.4118 11.2451 10.2336 11.2545 10.0124L11.2639 10.0068L11.4045 7.52051C11.2358 7.54113 11.067 7.56926 10.8983 7.60676C9.97388 7.81676 9.17325 8.27238 8.547 8.88738L10.5851 10.333L10.5908 10.3311ZM10.3189 13.9743C10.2951 13.869 10.2314 13.7771 10.1411 13.718C10.0508 13.6588 9.94112 13.6371 9.83513 13.6574L9.83138 13.6518L7.3845 14.0661C7.75165 15.0828 8.44444 15.9496 9.35513 16.5318L10.3039 14.2405L10.2964 14.2311C10.3283 14.1524 10.3395 14.0643 10.3189 13.9743ZM9.50513 12.2099C9.58763 12.1874 9.6645 12.1386 9.72263 12.0674C9.86325 11.8911 9.83888 11.638 9.67013 11.4918L9.672 11.4824L7.81013 9.81738C7.24238 10.7419 6.99832 11.8289 7.11638 12.9074L9.50325 12.2193L9.50513 12.2099ZM11.3126 12.9411L11.9989 13.2711L12.6851 12.943L12.8539 12.2024L12.3795 11.6099H11.6183L11.142 12.2024L11.3126 12.9411ZM12.7376 10.003C12.7414 10.0893 12.7714 10.1736 12.8295 10.2449C12.9701 10.4211 13.2233 10.453 13.4033 10.3218L13.4108 10.3255L15.4358 8.88926C14.6708 8.14113 13.6733 7.65176 12.5951 7.52051L12.7358 10.003H12.7376ZM14.1589 13.6461C14.127 13.6405 14.0951 13.6368 14.0633 13.6386C14.0089 13.6405 13.9545 13.6555 13.9039 13.6799C13.8068 13.7267 13.7315 13.8092 13.6938 13.9101C13.6561 14.0111 13.6588 14.1227 13.7014 14.2218L13.6976 14.2255L14.6558 16.5393C15.5801 15.9505 16.2701 15.0711 16.632 14.0568L14.1645 13.6386L14.1589 13.6461ZM12.3664 14.8724C12.3291 14.804 12.2737 14.7474 12.2061 14.7086C12.1386 14.6699 12.0617 14.6507 11.9839 14.653C11.8395 14.6586 11.7026 14.7393 11.6295 14.8743H11.6276L10.4239 17.0493C11.2858 17.3423 12.2122 17.3897 13.0995 17.1861C13.2645 17.1486 13.4258 17.1036 13.5814 17.0511L12.3758 14.8705H12.3664V14.8724Z" fill="#486BB3"/>
<path d="M23.352 14.3977L21.3945 5.89836C21.3434 5.6779 21.2432 5.47183 21.1013 5.29553C20.9595 5.11923 20.7796 4.97727 20.5751 4.88024L12.6551 1.09649C12.4261 0.987541 12.1735 0.937282 11.9201 0.950239C11.7186 0.960142 11.5211 1.00985 11.3389 1.09649L3.41888 4.88024C3.21478 4.97775 3.03519 5.11987 2.89337 5.29609C2.75155 5.47231 2.65113 5.67813 2.59951 5.89836L0.647634 14.3996C0.602293 14.5955 0.597194 14.7985 0.632647 14.9964C0.6681 15.1943 0.743367 15.3829 0.853884 15.5509C0.880134 15.5921 0.910134 15.6315 0.940134 15.6709L6.42263 22.4865C6.56526 22.6633 6.7458 22.8059 6.9509 22.9035C7.15601 23.0012 7.38045 23.0516 7.60763 23.0509L16.3995 23.049C16.8608 23.049 17.2958 22.8409 17.5845 22.4846L23.0651 15.6671C23.2054 15.4908 23.3041 15.285 23.3538 15.0652C23.4035 14.8454 23.4029 14.6173 23.352 14.3977ZM20.3389 14.2946C20.2808 14.5477 20.0089 14.7015 19.7276 14.6415C19.7258 14.6415 19.722 14.6415 19.7201 14.6396C19.7164 14.6396 19.7145 14.6377 19.7108 14.6359C19.6714 14.6265 19.6226 14.619 19.5889 14.6096C19.4276 14.5665 19.3095 14.5009 19.1633 14.4446C18.8501 14.3321 18.5895 14.2384 18.3364 14.2009C18.207 14.1915 18.1414 14.2515 18.0701 14.2984C18.0364 14.2909 17.9295 14.2721 17.8676 14.2627C17.4139 15.6896 16.4464 16.9271 15.1358 17.6996C15.1583 17.754 15.1976 17.8702 15.2145 17.8909C15.1845 17.9715 15.1395 18.0465 15.1789 18.1702C15.2708 18.4084 15.4189 18.6427 15.5989 18.9221C15.6851 19.0515 15.7751 19.1509 15.8539 19.3009C15.8726 19.3365 15.897 19.3909 15.9158 19.4284C16.0376 19.689 15.9476 19.989 15.7133 20.1015C15.477 20.2159 15.1845 20.0959 15.057 19.8334C15.0383 19.7959 15.0139 19.7471 14.9989 19.7115C14.9314 19.5577 14.9089 19.4265 14.862 19.2765C14.7551 18.9615 14.6651 18.7009 14.5376 18.4796C14.4645 18.3727 14.3764 18.3596 14.2958 18.3334C14.2808 18.3071 14.2245 18.204 14.1945 18.1515C13.932 18.2509 13.662 18.3334 13.3808 18.3971C12.1508 18.6765 10.9189 18.564 9.82013 18.1402L9.71326 18.3352C9.63263 18.3559 9.55576 18.3784 9.50888 18.4346C9.33638 18.6409 9.26701 18.9709 9.14138 19.2859C9.09451 19.434 9.07201 19.5671 9.00451 19.7209C8.98951 19.7565 8.96326 19.8052 8.94638 19.8409V19.8427L8.94451 19.8446C8.81888 20.1052 8.52638 20.2252 8.29013 20.1127C8.05576 20.0002 7.96763 19.7002 8.08763 19.4396C8.10638 19.4021 8.12888 19.3477 8.14763 19.3121C8.22638 19.164 8.31451 19.0627 8.40263 18.9334C8.58263 18.6521 8.74013 18.4009 8.83201 18.1627C8.85451 18.084 8.82076 17.9752 8.79076 17.8946L8.87701 17.6884C7.61513 16.9402 6.61951 15.7496 6.14326 14.274L5.93701 14.3096C5.88076 14.2777 5.77013 14.2046 5.66513 14.214C5.41201 14.2515 5.15138 14.3452 4.83826 14.4577C4.69201 14.514 4.57576 14.5777 4.41263 14.6209C4.37888 14.6302 4.33013 14.6396 4.29076 14.649C4.28701 14.649 4.28513 14.6509 4.28138 14.6527C4.27951 14.6527 4.27576 14.6527 4.27388 14.6546C3.99263 14.7146 3.72076 14.5609 3.66263 14.3077C3.60451 14.0546 3.78451 13.7977 4.06388 13.7302C4.06576 13.7302 4.06951 13.7284 4.07138 13.7284C4.07326 13.7284 4.07326 13.7284 4.07513 13.7265C4.11451 13.7171 4.16513 13.704 4.20263 13.6965C4.36763 13.6646 4.50263 13.6721 4.65826 13.6609C4.99013 13.6252 5.26388 13.5971 5.50763 13.5202C5.58451 13.4884 5.65951 13.3815 5.71201 13.314L5.91076 13.2559C5.68763 11.7146 6.06451 10.2034 6.87826 8.97899L6.72638 8.84399C6.71701 8.78399 6.70388 8.64899 6.63076 8.57024C6.44513 8.39586 6.20888 8.24961 5.92576 8.07524C5.79076 7.99649 5.66701 7.94586 5.53201 7.84461C5.50388 7.82399 5.46451 7.79024 5.43451 7.76586C5.43263 7.76399 5.42888 7.76211 5.42701 7.76024C5.20013 7.57836 5.14763 7.26524 5.31076 7.06086C5.40263 6.94649 5.54326 6.88836 5.68763 6.89399C5.80013 6.89774 5.91826 6.93899 6.01763 7.01774C6.04951 7.04399 6.09451 7.07774 6.12263 7.10211C6.25013 7.21086 6.32701 7.31961 6.43388 7.43399C6.66826 7.67211 6.86138 7.86899 7.07326 8.01149C7.18388 8.07711 7.27013 8.05086 7.35451 8.03961C7.38263 8.06024 7.47263 8.12586 7.52513 8.16149C8.33138 7.30461 9.39263 6.67086 10.6226 6.39149C10.9095 6.32586 11.1945 6.28274 11.4795 6.26024L11.4908 6.05961C11.5545 5.99774 11.6239 5.91149 11.6445 5.81399C11.6651 5.55899 11.6314 5.28524 11.592 4.95336C11.5695 4.79961 11.5339 4.67024 11.5264 4.50336C11.5245 4.46961 11.5264 4.42086 11.5283 4.38149C11.5283 4.37774 11.5264 4.37211 11.5264 4.36836C11.5264 4.07774 11.7383 3.84149 12.0008 3.84149C12.2633 3.84149 12.4751 4.07774 12.4751 4.36836C12.4751 4.40961 12.477 4.46586 12.477 4.50336C12.4714 4.67024 12.4339 4.79961 12.4114 4.95336C12.372 5.28336 12.3364 5.55899 12.357 5.81399C12.3758 5.94149 12.4508 5.99211 12.5126 6.05024C12.5145 6.08399 12.5201 6.19836 12.5239 6.26211C14.0314 6.39524 15.4301 7.08524 16.4595 8.16336L16.6395 8.03399C16.7014 8.03774 16.8345 8.05649 16.9264 8.00211C17.1383 7.85961 17.3314 7.66086 17.5658 7.42461C17.6726 7.31024 17.7514 7.20336 17.8789 7.09274C17.907 7.06836 17.952 7.03461 17.9839 7.00836C18.2108 6.82649 18.5276 6.84712 18.6908 7.05149C18.8539 7.25587 18.8014 7.56899 18.5745 7.75086C18.5426 7.77711 18.5014 7.81274 18.4695 7.83524C18.3345 7.93461 18.2108 7.98524 18.0758 8.06587C17.7926 8.24024 17.5564 8.38649 17.3708 8.56086C17.2826 8.65461 17.2901 8.74462 17.2808 8.82899C17.2545 8.85336 17.1626 8.93586 17.112 8.97899C17.5315 9.60317 17.8327 10.2991 18.0008 11.0321C18.1733 11.7802 18.1995 12.5265 18.1001 13.2446L18.2914 13.3009C18.3251 13.3496 18.3964 13.4677 18.4958 13.5071C18.7395 13.584 19.0133 13.6121 19.3451 13.6477C19.5008 13.6609 19.6358 13.6534 19.8008 13.6834C19.8401 13.6909 19.8983 13.7059 19.9376 13.7152C20.2189 13.7846 20.397 14.0415 20.3389 14.2946Z" fill="#486BB3"/>
<path d="M16.1764 9.81738L14.3239 11.4749L14.3258 11.4805C14.262 11.5368 14.2133 11.6118 14.1926 11.7018C14.142 11.9211 14.2751 12.1386 14.4889 12.1986L14.4908 12.208L16.8889 12.898C16.9395 12.3805 16.9095 11.8443 16.7858 11.308C16.662 10.7661 16.4539 10.2655 16.1764 9.81738Z" fill="#486BB3"/>
</svg>
