<svg width="32" height="32" viewBox="0 0 32 32" fill="none" xmlns="http://www.w3.org/2000/svg">
<path d="M20.6666 10.0002C20.6666 10.613 20.5459 11.2198 20.3114 11.786C20.0769 12.3522 19.7331 12.8667 19.2998 13.3C18.8665 13.7333 18.352 14.0771 17.7858 14.3116C17.2196 14.5461 16.6128 14.6668 16 14.6668C15.3871 14.6668 14.7803 14.5461 14.2141 14.3116C13.6479 14.0771 13.1335 13.7333 12.7001 13.3C12.2668 12.8667 11.923 12.3522 11.6885 11.786C11.454 11.2198 11.3333 10.613 11.3333 10.0002C11.3333 8.76249 11.825 7.5755 12.7001 6.70033C13.5753 5.82516 14.7623 5.3335 16 5.3335C17.2376 5.3335 18.4246 5.82516 19.2998 6.70033C20.175 7.5755 20.6666 8.76249 20.6666 10.0002ZM24 22.0002C24 24.5775 20.4186 26.6668 16 26.6668C11.5813 26.6668 7.99996 24.5775 7.99996 22.0002C7.99996 19.4228 11.5813 17.3335 16 17.3335C20.4186 17.3335 24 19.4228 24 22.0002ZM9.49596 6.66683C9.73329 6.66683 9.96351 6.68905 10.1866 6.7335C9.6266 7.73113 9.33273 8.85609 9.33329 10.0002C9.33329 11.1575 9.62796 12.2468 10.1466 13.1948C9.93596 13.2348 9.71907 13.2548 9.49596 13.2548C7.61063 13.2548 6.08129 11.7802 6.08129 9.9615C6.08129 8.14283 7.61063 6.66683 9.49596 6.66683ZM7.26263 25.3148C6.50663 24.4095 5.99996 23.2988 5.99996 22.0002C5.99996 20.7415 6.47596 19.6588 7.19463 18.7695C4.65329 18.9668 2.66663 20.3562 2.66663 22.0388C2.66663 23.7388 4.68929 25.1388 7.26263 25.3148ZM22.6666 10.0002C22.6666 11.1575 22.372 12.2468 21.8533 13.1948C22.0631 13.2348 22.28 13.2548 22.504 13.2548C24.3893 13.2548 25.9173 11.7802 25.9173 9.9615C25.9173 8.14283 24.3906 6.66683 22.5053 6.66683C22.268 6.66683 22.0377 6.68905 21.8146 6.7335C22.3573 7.69883 22.6666 8.8135 22.6666 10.0002ZM24.7373 25.3148C27.3106 25.1388 29.3333 23.7388 29.3333 22.0388C29.3333 20.3548 27.3453 18.9668 24.8053 18.7695C25.5253 19.6588 26 20.7415 26 22.0002C26 23.2988 25.4933 24.4095 24.7373 25.3148Z" fill="white"/>
</svg>
